<svg width="1280" height="800" viewBox="0 0 1280 800" fill="none" xmlns="http://www.w3.org/2000/svg">
<g clip-path="url(#clip0_340_1348)">
<rect width="1280" height="800" fill="#001A3D"/>
<path d="M548.04 188.5H709.999L1731.74 789H-243.259L548.04 188.5Z" fill="#FFF831"/>
<path d="M589.104 156.1H661.642L710 188.5H548L589.104 156.1Z" fill="white"/>
<path d="M1254.25 25L1252.5 18.5" stroke="white" stroke-width="0.5"/>
<path d="M1221.15 95.1943L1279.96 18.5866" stroke="white" stroke-width="0.5"/>
<path d="M1251 110.44L1280.18 18.3794" stroke="white" stroke-width="0.5"/>
<path d="M1187 41.6677L1280.75 18.4836" stroke="white" stroke-width="0.5"/>
<path d="M1198.5 70.9207L1279.77 18.7406" stroke="white" stroke-width="0.5"/>
<path d="M1249.57 112.29H1247.54V111.183H1249.58L1248.57 109.441L1249.52 108.888L1250.54 110.643L1251.55 108.888L1252.51 109.441L1251.5 111.183H1253.53V112.29H1251.51L1252.52 114.031L1251.56 114.585L1250.54 112.83L1249.51 114.585L1248.55 114.031L1249.57 112.29Z" fill="white"/>
<path d="M1220.57 96.29H1218.54V95.183H1220.58L1219.57 93.4415L1220.52 92.888L1221.54 94.643L1222.55 92.888L1223.51 93.4415L1222.5 95.183H1224.53V96.29H1222.51L1223.52 98.0315L1222.56 98.585L1221.54 96.83L1220.51 98.585L1219.55 98.0315L1220.57 96.29Z" fill="white"/>
<path d="M1198.07 71.79H1196.04V70.683H1198.08L1197.07 68.9415L1198.02 68.388L1199.04 70.143L1200.05 68.388L1201.01 68.9415L1200 70.683H1202.03V71.79H1200.01L1201.02 73.5315L1200.06 74.085L1199.04 72.33L1198.01 74.085L1197.05 73.5315L1198.07 71.79Z" fill="white"/>
<path d="M1186.07 42.79H1184.04V41.683H1186.08L1185.07 39.9415L1186.02 39.388L1187.04 41.143L1188.05 39.388L1189.01 39.9415L1188 41.683H1190.03V42.79H1188.01L1189.02 44.5315L1188.06 45.085L1187.04 43.33L1186.01 45.085L1185.05 44.5315L1186.07 42.79Z" fill="white"/>
<line x1="1186.75" y1="42.0212" x2="1184.75" y2="18.5212" stroke="white" stroke-width="0.5"/>
<line x1="1198.77" y1="71.0922" x2="1187.27" y2="42.0922" stroke="white" stroke-width="0.5"/>
<line x1="1222.32" y1="95.6711" x2="1199.32" y2="71.1711" stroke="white" stroke-width="0.5"/>
<line x1="1250.88" y1="111.719" x2="1221.88" y2="95.7189" stroke="white" stroke-width="0.5"/>
<line x1="1250.54" y1="111.254" x2="1280.04" y2="116.254" stroke="white" stroke-width="0.5"/>
<line x1="1257.87" y1="89.2139" x2="1236.37" y2="76.2139" stroke="white" stroke-width="0.5"/>
<line x1="1236.31" y1="76.161" x2="1220.31" y2="57.161" stroke="white" stroke-width="0.5"/>
<line x1="1220.28" y1="57.6201" x2="1208.78" y2="36.6201" stroke="white" stroke-width="0.5"/>
<path d="M1208.75 36.5L1205 18.5" stroke="white" stroke-width="0.5"/>
<path d="M1223 18.5L1226.25 32" stroke="white" stroke-width="0.5"/>
<line x1="1226.22" y1="31.8882" x2="1234.22" y2="47.8882" stroke="white" stroke-width="0.5"/>
<line x1="1234.19" y1="47.8335" x2="1246.69" y2="61.8335" stroke="white" stroke-width="0.5"/>
<line x1="1246.64" y1="61.792" x2="1263.14" y2="72.792" stroke="white" stroke-width="0.5"/>
<path d="M1263 72.75L1280 75.75" stroke="white" stroke-width="0.5"/>
<path d="M1240.5 28.5L1238.5 18.5" stroke="white" stroke-width="0.5"/>
<path d="M1247.25 39.5L1240.5 28.5001" stroke="white" stroke-width="0.5"/>
<path d="M1257 48.25L1247.25 39.5" stroke="white" stroke-width="0.5"/>
<path d="M1268.75 54.2501L1257 48.2502" stroke="white" stroke-width="0.5"/>
<path d="M1258.75 32.2499L1254.25 24.9999" stroke="white" stroke-width="0.5"/>
<path d="M1265 38L1258.75 32.2499" stroke="white" stroke-width="0.5"/>
<path d="M1272.75 41.75L1265 38.0002" stroke="white" stroke-width="0.5"/>
<path d="M1272.75 41.75L1280 43" stroke="white" stroke-width="0.5"/>
<path d="M1257.5 89.0002L1280 92.25" stroke="white" stroke-width="0.5"/>
<path d="M1268.75 54.25L1280 56" stroke="white" stroke-width="0.5"/>
</g>
<defs>
<clipPath id="clip0_340_1348">
<rect width="1280" height="800" fill="white"/>
</clipPath>
</defs>
</svg>
