<svg width="228" height="311" viewBox="0 0 228 311" fill="none" xmlns="http://www.w3.org/2000/svg">
<g clip-path="url(#clip0_365_118)">
<rect width="228" height="311" rx="17" fill="#001A3D"/>
<path d="M21.8087 285.492H21.3976V10.8524H21.8087V285.492Z" fill="white"/>
<path d="M164.476 284.607V285.429H21.5638V284.607H164.476Z" fill="white"/>
<path d="M164.476 141.695V142.517H21.5638V141.695H164.476Z" fill="white"/>
<path d="M171.932 155.365V156.187H14.1076V155.365H171.932Z" fill="white"/>
<path d="M171.932 298.276V299.099H14.1076V298.276H171.932Z" fill="white"/>
<path d="M164.977 10.2517L164.97 11.074L21.6104 9.83815L21.6175 9.01587L164.977 10.2517Z" fill="white"/>
<path d="M171.932 22.3943V23.2167H14.1076V22.3943H171.932Z" fill="white"/>
<path d="M29.8423 299.099H29.02V23.2166H29.8423V299.099Z" fill="white"/>
<path d="M173.868 23.1769C198.062 34.1742 208.244 58.9909 206.053 83.5071C203.861 108.021 189.296 132.328 163.888 142.362L163.736 141.98L163.586 141.598C188.654 131.697 203.065 107.696 205.234 83.4336C207.403 59.1733 197.328 34.7433 173.528 23.9253L173.699 23.5511L173.868 23.1769Z" fill="white"/>
<path d="M216.338 77.8559C216.338 107.988 200.217 139.771 170.147 155.432L169.958 155.069L169.767 154.704C199.534 139.201 215.515 107.717 215.515 77.8562C215.515 48.0106 199.558 19.8408 165.489 10.8591L165.699 10.0645C200.194 19.1586 216.337 47.709 216.338 77.8559Z" fill="white"/>
<path d="M224.088 222.957C224.101 255.647 207.397 290.03 173.809 299.447L173.698 299.053L173.588 298.657C206.692 289.375 223.279 255.433 223.266 222.957C223.252 190.474 206.645 159.751 173.661 156.748L173.736 155.929C207.335 158.989 224.074 190.274 224.088 222.957Z" fill="white"/>
<path d="M203.9 188.096C212.067 201.598 214.357 216.945 212.516 231.397C210.675 245.846 204.705 259.421 196.324 269.389C187.946 279.354 177.127 285.75 165.594 285.75L165.593 285.339V284.927C176.811 284.927 187.419 278.703 195.695 268.859C203.968 259.018 209.879 245.594 211.701 231.293C213.522 216.995 211.253 201.841 203.195 188.521C195.14 175.206 181.28 163.692 159.856 156.706L160.111 155.924C181.696 162.963 195.729 174.59 203.9 188.096Z" fill="white"/>
<path d="M20.9865 10.8525H21.3976V285.492H20.9865V10.8525Z" fill="white"/>
<path d="M13.2853 23.2162H14.1076V299.099H13.2853V23.2162Z" fill="white"/>
<path d="M19.7327 24.8917H15.8218L17.7773 28.3306L15.8218 29.4095L13.8664 26.0043L11.9109 29.4095L9.95546 28.3306L11.9109 24.8917H8V22.7003H11.9109L9.95546 19.2614L11.9109 18.1825L13.8664 21.5877L15.8218 18.1825L17.7773 19.2614L15.8218 22.7003H19.7327V24.8917ZM19.4967 11.7092H15.5858V9.51778H19.4967L17.5413 6.07887L19.4967 5L21.4522 8.40519L23.4077 5L25.3631 6.07887L23.4077 9.51778H27.3186V11.7092H23.4077L25.3631 15.1482L23.4077 16.227L21.4522 12.8218L19.4967 16.227L17.5413 15.1482L19.4967 11.7092ZM23.1717 24.8917V22.7003H27.0826L25.1271 19.2614L27.0826 18.1825L29.038 21.5877L30.9935 18.1825L32.9489 19.2614L30.9935 22.7003H34.9044V24.8917H30.9935L32.9489 28.3306L30.9935 29.4095L29.038 26.0043L27.0826 29.4095L25.1271 28.3306L27.0826 24.8917H23.1717Z" fill="white"/>
<path d="M162.645 300.94H158.734L160.689 304.379L158.734 305.458L156.778 302.053L154.823 305.458L152.867 304.379L154.823 300.94H150.912V298.749H154.823L152.867 295.31L154.823 294.231L156.778 297.636L158.734 294.231L160.689 295.31L158.734 298.749H162.645V300.94ZM162.409 287.758H158.498V285.566H162.409L160.453 282.127L162.409 281.048L164.364 284.454L166.32 281.048L168.275 282.127L166.32 285.566H170.231V287.758H166.32L168.275 291.197L166.32 292.275L164.364 288.87L162.409 292.275L160.453 291.197L162.409 287.758ZM166.084 300.94V298.749H169.995L168.039 295.31L169.995 294.231L171.95 297.636L173.905 294.231L175.861 295.31L173.905 298.749H177.816V300.94H173.905L175.861 304.379L173.905 305.458L171.95 302.053L169.995 305.458L168.039 304.379L169.995 300.94H166.084Z" fill="white"/>
<path d="M162.279 25.7111H158.368L160.323 29.15L158.368 30.2289L156.412 26.8237L154.457 30.2289L152.501 29.15L154.457 25.7111H150.546V23.5196H154.457L152.501 20.0807L154.457 19.0019L156.412 22.407L158.368 19.0019L160.323 20.0807L158.368 23.5196H162.279V25.7111ZM162.043 12.5286H158.132V10.3371H162.043L160.087 6.89821L162.043 5.81934L163.998 9.22453L165.953 5.81934L167.909 6.89821L165.953 10.3371H169.864V12.5286H165.953L167.909 15.9675L165.953 17.0464L163.998 13.6412L162.043 17.0464L160.087 15.9675L162.043 12.5286ZM165.717 25.7111V23.5196H169.628L167.673 20.0807L169.628 19.0019L171.584 22.407L173.539 19.0019L175.495 20.0807L173.539 23.5196H177.45V25.7111H173.539L175.495 29.15L173.539 30.2289L171.584 26.8237L169.628 30.2289L167.673 29.15L169.628 25.7111H165.717Z" fill="white"/>
<path d="M162.645 158.028H158.734L160.689 161.467L158.734 162.546L156.778 159.141L154.823 162.546L152.867 161.467L154.823 158.028H150.912V155.837H154.823L152.867 152.398L154.823 151.319L156.778 154.724L158.734 151.319L160.689 152.398L158.734 155.837H162.645V158.028ZM162.409 144.846H158.498V142.654H162.409L160.453 139.216L162.409 138.137L164.364 141.542L166.32 138.137L168.275 139.216L166.32 142.654H170.231V144.846H166.32L168.275 148.285L166.32 149.364L164.364 145.958L162.409 149.364L160.453 148.285L162.409 144.846ZM166.084 158.028V155.837H169.995L168.039 152.398L169.995 151.319L171.95 154.724L173.905 151.319L175.861 152.398L173.905 155.837H177.816V158.028H173.905L175.861 161.467L173.905 162.546L171.95 159.141L169.995 162.546L168.039 161.467L169.995 158.028H166.084Z" fill="white"/>
<path d="M19.7327 158.028H15.8218L17.7773 161.467L15.8218 162.546L13.8664 159.141L11.9109 162.546L9.95546 161.467L11.9109 158.028H8V155.837H11.9109L9.95546 152.398L11.9109 151.319L13.8664 154.724L15.8218 151.319L17.7773 152.398L15.8218 155.837H19.7327V158.028ZM19.4967 144.846H15.5858V142.654H19.4967L17.5413 139.216L19.4967 138.137L21.4522 141.542L23.4077 138.137L25.3631 139.216L23.4077 142.654H27.3186V144.846H23.4077L25.3631 148.285L23.4077 149.364L21.4522 145.958L19.4967 149.364L17.5413 148.285L19.4967 144.846ZM23.1717 158.028V155.837H27.0826L25.1271 152.398L27.0826 151.319L29.038 154.724L30.9935 151.319L32.9489 152.398L30.9935 155.837H34.9044V158.028H30.9935L32.9489 161.467L30.9935 162.546L29.038 159.141L27.0826 162.546L25.1271 161.467L27.0826 158.028H23.1717Z" fill="white"/>
<path d="M19.7327 300.94H15.8218L17.7773 304.379L15.8218 305.458L13.8664 302.053L11.9109 305.458L9.95546 304.379L11.9109 300.94H8V298.749H11.9109L9.95546 295.31L11.9109 294.231L13.8664 297.636L15.8218 294.231L17.7773 295.31L15.8218 298.749H19.7327V300.94ZM19.4967 287.758H15.5858V285.566H19.4967L17.5413 282.127L19.4967 281.048L21.4522 284.454L23.4077 281.048L25.3631 282.127L23.4077 285.566H27.3186V287.758H23.4077L25.3631 291.197L23.4077 292.275L21.4522 288.87L19.4967 292.275L17.5413 291.197L19.4967 287.758ZM23.1717 300.94V298.749H27.0826L25.1271 295.31L27.0826 294.231L29.038 297.636L30.9935 294.231L32.9489 295.31L30.9935 298.749H34.9044V300.94H30.9935L32.9489 304.379L30.9935 305.458L29.038 302.053L27.0826 305.458L25.1271 304.379L27.0826 300.94H23.1717Z" fill="white"/>
</g>
<defs>
<clipPath id="clip0_365_118">
<rect width="228" height="311" fill="white"/>
</clipPath>
</defs>
</svg>
