<svg width="117" height="119" viewBox="0 0 117 119" fill="none" xmlns="http://www.w3.org/2000/svg">
<g clip-path="url(#clip0_385_252)">
<rect width="117" height="119" fill="white"/>
<path d="M117 0H0V119.616H117V0Z" fill="#CDA170"/>
<mask id="mask0_385_252" style="mask-type:alpha" maskUnits="userSpaceOnUse" x="0" y="0" width="117" height="120">
<path d="M117 0.000488281H0V119.617H117V0.000488281Z" fill="#DBBA95"/>
</mask>
<g mask="url(#mask0_385_252)">
<path d="M110.85 -7.50204L-7.33789 113.329L6.49874 127.475L124.687 6.64399L110.85 -7.50204Z" fill="#D9D9D9"/>
</g>
<path d="M66.306 45.1986L66.7538 45.6564C66.7721 44.8054 67.0479 44.107 67.5819 43.5611C68.4052 42.7191 69.4324 42.3539 70.6628 42.4648C70.5543 41.2065 70.9298 40.1383 71.7897 39.2592C72.6312 38.3989 73.6626 37.9735 74.8843 37.9826C76.1059 37.9735 77.1374 38.3989 77.9789 39.2592L82.838 44.2273L81.0193 46.0867L76.1602 41.1186C75.7892 40.7394 75.3412 40.5406 74.8163 40.5222C74.2914 40.4851 73.8525 40.6469 73.4999 41.0077C73.1469 41.3686 72.9839 41.822 73.011 42.3676C73.0381 42.8948 73.2375 43.3482 73.6084 43.7275L78.4675 48.6956L76.6488 50.555L71.7897 45.5872C71.4184 45.2076 70.9707 45.0088 70.4458 44.9905C69.9209 44.9534 69.482 45.1154 69.1291 45.4759C68.7764 45.8368 68.6133 46.2902 68.6405 46.8358C68.6676 47.3634 68.8666 47.8165 69.2379 48.196L74.097 53.1638L72.2783 55.0232L64.4873 47.058L66.306 45.1986Z" fill="#826346"/>
<path d="M68.1521 59.2419L67.6226 58.7006C67.5955 59.6719 67.2834 60.4628 66.6863 61.0736C65.7542 62.0265 64.6005 62.5029 63.225 62.5029C61.8586 62.4936 60.7049 62.0078 59.764 61.0458L55.2847 56.4663L57.1037 54.6069L61.5827 59.1861C62.0442 59.6582 62.6142 59.9171 63.293 59.9633C63.9714 59.991 64.5326 59.7782 64.9761 59.3251C65.4195 58.8717 65.6228 58.3027 65.5869 57.618C65.5506 56.9151 65.3019 56.3277 64.8404 55.8559L60.3611 51.2767L62.1798 49.417L69.9708 57.3822L68.1521 59.2419Z" fill="#826346"/>
<path d="M54.6582 67.4026L51.2786 63.9471L49.5004 65.765L47.8447 64.072L49.6226 62.2544L47.9124 60.5059L49.7311 58.6462L51.4413 60.3947L53.7219 58.0635L55.3778 59.7565L53.0973 62.0877L56.4772 65.5432C56.8119 65.8853 57.192 66.0611 57.6172 66.0704C58.0515 66.0704 58.4633 65.8713 58.8525 65.4737C59.0061 65.3163 59.1646 65.1268 59.3274 64.9047L60.9971 66.6114C60.7164 67.0093 60.4359 67.3518 60.1555 67.6384C59.3228 68.4895 58.4045 68.8734 57.4002 68.7902C56.3955 68.707 55.4818 68.2442 54.6582 67.4026Z" fill="#826346"/>
<path d="M54.2143 73.4906L52.3955 75.35L44.6046 67.3849L46.4233 65.5255L54.2143 73.4906ZM43.9258 66.8576L42.2021 65.0955L44.1836 63.0693L45.9076 64.8318L43.9258 66.8576Z" fill="#826346"/>
<path d="M47.7571 74.2084C48.5444 75.0133 48.9379 75.9986 48.9379 77.164C48.9379 78.3114 48.5487 79.2827 47.7705 80.0783L43.2644 84.6852L33.7632 74.9715L38.0794 70.5588C38.8305 69.7909 39.7442 69.4117 40.8211 69.4211C41.9071 69.4211 42.8255 69.805 43.5765 70.5728C44.2282 71.2387 44.5991 72.053 44.6896 73.0149C45.8929 72.9504 46.9156 73.348 47.7571 74.2084ZM45.8838 76.1232C45.5854 75.8182 45.2053 75.6792 44.7439 75.7069C44.2732 75.7256 43.884 75.892 43.5765 76.2068L41.1469 78.6906L43.3729 80.9664L45.8024 78.4825C46.1283 78.1494 46.3047 77.7561 46.3319 77.303C46.3498 76.8403 46.2005 76.447 45.8838 76.1232ZM41.7035 72.4876C41.4319 72.2103 41.0927 72.0854 40.6855 72.1131C40.2783 72.1221 39.9344 72.2701 39.6537 72.5571L37.4006 74.8606L39.3825 76.8867L41.6355 74.5829C41.9159 74.2963 42.0607 73.9448 42.0699 73.5284C42.0878 73.1028 41.9659 72.756 41.7035 72.4876Z" fill="#826346"/>
<path d="M67.7206 98.5898H66.2695V117.281H67.7206V98.5898Z" fill="#8C6A4E"/>
<path d="M114.733 98.5898H113.282V117.281H114.733V98.5898Z" fill="#8C6A4E"/>
<path d="M114.443 99.7766V98.5898H66.2694V99.7766H114.443Z" fill="#8C6A4E"/>
<path d="M114.733 117.282V116.095H66.2693V117.282H114.733Z" fill="#8C6A4E"/>
<path d="M101.606 104.831V105.292C102.033 104.873 102.515 104.664 103.052 104.664C103.879 104.664 104.575 105.008 105.138 105.696C105.703 105.008 106.416 104.664 107.28 104.664C108.126 104.664 108.853 104.98 109.462 105.612C110.081 106.235 110.39 106.979 110.39 107.843V112.835H108.562V107.843C108.562 107.462 108.435 107.132 108.18 106.853C107.935 106.565 107.635 106.421 107.28 106.421C106.925 106.421 106.621 106.565 106.366 106.853C106.121 107.132 105.998 107.462 105.998 107.843V112.835H104.17V107.843C104.17 107.462 104.043 107.132 103.788 106.853C103.543 106.565 103.243 106.421 102.888 106.421C102.533 106.421 102.229 106.565 101.974 106.853C101.729 107.132 101.606 107.462 101.606 107.843V112.835H99.7783V104.831H101.606Z" fill="black"/>
<path d="M95.6322 112.835V112.291C95.1413 112.765 94.5955 113.003 93.9955 113.003C93.0588 113.003 92.2451 112.649 91.5542 111.943C90.8721 111.236 90.5312 110.4 90.5312 109.433V104.831H92.3588V109.433C92.3588 109.907 92.518 110.33 92.8363 110.702C93.1634 111.064 93.55 111.246 93.9955 111.246C94.4409 111.246 94.823 111.064 95.1413 110.702C95.4688 110.33 95.6322 109.907 95.6322 109.433V104.831H97.4601V112.835H95.6322Z" fill="black"/>
<path d="M84.8409 110.005V106.533H83.0542V104.831H84.8409V103.074H86.6688V104.831H88.9601V106.533H86.6688V110.005C86.6688 110.349 86.7734 110.632 86.9822 110.855C87.2005 111.078 87.5051 111.19 87.8963 111.19C88.0509 111.19 88.2234 111.176 88.4146 111.148V112.863C88.078 112.919 87.7688 112.947 87.4871 112.947C86.6505 112.947 86.0004 112.668 85.5367 112.111C85.0729 111.553 84.8409 110.851 84.8409 110.005Z" fill="black"/>
<path d="M81.6259 112.836H79.7983V104.832H81.6259V112.836ZM79.7163 104.218V102.447H81.7076V104.218H79.7163Z" fill="black"/>
<path d="M78.0289 109.879C78.0289 110.688 77.7426 111.385 77.1697 111.971C76.6059 112.547 75.933 112.836 75.1509 112.836H70.6226V103.074H74.9601C75.7147 103.074 76.3601 103.353 76.8968 103.911C77.4422 104.469 77.7151 105.133 77.7151 105.905C77.7151 106.574 77.5014 107.174 77.0742 107.704C77.7105 108.29 78.0289 109.015 78.0289 109.879ZM76.1467 109.879C76.1467 109.573 76.0238 109.308 75.7784 109.084C75.533 108.852 75.2555 108.736 74.9463 108.736H72.5047V111.023H74.9463C75.2738 111.023 75.5555 110.916 75.7921 110.702C76.0284 110.479 76.1467 110.205 76.1467 109.879ZM75.833 105.905C75.833 105.626 75.7238 105.389 75.5055 105.194C75.2963 104.989 75.0509 104.887 74.7689 104.887H72.5047V106.923H74.7689C75.0509 106.923 75.2963 106.821 75.5055 106.616C75.7238 106.412 75.833 106.175 75.833 105.905Z" fill="black"/>
</g>
<defs>
<clipPath id="clip0_385_252">
<rect width="117" height="119" fill="white"/>
</clipPath>
</defs>
</svg>
