<svg width="1280" height="800" viewBox="0 0 1280 800" fill="none" xmlns="http://www.w3.org/2000/svg">
<rect x="7.14062" y="324.182" width="73.8205" height="73.8205" transform="rotate(5.09306 7.14062 324.182)" fill="#DBBA95"/>
<rect x="43.3867" y="388.498" width="0.915513" height="11.5355" transform="rotate(5.09306 43.3867 388.498)" fill="#8C6A4E"/>
<rect x="72.9321" y="391.13" width="0.915513" height="11.5355" transform="rotate(5.09306 72.9321 391.13)" fill="#8C6A4E"/>
<rect x="73.6616" y="391.195" width="0.73241" height="30.395" transform="rotate(95.0931 73.6616 391.195)" fill="#8C6A4E"/>
<rect x="72.8853" y="401.973" width="0.73241" height="30.5781" transform="rotate(95.0931 72.8853 401.973)" fill="#8C6A4E"/>
<rect x="44" y="633" width="149" height="149" fill="#DBBA95"/>
<rect x="128.393" y="755.807" width="1.84788" height="23.2833" fill="#8C6A4E"/>
<rect x="188.265" y="755.806" width="1.84788" height="23.2833" fill="#8C6A4E"/>
<rect x="189.743" y="755.806" width="1.4783" height="61.3496" transform="rotate(90 189.743 755.806)" fill="#8C6A4E"/>
<rect x="190.112" y="777.612" width="1.4783" height="61.7192" transform="rotate(90 190.112 777.612)" fill="#8C6A4E"/>
</svg>
