<svg width="1280" height="778" viewBox="0 0 1280 778" fill="none" xmlns="http://www.w3.org/2000/svg">
<rect x="6.55334" y="315.182" width="73.8205" height="73.8205" transform="rotate(5.09306 6.55334 315.182)" fill="#DBBA95"/>
<rect x="42.7994" y="379.498" width="0.915513" height="11.5355" transform="rotate(5.09306 42.7994 379.498)" fill="#8C6A4E"/>
<rect x="72.3448" y="382.13" width="0.915513" height="11.5355" transform="rotate(5.09306 72.3448 382.13)" fill="#8C6A4E"/>
<rect x="73.0743" y="382.195" width="0.73241" height="30.395" transform="rotate(95.0931 73.0743 382.195)" fill="#8C6A4E"/>
<rect x="72.298" y="392.973" width="0.73241" height="30.5781" transform="rotate(95.0931 72.298 392.973)" fill="#8C6A4E"/>
<path d="M64.665 385.313L64.6398 385.596C64.9313 385.363 65.2456 385.261 65.5828 385.291C66.1028 385.337 66.5211 385.588 66.8377 386.042C67.2297 385.651 67.6971 385.479 68.24 385.528C68.7715 385.575 69.2113 385.81 69.5596 386.233C69.914 386.65 70.0676 387.125 70.0202 387.656L69.7467 390.725L68.5981 390.623L68.8716 387.554C68.8925 387.32 68.8306 387.11 68.6858 386.924C68.5473 386.733 68.3666 386.628 68.1438 386.608C67.9209 386.588 67.7216 386.66 67.5458 386.822C67.3762 386.98 67.281 387.176 67.2601 387.41L66.9866 390.479L65.838 390.377L66.1115 387.308C66.1323 387.074 66.0704 386.864 65.9257 386.678C65.7872 386.487 65.6065 386.382 65.3836 386.362C65.1608 386.342 64.9614 386.414 64.7856 386.576C64.6161 386.734 64.5208 386.93 64.5 387.164L64.2265 390.233L63.0778 390.131L63.5163 385.211L64.665 385.313Z" fill="#826346"/>
<path d="M60.4721 389.898L60.5019 389.564C60.1673 389.828 59.8114 389.943 59.4343 389.91C58.8457 389.857 58.3536 389.594 57.958 389.121C57.5681 388.649 57.3996 388.115 57.4526 387.521L57.7047 384.692L58.8533 384.795L58.6012 387.623C58.5753 387.915 58.6521 388.184 58.8317 388.43C59.0176 388.671 59.2505 388.805 59.5305 388.829C59.8105 388.854 60.0605 388.764 60.2804 388.559C60.5065 388.349 60.6325 388.098 60.6585 387.807L60.9106 384.978L62.0592 385.08L61.6207 390.001L60.4721 389.898Z" fill="#826346"/>
<path d="M53.8454 387.554L54.0356 385.42L52.9127 385.319L53.0059 384.274L54.1288 384.374L54.2251 383.294L55.3737 383.396L55.2775 384.476L56.7175 384.604L56.6243 385.65L55.1842 385.522L54.994 387.656C54.9752 387.868 55.0254 388.048 55.1446 388.197C55.2695 388.346 55.4548 388.432 55.7005 388.454C55.7977 388.462 55.907 388.463 56.0286 388.457L55.9346 389.511C55.7201 389.527 55.5243 389.527 55.3471 389.511C54.8214 389.464 54.4281 389.256 54.1672 388.887C53.9063 388.518 53.799 388.074 53.8454 387.554Z" fill="#826346"/>
<path d="M51.6701 389.114L50.5215 389.012L50.96 384.091L52.1086 384.194L51.6701 389.114ZM50.9422 383.71L51.0392 382.621L52.2907 382.733L52.1936 383.821L50.9422 383.71Z" fill="#826346"/>
<path d="M49.5714 387.095C49.5271 387.592 49.3088 388.005 48.9167 388.333C48.5309 388.656 48.0922 388.795 47.6007 388.751L44.7549 388.498L45.2897 382.497L48.0155 382.74C48.4898 382.783 48.8803 382.99 49.1869 383.363C49.4992 383.736 49.6342 384.16 49.5919 384.635C49.5553 385.046 49.3881 385.403 49.0905 385.705C49.4584 386.1 49.6187 386.564 49.5714 387.095ZM48.3885 386.99C48.4053 386.801 48.3426 386.631 48.2006 386.481C48.059 386.324 47.8911 386.237 47.6968 386.22L46.1624 386.083L46.0371 387.489L47.5715 387.625C47.7772 387.644 47.9602 387.594 48.1205 387.476C48.2813 387.352 48.3706 387.19 48.3885 386.99ZM48.409 384.529C48.4243 384.358 48.3687 384.206 48.2423 384.074C48.122 383.936 47.9733 383.86 47.7962 383.844L46.3733 383.717L46.2617 384.969L47.6847 385.095C47.8618 385.111 48.0217 385.062 48.1643 384.948C48.3127 384.835 48.3943 384.695 48.409 384.529Z" fill="#826346"/>
<rect x="43.4127" y="624" width="149" height="149" fill="#DBBA95"/>
<rect x="127.806" y="746.807" width="1.84788" height="23.2833" fill="#8C6A4E"/>
<rect x="187.677" y="746.806" width="1.84788" height="23.2833" fill="#8C6A4E"/>
<rect x="189.155" y="746.806" width="1.4783" height="61.3496" transform="rotate(90 189.155 746.806)" fill="#8C6A4E"/>
<rect x="189.525" y="768.612" width="1.4783" height="61.7192" transform="rotate(90 189.525 768.612)" fill="#8C6A4E"/>
<path d="M172.808 754.581V755.155C173.352 754.634 173.966 754.373 174.649 754.373C175.703 754.373 176.589 754.802 177.307 755.658C178.025 754.802 178.934 754.373 180.034 754.373C181.111 754.373 182.037 754.767 182.813 755.554C183.601 756.33 183.995 757.256 183.995 758.333V764.552H181.667V758.333C181.667 757.859 181.505 757.448 181.181 757.1C180.868 756.741 180.486 756.562 180.034 756.562C179.583 756.562 179.195 756.741 178.87 757.1C178.558 757.448 178.401 757.859 178.401 758.333V764.552H176.074V758.333C176.074 757.859 175.912 757.448 175.587 757.1C175.275 756.741 174.893 756.562 174.441 756.562C173.989 756.562 173.601 756.741 173.277 757.1C172.965 757.448 172.808 757.859 172.808 758.333V764.552H170.481V754.581H172.808Z" fill="#826346"/>
<path d="M165.201 764.551V763.874C164.575 764.465 163.881 764.76 163.116 764.76C161.923 764.76 160.887 764.32 160.007 763.44C159.138 762.56 158.704 761.517 158.704 760.313V754.581H161.032V760.313C161.032 760.904 161.234 761.431 161.64 761.894C162.057 762.345 162.549 762.571 163.116 762.571C163.684 762.571 164.17 762.345 164.575 761.894C164.992 761.431 165.201 760.904 165.201 760.313V754.581H167.528V764.551H165.201Z" fill="#826346"/>
<path d="M151.458 761.026V756.7H149.183V754.581H151.458V752.393H153.786V754.581H156.704V756.7H153.786V761.026C153.786 761.454 153.919 761.807 154.185 762.085C154.463 762.363 154.851 762.502 155.349 762.502C155.546 762.502 155.766 762.485 156.009 762.45V764.586C155.581 764.656 155.187 764.691 154.828 764.691C153.763 764.691 152.935 764.343 152.344 763.648C151.754 762.954 151.458 762.079 151.458 761.026Z" fill="#826346"/>
<path d="M147.364 764.552H145.036V754.581H147.364V764.552ZM144.932 753.817V751.611H147.468V753.817H144.932Z" fill="#826346"/>
<path d="M142.783 760.869C142.783 761.877 142.418 762.745 141.688 763.475C140.97 764.193 140.113 764.552 139.118 764.552H133.351V752.393H138.874C139.836 752.393 140.658 752.74 141.341 753.435C142.036 754.13 142.383 754.958 142.383 755.919C142.383 756.752 142.111 757.499 141.567 758.159C142.377 758.889 142.783 759.792 142.783 760.869ZM140.386 760.869C140.386 760.487 140.229 760.157 139.917 759.879C139.604 759.59 139.251 759.445 138.857 759.445H135.748V762.294H138.857C139.274 762.294 139.633 762.16 139.934 761.894C140.235 761.616 140.386 761.274 140.386 760.869ZM139.986 755.919C139.986 755.571 139.847 755.276 139.569 755.033C139.303 754.778 138.99 754.651 138.631 754.651H135.748V757.187H138.631C138.99 757.187 139.303 757.059 139.569 756.805C139.847 756.55 139.986 756.255 139.986 755.919Z" fill="#826346"/>
</svg>
