<svg width="1279" height="778" viewBox="0 0 1279 778" fill="none" xmlns="http://www.w3.org/2000/svg">
<path d="M45.3347 346.68L45.5911 346.987C45.6491 346.465 45.8608 346.051 46.2263 345.745C46.7899 345.274 47.4553 345.107 48.2227 345.244C48.2233 344.464 48.5179 343.829 49.1063 343.336C49.6823 342.855 50.3539 342.651 51.1211 342.725C51.8893 342.788 52.5143 343.107 52.996 343.683L55.7776 347.009L54.5327 348.05L51.7511 344.724C51.5387 344.47 51.2681 344.323 50.9393 344.282C50.6115 344.23 50.3268 344.305 50.0853 344.507C49.8437 344.709 49.7165 344.979 49.7037 345.316C49.6918 345.641 49.7921 345.931 50.0045 346.185L52.7861 349.511L51.5412 350.552L48.7596 347.226C48.5472 346.972 48.2766 346.825 47.9478 346.784C47.62 346.732 47.3353 346.807 47.0938 347.009C46.8522 347.211 46.725 347.48 46.7122 347.818C46.7004 348.143 46.8006 348.433 47.013 348.687L49.7946 352.013L48.5497 353.054L44.0898 347.721L45.3347 346.68Z" fill="#826346"/>
<path d="M45.7255 355.416L45.4225 355.053C45.3522 355.649 45.1127 356.117 44.7039 356.459C44.0659 356.993 43.3148 357.221 42.4504 357.144C41.5922 357.062 40.8938 356.699 40.3551 356.055L37.791 352.989L39.0359 351.948L41.6 355.013C41.8641 355.329 42.2082 355.52 42.6322 355.587C43.0572 355.642 43.4214 355.543 43.7249 355.289C44.0284 355.035 44.1875 354.697 44.2022 354.274C44.218 353.84 44.0938 353.465 43.8296 353.149L41.2656 350.083L42.5105 349.042L46.9704 354.374L45.7255 355.416Z" fill="#826346"/>
<path d="M36.7984 359.677L34.8637 357.364L33.6466 358.381L32.6987 357.248L33.9158 356.23L32.9368 355.06L34.1817 354.018L35.1607 355.189L36.7214 353.884L37.6694 355.017L36.1086 356.322L38.0433 358.636C38.2349 358.865 38.4641 358.994 38.7309 359.024C39.0039 359.048 39.2735 358.949 39.5398 358.726C39.6451 358.638 39.755 358.53 39.8696 358.403L40.8253 359.546C40.6272 359.774 40.4321 359.969 40.2401 360.13C39.6703 360.606 39.0721 360.791 38.4454 360.683C37.8188 360.576 37.2697 360.24 36.7984 359.677Z" fill="#826346"/>
<path d="M36.1859 363.394L34.9409 364.435L30.4811 359.103L31.726 358.062L36.1859 363.394ZM30.0834 358.741L29.0967 357.561L30.4531 356.426L31.4398 357.606L30.0834 358.741Z" fill="#826346"/>
<path d="M32.0883 363.474C32.5389 364.013 32.7323 364.641 32.6685 365.357C32.6056 366.062 32.3079 366.638 31.7752 367.083L28.6908 369.663L23.252 363.159L26.2063 360.689C26.7203 360.259 27.3155 360.077 27.9917 360.143C28.6741 360.204 29.2303 360.491 29.6602 361.005C30.0332 361.451 30.2217 361.972 30.2259 362.569C30.9857 362.596 31.6066 362.898 32.0883 363.474ZM30.8062 364.546C30.6353 364.342 30.404 364.235 30.1125 364.227C29.8158 364.212 29.5621 364.292 29.3515 364.468L27.6886 365.859L28.9628 367.383L30.6258 365.992C30.8488 365.805 30.9812 365.574 31.0231 365.296C31.0598 365.013 30.9875 364.763 30.8062 364.546ZM28.3781 362.077C28.2227 361.891 28.0163 361.796 27.7589 361.79C27.5025 361.773 27.2783 361.845 27.0863 362.005L25.5441 363.295L26.6785 364.651L28.2207 363.362C28.4127 363.201 28.5229 362.993 28.5514 362.738C28.5861 362.477 28.5284 362.257 28.3781 362.077Z" fill="#826346"/>
<path d="M127.44 680.302L128.011 680.872C128.034 679.812 128.385 678.942 129.065 678.262C130.114 677.213 131.422 676.758 132.989 676.896C132.851 675.329 133.329 673.998 134.424 672.903C135.495 671.832 136.809 671.302 138.365 671.313C139.92 671.302 141.234 671.832 142.306 672.903L148.494 679.092L146.178 681.408L139.989 675.22C139.517 674.747 138.947 674.499 138.278 674.476C137.61 674.43 137.051 674.632 136.601 675.081C136.152 675.531 135.945 676.095 135.979 676.775C136.014 677.432 136.267 677.997 136.74 678.469L142.928 684.658L140.612 686.974L134.423 680.786C133.951 680.313 133.381 680.065 132.712 680.042C132.044 679.996 131.485 680.198 131.036 680.647C130.586 681.097 130.379 681.661 130.413 682.341C130.448 682.998 130.701 683.563 131.174 684.035L137.362 690.223L135.046 692.54L125.124 682.618L127.44 680.302Z" fill="#826346"/>
<path d="M129.791 697.793L129.117 697.119C129.083 698.329 128.685 699.314 127.925 700.075C126.738 701.262 125.268 701.855 123.517 701.855C121.777 701.844 120.307 701.239 119.109 700.04L113.405 694.336L115.721 692.02L121.425 697.724C122.013 698.312 122.739 698.634 123.603 698.692C124.467 698.727 125.182 698.462 125.747 697.897C126.311 697.332 126.571 696.624 126.524 695.771C126.478 694.895 126.161 694.163 125.574 693.576L119.87 687.871L122.186 685.555L132.108 695.477L129.791 697.793Z" fill="#826346"/>
<path d="M112.607 707.96L108.303 703.656L106.039 705.92L103.93 703.812L106.194 701.547L104.016 699.369L106.333 697.053L108.511 699.231L111.415 696.327L113.523 698.436L110.619 701.34L114.923 705.644C115.35 706.07 115.834 706.289 116.375 706.301C116.929 706.301 117.453 706.053 117.948 705.557C118.144 705.361 118.346 705.125 118.553 704.849L120.68 706.975C120.322 707.47 119.965 707.897 119.608 708.254C118.548 709.314 117.378 709.792 116.099 709.689C114.82 709.585 113.656 709.009 112.607 707.96Z" fill="#826346"/>
<path d="M112.042 715.544L109.726 717.86L99.8037 707.938L102.12 705.622L112.042 715.544ZM98.9394 707.281L96.7441 705.086L99.2678 702.562L101.463 704.758L98.9394 707.281Z" fill="#826346"/>
<path d="M103.818 716.438C104.821 717.44 105.322 718.668 105.322 720.12C105.322 721.548 104.827 722.758 103.836 723.749L98.0969 729.488L85.9971 717.388L91.4938 711.892C92.4503 710.935 93.6142 710.463 94.9855 710.474C96.3683 710.474 97.538 710.952 98.4944 711.909C99.3241 712.739 99.7966 713.753 99.9119 714.951C101.444 714.871 102.747 715.366 103.818 716.438ZM101.433 718.823C101.053 718.443 100.569 718.27 99.981 718.305C99.3818 718.328 98.8863 718.535 98.4944 718.927L95.4004 722.021L98.2352 724.856L101.329 721.762C101.744 721.347 101.969 720.857 102.003 720.292C102.026 719.716 101.836 719.226 101.433 718.823ZM96.1091 714.294C95.7633 713.949 95.3312 713.793 94.8126 713.828C94.2941 713.839 93.8562 714.024 93.499 714.381L90.6296 717.25L93.1532 719.774L96.0226 716.904C96.3799 716.547 96.5642 716.109 96.5758 715.591C96.5988 715.061 96.4432 714.629 96.1091 714.294Z" fill="#826346"/>
</svg>
