<svg width="1280" height="800" viewBox="0 0 1280 800" fill="none" xmlns="http://www.w3.org/2000/svg">
<path d="M202.813 104.5L217.813 119.5L238.813 127V121.5L234.313 90L232.313 119.5L224.313 90L227.313 119.5L212.313 93L222.313 119.5L202.813 104.5Z" fill="#387E06"/>
<path d="M274.813 104.5L259.813 119.5L238.813 127V121.5L243.313 90L245.313 119.5L253.313 90L250.313 119.5L265.313 93L255.313 119.5L274.813 104.5Z" fill="#387E06"/>
<path d="M207.813 120H268.813L259.313 171H216.313L207.813 120Z" fill="#CDA170"/>
<ellipse cx="926.545" cy="112.623" rx="11.5" ry="15.5" transform="rotate(-29.4097 926.545 112.623)" fill="#FFF831"/>
<path d="M902.813 70.2092L936.326 78.7499L948.899 101.054L927.121 113.33L902.813 70.2092Z" fill="white"/>
<path d="M951.666 156.2L961.449 123.105L948.876 100.801L927.098 113.077L951.666 156.2Z" fill="white"/>
<ellipse cx="1035.36" cy="52.3261" rx="5.75" ry="15.5" transform="rotate(-29.4097 1035.36 52.3261)" fill="#A7A2A2"/>
</svg>
