<svg width="121" height="161" viewBox="0 0 121 161" fill="none" xmlns="http://www.w3.org/2000/svg">
<g clip-path="url(#clip0_355_50)">
<circle cx="60.5" cy="60.5" r="60.5" fill="#FFF831" fill-opacity="0.34"/>
<rect x="47.4574" y="94.6603" width="26.9629" height="55.3397" fill="white"/>
<path d="M73.8465 99.2244C73.8465 101.058 74.9939 101.765 74.9939 103.503C74.9939 105.241 73.8465 99.2244 73.8465 107.782" stroke="white"/>
<path d="M85 151C85 152.834 86.1473 153.541 86.1473 155.279C86.1473 157.017 85 151 85 159.558" stroke="white"/>
<path d="M48.0311 116.34C48.0311 118.051 46.8838 118.711 46.8838 120.333C46.8838 121.955 48.0311 116.34 48.0311 124.327" stroke="white"/>
<rect x="59.5046" y="90.6666" width="2.86892" height="3.99432" fill="white"/>
<rect x="59.5046" y="87.2437" width="2.86892" height="3.4237" fill="#242424"/>
<path d="M65.5282 82.1905C65.5282 86.8717 63.4735 90.6667 60.9388 90.6667C58.4041 90.6667 56.3494 86.8717 56.3494 82.1905C56.3494 77.5092 58.4041 61 60.9388 61C63.4735 61 65.5282 77.5092 65.5282 82.1905Z" fill="url(#paint0_linear_355_50)" fill-opacity="0.76"/>
<path d="M37 149H84.5V150H37V149Z" fill="white"/>
<path d="M85.5 150C85.5 150.605 85.7236 159.553 85.5 160C84.9999 161 84.4997 160 84.4997 160L84.4997 154.5L84.5 149C85 149 85.5 149.395 85.5 150Z" fill="white"/>
<path d="M85.5 150C85.5 150.552 85.0523 151 84.5 151C84.5 150 84.5 150 83.5 150C83.5 149.448 83.9477 149 84.5 149C85.0523 149 85.5 149.448 85.5 150Z" fill="white"/>
</g>
<defs>
<linearGradient id="paint0_linear_355_50" x1="60.652" y1="61" x2="60.652" y2="90.6667" gradientUnits="userSpaceOnUse">
<stop stop-color="#D5B91B"/>
<stop offset="1" stop-color="#FF0000"/>
</linearGradient>
<clipPath id="clip0_355_50">
<rect width="121" height="161" fill="white"/>
</clipPath>
</defs>
</svg>
