<svg width="1280" height="804" viewBox="0 0 1280 804" fill="none" xmlns="http://www.w3.org/2000/svg">
<rect y="21" width="1280" height="22" rx="8" fill="white"/>
<path d="M384.364 257.956C389.948 212.57 390.431 162.791 399.72 125.701C406.592 98.2652 427.059 59.5689 434.62 42.7366C436.69 38.1294 435.818 32 435.818 32H0V786H250.91C260.586 786 264.774 757.206 275.477 724.021C286.546 689.698 294.09 681.074 306.654 640.568C318.82 601.346 326.198 584.445 338.296 535.155C353.04 475.089 350.393 491.833 361.098 431.205C373.589 360.46 375.482 330.147 384.364 257.956Z" fill="#001A3D" fill-opacity="0.8"/>
<rect x="433" y="21" width="3" height="11" fill="#9E7D5A"/>
<rect x="390" y="21" width="3" height="11" fill="#9E7D5A"/>
<rect x="433" y="21" width="3" height="11" fill="#9E7D5A"/>
<rect x="859" y="21" width="3" height="11" fill="#9E7D5A"/>
<rect x="886" y="21" width="3" height="11" fill="#9E7D5A"/>
<rect x="353" y="21" width="3" height="11" fill="#9E7D5A"/>
<rect x="316" y="21" width="3" height="11" fill="#9E7D5A"/>
<rect x="284" y="21" width="3" height="11" fill="#9E7D5A"/>
<rect x="241" y="21" width="3" height="11" fill="#9E7D5A"/>
<rect x="284" y="21" width="3" height="11" fill="#9E7D5A"/>
<rect x="204" y="21" width="3" height="11" fill="#9E7D5A"/>
<rect x="172" y="21" width="3" height="11" fill="#9E7D5A"/>
<rect x="140" y="21" width="3" height="11" fill="#9E7D5A"/>
<rect x="97" y="21" width="3" height="11" fill="#9E7D5A"/>
<rect x="140" y="21" width="3" height="11" fill="#9E7D5A"/>
<rect x="60" y="21" width="3" height="11" fill="#9E7D5A"/>
<rect x="44" y="21" width="3" height="11" fill="#9E7D5A"/>
<rect x="7" y="21" width="3" height="11" fill="#9E7D5A"/>
<path d="M154.47 137.02H152.52V135.954H154.483L153.508 134.277L154.431 133.744L155.406 135.434L156.381 133.744L157.304 134.277L156.329 135.954H158.292V137.02H156.342L157.317 138.697L156.394 139.23L155.406 137.54L154.418 139.23L153.495 138.697L154.47 137.02Z" fill="white"/>
<path d="M245.47 67.02H243.52V65.954H245.483L244.508 64.277L245.431 63.744L246.406 65.434L247.381 63.744L248.304 64.277L247.329 65.954H249.292V67.02H247.342L248.317 68.697L247.394 69.23L246.406 67.54L245.418 69.23L244.495 68.697L245.47 67.02Z" fill="white"/>
<path d="M92.47 350.02H90.52V348.954H92.483L91.508 347.277L92.431 346.744L93.406 348.434L94.381 346.744L95.304 347.277L94.329 348.954H96.292V350.02H94.342L95.317 351.697L94.394 352.23L93.406 350.54L92.418 352.23L91.495 351.697L92.47 350.02Z" fill="white"/>
<path d="M358.47 92.02H356.52V90.954H358.483L357.508 89.277L358.431 88.744L359.406 90.434L360.381 88.744L361.304 89.277L360.329 90.954H362.292V92.02H360.342L361.317 93.697L360.394 94.23L359.406 92.54L358.418 94.23L357.495 93.697L358.47 92.02Z" fill="white"/>
<path d="M279.47 438.02H277.52V436.954H279.483L278.508 435.277L279.431 434.744L280.406 436.434L281.381 434.744L282.304 435.277L281.329 436.954H283.292V438.02H281.342L282.317 439.697L281.394 440.23L280.406 438.54L279.418 440.23L278.495 439.697L279.47 438.02Z" fill="white"/>
<path d="M303.47 254.02H301.52V252.954H303.483L302.508 251.277L303.431 250.744L304.406 252.434L305.381 250.744L306.304 251.277L305.329 252.954H307.292V254.02H305.342L306.317 255.697L305.394 256.23L304.406 254.54L303.418 256.23L302.495 255.697L303.47 254.02Z" fill="white"/>
<path d="M114.47 616.02H112.52V614.954H114.483L113.508 613.277L114.431 612.744L115.406 614.434L116.381 612.744L117.304 613.277L116.329 614.954H118.292V616.02H116.342L117.317 617.697L116.394 618.23L115.406 616.54L114.418 618.23L113.495 617.697L114.47 616.02Z" fill="white"/>
<path d="M73.47 92.02H71.52V90.954H73.483L72.508 89.277L73.431 88.744L74.406 90.434L75.381 88.744L76.304 89.277L75.329 90.954H77.292V92.02H75.342L76.317 93.697L75.394 94.23L74.406 92.54L73.418 94.23L72.495 93.697L73.47 92.02Z" fill="white"/>
<path d="M197.47 291.02H195.52V289.954H197.483L196.508 288.277L197.431 287.744L198.406 289.434L199.381 287.744L200.304 288.277L199.329 289.954H201.292V291.02H199.342L200.317 292.697L199.394 293.23L198.406 291.54L197.418 293.23L196.495 292.697L197.47 291.02Z" fill="white"/>
<path d="M73.47 228.02H71.52V226.954H73.483L72.508 225.277L73.431 224.744L74.406 226.434L75.381 224.744L76.304 225.277L75.329 226.954H77.292V228.02H75.342L76.317 229.697L75.394 230.23L74.406 228.54L73.418 230.23L72.495 229.697L73.47 228.02Z" fill="white"/>
<path d="M272.47 165.02H270.52V163.954H272.483L271.508 162.277L272.431 161.744L273.406 163.434L274.381 161.744L275.304 162.277L274.329 163.954H276.292V165.02H274.342L275.317 166.697L274.394 167.23L273.406 165.54L272.418 167.23L271.495 166.697L272.47 165.02Z" fill="white"/>
<path d="M165.47 455.02H163.52V453.954H165.483L164.508 452.277L165.431 451.744L166.406 453.434L167.381 451.744L168.304 452.277L167.329 453.954H169.292V455.02H167.342L168.317 456.697L167.394 457.23L166.406 455.54L165.418 457.23L164.495 456.697L165.47 455.02Z" fill="white"/>
<path d="M340.47 343.02H338.52V341.954H340.483L339.508 340.277L340.431 339.744L341.406 341.434L342.381 339.744L343.304 340.277L342.329 341.954H344.292V343.02H342.342L343.317 344.697L342.394 345.23L341.406 343.54L340.418 345.23L339.495 344.697L340.47 343.02Z" fill="white"/>
<path d="M58.47 484.02H56.52V482.954H58.483L57.508 481.277L58.431 480.744L59.406 482.434L60.381 480.744L61.304 481.277L60.329 482.954H62.292V484.02H60.342L61.317 485.697L60.394 486.23L59.406 484.54L58.418 486.23L57.495 485.697L58.47 484.02Z" fill="white"/>
<path d="M243.47 567.02H241.52V565.954H243.483L242.508 564.277L243.431 563.744L244.406 565.434L245.381 563.744L246.304 564.277L245.329 565.954H247.292V567.02H245.342L246.317 568.697L245.394 569.23L244.406 567.54L243.418 569.23L242.495 568.697L243.47 567.02Z" fill="white"/>
<path d="M54.47 734.02H52.52V732.954H54.483L53.508 731.277L54.431 730.744L55.406 732.434L56.381 730.744L57.304 731.277L56.329 732.954H58.292V734.02H56.342L57.317 735.697L56.394 736.23L55.406 734.54L54.418 736.23L53.495 735.697L54.47 734.02Z" fill="white"/>
<path d="M208.47 665.02H206.52V663.954H208.483L207.508 662.277L208.431 661.744L209.406 663.434L210.381 661.744L211.304 662.277L210.329 663.954H212.292V665.02H210.342L211.317 666.697L210.394 667.23L209.406 665.54L208.418 667.23L207.495 666.697L208.47 665.02Z" fill="white"/>
<path d="M908.859 257.956C903.467 212.57 903.002 162.791 894.032 125.701C887.397 98.2652 867.634 59.5689 860.332 42.7366C858.334 38.1294 859.176 32 859.176 32H1280V786H1037.72C1028.38 786 1024.34 757.206 1014 724.021C1003.31 689.698 996.028 681.074 983.896 640.568C972.149 601.346 965.025 584.445 953.342 535.155C939.106 475.089 941.662 491.833 931.326 431.205C919.264 360.46 917.436 330.147 908.859 257.956Z" fill="#001A3D" fill-opacity="0.8"/>
<rect width="3" height="11" transform="matrix(-1 0 0 1 917 21)" fill="#9E7D5A"/>
<rect width="3" height="11" transform="matrix(-1 0 0 1 954 21)" fill="#9E7D5A"/>
<rect width="3" height="11" transform="matrix(-1 0 0 1 986 21)" fill="#9E7D5A"/>
<rect width="3" height="11" transform="matrix(-1 0 0 1 1029 21)" fill="#9E7D5A"/>
<rect width="3" height="11" transform="matrix(-1 0 0 1 986 21)" fill="#9E7D5A"/>
<rect width="3" height="11" transform="matrix(-1 0 0 1 1066 21)" fill="#9E7D5A"/>
<rect width="3" height="11" transform="matrix(-1 0 0 1 1098 21)" fill="#9E7D5A"/>
<rect width="3" height="11" transform="matrix(-1 0 0 1 1130 21)" fill="#9E7D5A"/>
<rect width="3" height="11" transform="matrix(-1 0 0 1 1173 21)" fill="#9E7D5A"/>
<rect width="3" height="11" transform="matrix(-1 0 0 1 1130 21)" fill="#9E7D5A"/>
<rect width="3" height="11" transform="matrix(-1 0 0 1 1210 21)" fill="#9E7D5A"/>
<rect width="3" height="11" transform="matrix(-1 0 0 1 1226 21)" fill="#9E7D5A"/>
<rect width="3" height="11" transform="matrix(-1 0 0 1 1263 21)" fill="#9E7D5A"/>
<path d="M1115.53 137.02H1117.48V135.954H1115.52L1116.49 134.277L1115.57 133.744L1114.59 135.434L1113.62 133.744L1112.7 134.277L1113.67 135.954H1111.71V137.02H1113.66L1112.68 138.697L1113.61 139.23L1114.59 137.54L1115.58 139.23L1116.5 138.697L1115.53 137.02Z" fill="white"/>
<path d="M1024.53 67.02H1026.48V65.954H1024.52L1025.49 64.277L1024.57 63.744L1023.59 65.434L1022.62 63.744L1021.7 64.277L1022.67 65.954H1020.71V67.02H1022.66L1021.68 68.697L1022.61 69.23L1023.59 67.54L1024.58 69.23L1025.5 68.697L1024.53 67.02Z" fill="white"/>
<path d="M1177.53 350.02H1179.48V348.954H1177.52L1178.49 347.277L1177.57 346.744L1176.59 348.434L1175.62 346.744L1174.7 347.277L1175.67 348.954H1173.71V350.02H1175.66L1174.68 351.697L1175.61 352.23L1176.59 350.54L1177.58 352.23L1178.5 351.697L1177.53 350.02Z" fill="white"/>
<path d="M911.53 92.02H913.48V90.954H911.517L912.492 89.277L911.569 88.744L910.594 90.434L909.619 88.744L908.696 89.277L909.671 90.954H907.708V92.02H909.658L908.683 93.697L909.606 94.23L910.594 92.54L911.582 94.23L912.505 93.697L911.53 92.02Z" fill="white"/>
<path d="M990.53 438.02H992.48V436.954H990.517L991.492 435.277L990.569 434.744L989.594 436.434L988.619 434.744L987.696 435.277L988.671 436.954H986.708V438.02H988.658L987.683 439.697L988.606 440.23L989.594 438.54L990.582 440.23L991.505 439.697L990.53 438.02Z" fill="white"/>
<path d="M966.53 254.02H968.48V252.954H966.517L967.492 251.277L966.569 250.744L965.594 252.434L964.619 250.744L963.696 251.277L964.671 252.954H962.708V254.02H964.658L963.683 255.697L964.606 256.23L965.594 254.54L966.582 256.23L967.505 255.697L966.53 254.02Z" fill="white"/>
<path d="M1155.53 616.02H1157.48V614.954H1155.52L1156.49 613.277L1155.57 612.744L1154.59 614.434L1153.62 612.744L1152.7 613.277L1153.67 614.954H1151.71V616.02H1153.66L1152.68 617.697L1153.61 618.23L1154.59 616.54L1155.58 618.23L1156.5 617.697L1155.53 616.02Z" fill="white"/>
<path d="M1196.53 92.02H1198.48V90.954H1196.52L1197.49 89.277L1196.57 88.744L1195.59 90.434L1194.62 88.744L1193.7 89.277L1194.67 90.954H1192.71V92.02H1194.66L1193.68 93.697L1194.61 94.23L1195.59 92.54L1196.58 94.23L1197.5 93.697L1196.53 92.02Z" fill="white"/>
<path d="M1072.53 291.02H1074.48V289.954H1072.52L1073.49 288.277L1072.57 287.744L1071.59 289.434L1070.62 287.744L1069.7 288.277L1070.67 289.954H1068.71V291.02H1070.66L1069.68 292.697L1070.61 293.23L1071.59 291.54L1072.58 293.23L1073.5 292.697L1072.53 291.02Z" fill="white"/>
<path d="M1196.53 228.02H1198.48V226.954H1196.52L1197.49 225.277L1196.57 224.744L1195.59 226.434L1194.62 224.744L1193.7 225.277L1194.67 226.954H1192.71V228.02H1194.66L1193.68 229.697L1194.61 230.23L1195.59 228.54L1196.58 230.23L1197.5 229.697L1196.53 228.02Z" fill="white"/>
<path d="M997.53 165.02H999.48V163.954H997.517L998.492 162.277L997.569 161.744L996.594 163.434L995.619 161.744L994.696 162.277L995.671 163.954H993.708V165.02H995.658L994.683 166.697L995.606 167.23L996.594 165.54L997.582 167.23L998.505 166.697L997.53 165.02Z" fill="white"/>
<path d="M1104.53 455.02H1106.48V453.954H1104.52L1105.49 452.277L1104.57 451.744L1103.59 453.434L1102.62 451.744L1101.7 452.277L1102.67 453.954H1100.71V455.02H1102.66L1101.68 456.697L1102.61 457.23L1103.59 455.54L1104.58 457.23L1105.5 456.697L1104.53 455.02Z" fill="white"/>
<path d="M935.53 344.02H937.48V342.954H935.517L936.492 341.277L935.569 340.744L934.594 342.434L933.619 340.744L932.696 341.277L933.671 342.954H931.708V344.02H933.658L932.683 345.697L933.606 346.23L934.594 344.54L935.582 346.23L936.505 345.697L935.53 344.02Z" fill="white"/>
<path d="M1211.53 484.02H1213.48V482.954H1211.52L1212.49 481.277L1211.57 480.744L1210.59 482.434L1209.62 480.744L1208.7 481.277L1209.67 482.954H1207.71V484.02H1209.66L1208.68 485.697L1209.61 486.23L1210.59 484.54L1211.58 486.23L1212.5 485.697L1211.53 484.02Z" fill="white"/>
<path d="M1026.53 567.02H1028.48V565.954H1026.52L1027.49 564.277L1026.57 563.744L1025.59 565.434L1024.62 563.744L1023.7 564.277L1024.67 565.954H1022.71V567.02H1024.66L1023.68 568.697L1024.61 569.23L1025.59 567.54L1026.58 569.23L1027.5 568.697L1026.53 567.02Z" fill="white"/>
<path d="M1215.53 734.02H1217.48V732.954H1215.52L1216.49 731.277L1215.57 730.744L1214.59 732.434L1213.62 730.744L1212.7 731.277L1213.67 732.954H1211.71V734.02H1213.66L1212.68 735.697L1213.61 736.23L1214.59 734.54L1215.58 736.23L1216.5 735.697L1215.53 734.02Z" fill="white"/>
<path d="M1061.53 665.02H1063.48V663.954H1061.52L1062.49 662.277L1061.57 661.744L1060.59 663.434L1059.62 661.744L1058.7 662.277L1059.67 663.954H1057.71V665.02H1059.66L1058.68 666.697L1059.61 667.23L1060.59 665.54L1061.58 667.23L1062.5 666.697L1061.53 665.02Z" fill="white"/>
</svg>
