<svg width="1281" height="800" viewBox="0 0 1281 800" fill="none" xmlns="http://www.w3.org/2000/svg">
<rect x="787.375" y="241.35" width="37" height="37" transform="rotate(-25.5 787.375 241.35)" fill="#DBBA95"/>
<rect x="786" y="240.79" width="2" height="39" transform="rotate(-25.5 786 240.79)" fill="#8C6A4E"/>
<rect x="819.396" y="224.861" width="2" height="39" transform="rotate(-25.5 819.396 224.861)" fill="#8C6A4E"/>
<rect x="821.201" y="224" width="2" height="39" transform="rotate(64.5 821.201 224)" fill="#8C6A4E"/>
<rect x="837.13" y="257.396" width="2" height="39" transform="rotate(64.5 837.13 257.396)" fill="#8C6A4E"/>
<path d="M806.09 239.625C806.15 238.858 807.018 238.444 807.653 238.88L826.923 252.124C827.558 252.56 827.482 253.519 826.787 253.85L805.682 263.917C804.988 264.248 804.195 263.703 804.255 262.936L806.09 239.625Z" fill="#DBBA95" stroke="#8C6A4E" stroke-width="2"/>
<rect x="650.187" y="564" width="37" height="37" fill="#DBBA95"/>
<rect x="649" y="563" width="2" height="39" fill="#8C6A4E"/>
<rect x="686" y="563" width="2" height="39" fill="#8C6A4E"/>
<rect x="688" y="563" width="2" height="39" transform="rotate(90 688 563)" fill="#8C6A4E"/>
<rect x="688" y="600" width="2" height="39" transform="rotate(90 688 600)" fill="#8C6A4E"/>
<path d="M667.634 570.598C668.019 569.931 668.981 569.931 669.366 570.598L681.057 590.848C681.442 591.514 680.961 592.348 680.191 592.348H656.809C656.039 592.348 655.558 591.514 655.943 590.848L667.634 570.598Z" fill="#DBBA95" stroke="#8C6A4E" stroke-width="2"/>
<path d="M59.6338 600C26.699 600 0.000135677 593.956 0.000135677 586.5C0.000135677 579.044 26.699 573 59.6338 573C92.5686 573 119.267 579.044 119.267 586.5C119.267 593.956 92.5686 600 59.6338 600Z" fill="#006BC5"/>
<path d="M59.6338 600C26.699 600 0.000135677 593.956 0.000135677 586.5C0.000135677 579.044 26.699 573 59.6338 573C92.5686 573 119.267 579.044 119.267 586.5C119.267 593.956 92.5686 600 59.6338 600Z" fill="#FFF831" fill-opacity="0.46"/>
<path d="M1.18654 586H119.187L119.187 669H1.18652L1.18654 586Z" fill="#FFF831" fill-opacity="0.34"/>
<path d="M66.6239 691.326C99.3363 709.96 122.863 730.318 119.173 736.796C115.483 743.275 85.9723 733.421 53.2599 714.787C20.5475 696.153 -2.97957 675.795 0.710789 669.316C4.40114 662.838 33.9114 672.692 66.6239 691.326Z" fill="#006BC5"/>
<path d="M66.6239 691.326C99.3363 709.96 122.863 730.318 119.173 736.796C115.483 743.275 85.9723 733.421 53.2599 714.787C20.5475 696.153 -2.97957 675.795 0.710789 669.316C4.40114 662.838 33.9114 672.692 66.6239 691.326Z" fill="#FFF831" fill-opacity="0.46"/>
<path d="M119.187 737L1 669L1280 669.002V683.061V701.423V737L119.187 737Z" fill="#FFF831" fill-opacity="0.34"/>
<path d="M119 586L942.5 138.5L912.5 87L21.9999 574L0.186523 586L119 586Z" fill="#FFF831" fill-opacity="0.34"/>
<rect x="1071" y="363.098" width="37" height="37" fill="#DBBA95"/>
<rect x="1070" y="362" width="2" height="39" fill="#8C6A4E"/>
<rect x="1107" y="362" width="2" height="39" fill="#8C6A4E"/>
<rect x="1109" y="362" width="2" height="39" transform="rotate(90 1109 362)" fill="#8C6A4E"/>
<rect x="1109" y="399" width="2" height="39" transform="rotate(90 1109 399)" fill="#8C6A4E"/>
<path d="M1088.63 369.598C1089.02 368.931 1089.98 368.931 1090.37 369.598L1102.06 389.848C1102.44 390.514 1101.96 391.348 1101.19 391.348H1077.81C1077.04 391.348 1076.56 390.514 1076.94 389.848L1088.63 369.598Z" fill="#DBBA95" stroke="#8C6A4E" stroke-width="2"/>
<rect x="274" y="295.098" width="37" height="37" fill="#DBBA95"/>
<rect x="273" y="294" width="2" height="39" fill="#8C6A4E"/>
<rect x="310" y="294" width="2" height="39" fill="#8C6A4E"/>
<rect x="312" y="294" width="2" height="39" transform="rotate(90 312 294)" fill="#8C6A4E"/>
<rect x="312" y="331" width="2" height="39" transform="rotate(90 312 331)" fill="#8C6A4E"/>
<path d="M291.634 301.598C292.019 300.931 292.981 300.931 293.366 301.598L305.057 321.848C305.442 322.514 304.961 323.348 304.191 323.348H280.809C280.039 323.348 279.558 322.514 279.943 321.848L291.634 301.598Z" fill="#DBBA95" stroke="#8C6A4E" stroke-width="2"/>
</svg>
