<svg width="43" height="26" viewBox="0 0 43 26" fill="none" xmlns="http://www.w3.org/2000/svg">
<g clip-path="url(#clip0_342_1423)">
<rect width="43" height="26" fill="#242424"/>
<path d="M43.0836 20.5036C42.9903 23.317 33.3079 25.2789 21.4575 24.8856C9.60714 24.4923 0.0761913 21.8927 0.169561 19.0793C0.262932 16.2659 9.94526 14.3041 21.7957 14.6973C33.6461 15.0906 43.177 17.6902 43.0836 20.5036Z" fill="#826346"/>
<path d="M29.7271 0.959961L34.6816 1.12439C35.7503 1.15986 36.7117 1.49569 37.5658 2.13188C38.4322 2.76848 39.086 3.58038 39.5274 4.56758C39.9809 5.55519 40.1895 6.59545 40.1532 7.68837C40.1169 8.78129 39.8398 9.80543 39.3218 10.7608C38.816 11.7166 38.1098 12.4833 37.2031 13.0611C36.3086 13.6392 35.3271 13.9106 34.2585 13.8751L29.3039 13.7107L29.7271 0.959961ZM31.8962 11.4261L34.3006 11.5059C35.2114 11.5361 35.978 11.1483 36.6004 10.3422C37.235 9.53663 37.5692 8.62379 37.6031 7.60373C37.6369 6.58368 37.364 5.65069 36.7842 4.80478C36.2166 3.95927 35.4774 3.5214 34.5666 3.49117L32.1622 3.41138L31.8962 11.4261Z" fill="#826346"/>
<path d="M16.2805 0.51355L18.9582 0.602415L21.8083 9.23117L25.2242 0.810371L27.9019 0.899236L22.7427 13.4928L20.5933 13.4215L16.2805 0.51355Z" fill="#826346"/>
<path d="M4.91235 0.136353L9.86692 0.300783C10.9356 0.336248 11.897 0.672078 12.7511 1.30827C13.6175 1.94487 14.2713 2.75677 14.7127 3.74397C15.1662 4.73158 15.3748 5.77184 15.3385 6.86476C15.3022 7.95768 15.0251 8.98182 14.5071 9.93718C14.0013 10.893 13.2951 11.6597 12.3884 12.2375C11.4939 12.8156 10.5124 13.087 9.44376 13.0515L4.48919 12.8871L4.91235 0.136353ZM7.08149 10.6025L9.48591 10.6823C10.3967 10.7125 11.1633 10.3246 11.7857 9.51863C12.4203 8.71302 12.7545 7.80018 12.7884 6.78013C12.8222 5.76007 12.5493 4.82708 11.9695 3.98117C11.4019 3.13566 10.6627 2.69779 9.7519 2.66757L7.34748 2.58777L7.08149 10.6025Z" fill="#826346"/>
<path d="M28.191 19.7955C28.191 21.0751 25.3558 22.1123 21.8584 22.1123C18.3611 22.1123 15.5259 21.0751 15.5259 19.7955C15.5259 18.516 18.3611 17.4788 21.8584 17.4788C25.3558 17.4788 28.191 18.516 28.191 19.7955Z" fill="#242424"/>
</g>
<defs>
<clipPath id="clip0_342_1423">
<rect width="43" height="26" fill="white"/>
</clipPath>
</defs>
</svg>
