<svg width="216" height="163" viewBox="0 0 216 163" fill="none" xmlns="http://www.w3.org/2000/svg">
<g clip-path="url(#clip0_176_2831)">
<rect width="216" height="163" fill="#001A3D"/>
<path d="M125.97 72.02H124.02V70.954H125.983L125.008 69.277L125.931 68.744L126.906 70.434L127.881 68.744L128.804 69.277L127.829 70.954H129.792V72.02H127.842L128.817 73.697L127.894 74.23L126.906 72.54L125.918 74.23L124.995 73.697L125.97 72.02Z" fill="white"/>
<path d="M153.47 71.52H151.52V70.454H153.483L152.508 68.777L153.431 68.244L154.406 69.934L155.381 68.244L156.304 68.777L155.329 70.454H157.292V71.52H155.342L156.317 73.197L155.394 73.73L154.406 72.04L153.418 73.73L152.495 73.197L153.47 71.52Z" fill="white"/>
<path d="M2.47 160.52H0.52V159.454H2.483L1.508 157.777L2.431 157.244L3.406 158.934L4.381 157.244L5.304 157.777L4.329 159.454H6.292V160.52H4.342L5.317 162.197L4.394 162.73L3.406 161.04L2.418 162.73L1.495 162.197L2.47 160.52Z" fill="white"/>
<path d="M38.97 112.52H37.02V111.454H38.983L38.008 109.777L38.931 109.244L39.906 110.934L40.881 109.244L41.804 109.777L40.829 111.454H42.792V112.52H40.842L41.817 114.197L40.894 114.73L39.906 113.04L38.918 114.73L37.995 114.197L38.97 112.52Z" fill="white"/>
<path d="M110.47 89.52H108.52V88.454H110.483L109.508 86.777L110.431 86.244L111.406 87.934L112.381 86.244L113.304 86.777L112.329 88.454H114.292V89.52H112.342L113.317 91.197L112.394 91.73L111.406 90.04L110.418 91.73L109.495 91.197L110.47 89.52Z" fill="white"/>
<path d="M89.97 46.52H88.02V45.454H89.983L89.008 43.777L89.931 43.244L90.906 44.934L91.881 43.244L92.804 43.777L91.829 45.454H93.792V46.52H91.842L92.817 48.197L91.894 48.73L90.906 47.04L89.918 48.73L88.995 48.197L89.97 46.52Z" fill="white"/>
<path d="M211.97 4.02H210.02V2.954H211.983L211.008 1.277L211.931 0.744L212.906 2.434L213.881 0.744L214.804 1.277L213.829 2.954H215.792V4.02H213.842L214.817 5.697L213.894 6.23L212.906 4.54L211.918 6.23L210.995 5.697L211.97 4.02Z" fill="white"/>
<path d="M170.47 16.02H168.52V14.954H170.483L169.508 13.277L170.431 12.744L171.406 14.434L172.381 12.744L173.304 13.277L172.329 14.954H174.292V16.02H172.342L173.317 17.697L172.394 18.23L171.406 16.54L170.418 18.23L169.495 17.697L170.47 16.02Z" fill="white"/>
<path d="M143.97 80.52H142.02V79.454H143.983L143.008 77.777L143.931 77.244L144.906 78.934L145.881 77.244L146.804 77.777L145.829 79.454H147.792V80.52H145.842L146.817 82.197L145.894 82.73L144.906 81.04L143.918 82.73L142.995 82.197L143.97 80.52Z" fill="white"/>
<line x1="40.198" y1="112.653" x2="3.198" y2="160.653" stroke="white" stroke-width="0.5"/>
<line x1="39.923" y1="112.262" x2="110.923" y2="89.2622" stroke="white" stroke-width="0.5"/>
<line x1="111.318" y1="88.8287" x2="127.318" y2="71.8287" stroke="white" stroke-width="0.5"/>
<line x1="127.107" y1="71.7739" x2="145.107" y2="80.2739" stroke="white" stroke-width="0.5"/>
<line x1="144.828" y1="80.3185" x2="154.328" y2="71.3185" stroke="white" stroke-width="0.5"/>
<line x1="154.311" y1="71.3363" x2="212.811" y2="3.83627" stroke="white" stroke-width="0.5"/>
<line x1="171.433" y1="15.2591" x2="212.933" y2="3.75908" stroke="white" stroke-width="0.5"/>
<line x1="91.2257" y1="46.3924" x2="111.726" y2="89.3924" stroke="white" stroke-width="0.5"/>
</g>
<defs>
<clipPath id="clip0_176_2831">
<rect width="216" height="163" fill="white"/>
</clipPath>
</defs>
</svg>
