<svg width="153" height="151" viewBox="0 0 153 151" fill="none" xmlns="http://www.w3.org/2000/svg">
<g clip-path="url(#clip0_176_1631)">
<rect width="153" height="151" fill="#001A3D"/>
<path d="M148.47 148.308H146.52V147.242H148.483L147.508 145.565L148.431 145.032L149.406 146.722L150.381 145.032L151.304 145.565L150.329 147.242H152.292V148.308H150.342L151.317 149.985L150.394 150.518L149.406 148.828L148.418 150.518L147.495 149.985L148.47 148.308Z" fill="white"/>
<path d="M136.47 133.308H134.52V132.242H136.483L135.508 130.565L136.431 130.032L137.406 131.722L138.381 130.032L139.304 130.565L138.329 132.242H140.292V133.308H138.342L139.317 134.985L138.394 135.518L137.406 133.828L136.418 135.518L135.495 134.985L136.47 133.308Z" fill="white"/>
<path d="M71.47 100.308H69.52V99.2417H71.483L70.508 97.5647L71.431 97.0317L72.406 98.7217L73.381 97.0317L74.304 97.5647L73.329 99.2417H75.292V100.308H73.342L74.317 101.985L73.394 102.518L72.406 100.828L71.418 102.518L70.495 101.985L71.47 100.308Z" fill="white"/>
<path d="M2.47 137.308H0.52V136.242H2.483L1.508 134.565L2.431 134.032L3.406 135.722L4.381 134.032L5.304 134.565L4.329 136.242H6.292V137.308H4.342L5.317 138.985L4.394 139.518L3.406 137.828L2.418 139.518L1.495 138.985L2.47 137.308Z" fill="white"/>
<path d="M10.47 129.02H8.52V127.954H10.483L9.508 126.277L10.431 125.744L11.406 127.434L12.381 125.744L13.304 126.277L12.329 127.954H14.292V129.02H12.342L13.317 130.697L12.394 131.23L11.406 129.54L10.418 131.23L9.495 130.697L10.47 129.02Z" fill="white"/>
<path d="M61.47 3.30766H59.52V2.24166H61.483L60.508 0.564659L61.431 0.0316585L62.406 1.72166L63.381 0.0316585L64.304 0.564659L63.329 2.24166H65.292V3.30766H63.342L64.317 4.98466L63.394 5.51766L62.406 3.82766L61.418 5.51766L60.495 4.98466L61.47 3.30766Z" fill="white"/>
<path d="M67.47 44.3077H65.52V43.2417H67.483L66.508 41.5647L67.431 41.0317L68.406 42.7217L69.381 41.0317L70.304 41.5647L69.329 43.2417H71.292V44.3077H69.342L70.317 45.9847L69.394 46.5177L68.406 44.8277L67.418 46.5177L66.495 45.9847L67.47 44.3077Z" fill="white"/>
<path d="M117.324 60.6534L116.045 61.4521L117.386 62.1775L116.967 62.9297L115.632 62.2154L115.688 63.7284L114.828 63.7749L114.765 62.2508L113.486 63.0495L113.039 62.3328L114.318 61.5341L112.976 60.8087L113.395 60.0565L114.73 60.7709L114.674 59.2578L115.534 59.2113L115.597 60.7354L116.876 59.9367L117.324 60.6534ZM114.554 56.3901L113.275 57.1888L112.828 56.4721L114.107 55.6734L112.765 54.948L113.184 54.1958L114.519 54.9101L114.463 53.3971L115.323 53.3506L115.386 54.8747L116.665 54.076L117.113 54.7927L115.834 55.5914L117.175 56.3168L116.756 57.069L115.421 56.3547L115.477 57.8677L114.617 57.9142L114.554 56.3901ZM118.448 59.9511L118.001 59.2344L119.28 58.4357L117.938 57.7103L118.357 56.9581L119.692 57.6725L119.637 56.1594L120.496 56.1129L120.559 57.637L121.838 56.8383L122.286 57.5551L121.007 58.3538L122.349 59.0792L121.929 59.8314L120.594 59.117L120.65 60.6301L119.79 60.6765L119.728 59.1525L118.448 59.9511Z" fill="white"/>
<path d="M124.47 73.3077H122.52V72.2417H124.483L123.508 70.5647L124.431 70.0317L125.406 71.7217L126.381 70.0317L127.304 70.5647L126.329 72.2417H128.292V73.3077H126.342L127.317 74.9847L126.394 75.5177L125.406 73.8277L124.418 75.5177L123.495 74.9847L124.47 73.3077Z" fill="white"/>
<path d="M115 55.7877L125.5 72.7877" stroke="white" stroke-width="0.5"/>
<path d="M11.5 128.5L3.5 136.788" stroke="white" stroke-width="0.5"/>
<path d="M73.5001 99.7876L11.4999 128.288" stroke="white" stroke-width="0.5"/>
<path d="M72.5 99.7877L137.5 132.788" stroke="white" stroke-width="0.5"/>
<path d="M137.5 132.788L149.5 147.788" stroke="white" stroke-width="0.5"/>
<path d="M125.5 72.7877L137.5 132.788" stroke="white" stroke-width="0.5"/>
<path d="M62.5 2.78766L68.5 43.7877" stroke="white" stroke-width="0.5"/>
<path d="M68.5 43.7877L72.5 99.7877" stroke="white" stroke-width="0.5"/>
<path d="M62.5 2.78766L115 55.7877" stroke="white" stroke-width="0.5"/>
</g>
<defs>
<clipPath id="clip0_176_1631">
<rect width="153" height="151" fill="white"/>
</clipPath>
</defs>
</svg>
