<svg width="124" height="194" viewBox="0 0 124 194" fill="none" xmlns="http://www.w3.org/2000/svg">
<g clip-path="url(#clip0_176_2351)">
<rect width="124" height="194" fill="#001A3D"/>
<path d="M28.47 4.02H26.52V2.954H28.483L27.508 1.277L28.431 0.744L29.406 2.434L30.381 0.744L31.304 1.277L30.329 2.954H32.292V4.02H30.342L31.317 5.697L30.394 6.23L29.406 4.54L28.418 6.23L27.495 5.697L28.47 4.02Z" fill="white"/>
<path d="M2.47 37.02H0.52V35.954H2.483L1.508 34.277L2.431 33.744L3.406 35.434L4.381 33.744L5.304 34.277L4.329 35.954H6.292V37.02H4.342L5.317 38.697L4.394 39.23L3.406 37.54L2.418 39.23L1.495 38.697L2.47 37.02Z" fill="white"/>
<path d="M18.47 83.02H16.52V81.954H18.483L17.508 80.277L18.431 79.744L19.406 81.434L20.381 79.744L21.304 80.277L20.329 81.954H22.292V83.02H20.342L21.317 84.697L20.394 85.23L19.406 83.54L18.418 85.23L17.495 84.697L18.47 83.02Z" fill="white"/>
<path d="M65.47 94.02H63.52V92.954H65.483L64.508 91.277L65.431 90.744L66.406 92.434L67.381 90.744L68.304 91.277L67.329 92.954H69.292V94.02H67.342L68.317 95.697L67.394 96.23L66.406 94.54L65.418 96.23L64.495 95.697L65.47 94.02Z" fill="white"/>
<path d="M119.47 94.02H117.52V92.954H119.483L118.508 91.277L119.431 90.744L120.406 92.434L121.381 90.744L122.304 91.277L121.329 92.954H123.292V94.02H121.342L122.317 95.697L121.394 96.23L120.406 94.54L119.418 96.23L118.495 95.697L119.47 94.02Z" fill="white"/>
<path d="M109.47 52.02H107.52V50.954H109.483L108.508 49.277L109.431 48.744L110.406 50.434L111.381 48.744L112.304 49.277L111.329 50.954H113.292V52.02H111.342L112.317 53.697L111.394 54.23L110.406 52.54L109.418 54.23L108.495 53.697L109.47 52.02Z" fill="white"/>
<path d="M113.47 124.02H111.52V122.954H113.483L112.508 121.277L113.431 120.744L114.406 122.434L115.381 120.744L116.304 121.277L115.329 122.954H117.292V124.02H115.342L116.317 125.697L115.394 126.23L114.406 124.54L113.418 126.23L112.495 125.697L113.47 124.02Z" fill="white"/>
<path d="M54.47 134.02H52.52V132.954H54.483L53.508 131.277L54.431 130.744L55.406 132.434L56.381 130.744L57.304 131.277L56.329 132.954H58.292V134.02H56.342L57.317 135.697L56.394 136.23L55.406 134.54L54.418 136.23L53.495 135.697L54.47 134.02Z" fill="white"/>
<path d="M37.47 145.02H35.52V143.954H37.483L36.508 142.277L37.431 141.744L38.406 143.434L39.381 141.744L40.304 142.277L39.329 143.954H41.292V145.02H39.342L40.317 146.697L39.394 147.23L38.406 145.54L37.418 147.23L36.495 146.697L37.47 145.02Z" fill="white"/>
<path d="M79.47 184.02H77.52V182.954H79.483L78.508 181.277L79.431 180.744L80.406 182.434L81.381 180.744L82.304 181.277L81.329 182.954H83.292V184.02H81.342L82.317 185.697L81.394 186.23L80.406 184.54L79.418 186.23L78.495 185.697L79.47 184.02Z" fill="white"/>
<path d="M23.47 191.02H21.52V189.954H23.483L22.508 188.277L23.431 187.744L24.406 189.434L25.381 187.744L26.304 188.277L25.329 189.954H27.292V191.02H25.342L26.317 192.697L25.394 193.23L24.406 191.54L23.418 193.23L22.495 192.697L23.47 191.02Z" fill="white"/>
<path d="M49.47 75.02H47.52V73.954H49.483L48.508 72.277L49.431 71.744L50.406 73.434L51.381 71.744L52.304 72.277L51.329 73.954H53.292V75.02H51.342L52.317 76.697L51.394 77.23L50.406 75.54L49.418 77.23L48.495 76.697L49.47 75.02Z" fill="white"/>
<path d="M29.5 3.5L3.5 36.5" stroke="white" stroke-width="0.5"/>
<path d="M19.4999 82.5L50.5 74.5" stroke="white" stroke-width="0.5"/>
<path d="M38.5 144.5L19.5 82.5" stroke="white" stroke-width="0.5"/>
<path d="M24.5 190.5L38.4999 144.5" stroke="white" stroke-width="0.5"/>
<path d="M80 183.5L24.4999 190.5" stroke="white" stroke-width="0.5"/>
<path d="M55.5 133.5L80 183" stroke="white" stroke-width="0.5"/>
<path d="M66.5 93.5001L55.4999 133.5" stroke="white" stroke-width="0.5"/>
<path d="M51.1987 74.8485L66.4999 93.5" stroke="white" stroke-width="0.5"/>
<path d="M120.5 93.5H66.5" stroke="white" stroke-width="0.5"/>
<path d="M3.50006 36.5L19.5001 82.5" stroke="white" stroke-width="0.5"/>
<path d="M110.5 52L120.5 93.5" stroke="white" stroke-width="0.5"/>
<path d="M114.5 123.5L120.501 93.9678" stroke="white" stroke-width="0.5"/>
</g>
<defs>
<clipPath id="clip0_176_2351">
<rect width="124" height="194" fill="white"/>
</clipPath>
</defs>
</svg>
