<svg width="127" height="97" viewBox="0 0 127 97" fill="none" xmlns="http://www.w3.org/2000/svg">
<g clip-path="url(#clip0_176_2111)">
<rect width="127" height="97" fill="#001A3D"/>
<path d="M88.9451 56.7432L90.4977 56.9481L89.9016 55.4805L90.7344 55.1547L91.3322 56.6089L92.2869 55.3596L93.0067 55.8903L92.0502 57.1531L93.6027 57.358L93.4879 58.2279L91.9354 58.023L92.5315 59.4906L91.6987 59.8165L91.1008 58.3622L90.1461 59.6115L89.4264 59.0808L90.3829 57.8181L88.8303 57.6132L88.9451 56.7432ZM88.3481 61.9887L89.9007 62.1936L89.7859 63.0636L88.2333 62.8587L88.8294 64.3263L87.9966 64.6521L87.3988 63.1979L86.4441 64.4472L85.7243 63.9165L86.6808 62.6538L85.1282 62.4489L85.2431 61.5789L86.7956 61.7838L86.1995 60.3162L87.0323 59.9904L87.6302 61.4446L88.5848 60.1953L89.3046 60.726L88.3481 61.9887ZM87.58 56.5631L87.4652 57.433L85.9126 57.2281L86.5087 58.6957L85.6759 59.0216L85.0781 57.5673L84.1234 58.8166L83.4036 58.2859L84.3601 57.0232L82.8075 56.8183L82.9224 55.9483L84.4749 56.1532L83.8788 54.6856L84.7116 54.3598L85.3095 55.814L86.2641 54.5647L86.9839 55.0954L86.0274 56.3582L87.58 56.5631Z" fill="white"/>
<path d="M118.696 27.6991L119.014 26.1658L117.507 26.6526L117.243 25.7981L118.737 25.3086L117.561 24.2648L118.143 23.5859L119.332 24.6325L119.651 23.0991L120.51 23.2775L120.191 24.8108L121.699 24.324L121.963 25.1784L120.469 25.668L121.644 26.7118L121.062 27.3906L119.873 26.3441L119.555 27.8774L118.696 27.6991ZM123.883 28.6793L124.202 27.146L125.061 27.3243L124.742 28.8577L126.25 28.3709L126.514 29.2253L125.02 29.7149L126.195 30.7586L125.613 31.4375L124.424 30.391L124.106 31.9243L123.247 31.746L123.565 30.2126L122.058 30.6994L121.794 29.845L123.288 29.3554L122.112 28.3117L122.694 27.6328L123.883 28.6793ZM118.416 29.0474L119.275 29.2257L118.957 30.759L120.464 30.2722L120.728 31.1267L119.234 31.6162L120.41 32.66L119.828 33.3388L118.639 32.2923L118.32 33.8256L117.461 33.6473L117.779 32.114L116.272 32.6008L116.008 31.7463L117.502 31.2568L116.326 30.213L116.908 29.5342L118.098 30.5807L118.416 29.0474Z" fill="white"/>
<path d="M42.2734 59.5933L41.6857 58.1418L40.7032 59.3843L40.0089 58.8207L40.9789 57.5832L39.4212 57.3692L39.5277 56.4813L41.0979 56.6902L40.5102 55.2387L41.3235 54.9094L41.9113 56.3609L42.8937 55.1183L43.588 55.6819L42.6181 56.9194L44.1758 57.1335L44.0692 58.0214L42.499 57.8124L43.0868 59.2639L42.2734 59.5933ZM45.9906 54.7091L45.4028 53.2576L46.2162 52.9283L46.8039 54.3798L47.7864 53.1372L48.4807 53.7008L47.5107 54.9383L49.0684 55.1523L48.9619 56.0402L47.3917 55.8313L47.9794 57.2828L47.1661 57.6122L46.5783 56.1606L45.5958 57.4032L44.9016 56.8396L45.8715 55.6021L44.3138 55.3881L44.4203 54.5002L45.9906 54.7091Z" fill="white"/>
<path d="M22.6901 64.7363L20.8132 65.4963L20.3977 64.4702L22.2872 63.7051L20.6951 62.471L21.3758 61.5982L22.9729 62.8449L23.2527 60.8382L24.3489 60.9915L24.064 62.9856L25.9535 62.2206L26.369 63.2466L24.492 64.0067L26.0841 65.2408L25.4034 66.1136L23.7938 64.872L23.5014 66.8838L22.4053 66.7305L22.6901 64.7363Z" fill="white"/>
<path d="M3.3166 94.1584L1.43964 94.9184L1.02416 93.8923L2.91364 93.1273L1.32154 91.8931L2.00223 91.0203L3.5994 92.267L3.87919 90.2603L4.97536 90.4136L4.6905 92.4078L6.57997 91.6427L6.99545 92.6688L5.11849 93.4288L6.71059 94.663L6.0299 95.5357L4.42022 94.2941L4.12791 96.3059L3.03174 96.1526L3.3166 94.1584Z" fill="white"/>
<path d="M69.0349 45.9703L67.1579 46.7303L66.7424 45.7042L68.6319 44.9391L67.0398 43.705L67.7205 42.8322L69.3177 44.0789L69.5975 42.0722L70.6936 42.2255L70.4088 44.2197L72.2982 43.4546L72.7137 44.4806L70.8368 45.2407L72.4289 46.4748L71.7482 47.3476L70.1385 46.106L69.8462 48.1178L68.75 47.9645L69.0349 45.9703Z" fill="white"/>
<path d="M102.72 8.19096L101.154 8.19443L101.941 9.56969L101.158 10.0034L100.372 8.64167L99.5925 10.0069L98.8085 9.57664L99.5885 8.19791L98.0225 8.20138L98.0205 7.32388L99.5865 7.32041L98.8005 5.94515L99.5825 5.51141L100.369 6.87317L101.149 5.50794L101.932 5.9382L101.153 7.31694L102.719 7.31346L102.72 8.19096ZM102.614 2.91268L101.048 2.91616L101.046 2.03866L102.612 2.03518L101.826 0.659925L102.608 0.226189L103.394 1.58795L104.174 0.222715L104.958 0.652977L104.178 2.03171L105.744 2.02824L105.746 2.90573L104.18 2.90921L104.966 4.28447L104.184 4.7182L103.398 3.35644L102.618 4.72168L101.834 4.29142L102.614 2.91268ZM104.097 8.18791L104.096 7.31041L105.662 7.30693L104.875 5.93167L105.658 5.49794L106.444 6.8597L107.223 5.49446L108.007 5.92473L107.228 7.30346L108.794 7.29999L108.795 8.17748L107.229 8.18096L108.016 9.55622L107.233 9.98995L106.447 8.62819L105.667 9.99343L104.884 9.56317L105.663 8.18443L104.097 8.18791Z" fill="white"/>
<path d="M4.07446 93.5387L23.4481 64.1165" stroke="white" stroke-width="0.5"/>
<path d="M23.2603 63.6531L41.7101 57.2612" stroke="white" stroke-width="0.5"/>
<path d="M41.71 57.2612L46.8079 55.197" stroke="white" stroke-width="0.5"/>
<path d="M85.2545 56.8911L91.4784 57.6076M118.202 31.6825L119.845 25.0833" stroke="white" stroke-width="0.5"/>
<path d="M100.366 7.61743L106.402 7.87042" stroke="white" stroke-width="0.5"/>
<path d="M46.808 55.197L69.6051 44.8871" stroke="white" stroke-width="0.5"/>
<path d="M69.605 44.8871L85.0667 56.4277" stroke="white" stroke-width="0.5"/>
<path d="M91.2908 57.1442L118.665 31.4949" stroke="white" stroke-width="0.5"/>
<path d="M106.402 7.87037L120.033 25.5468" stroke="white" stroke-width="0.5"/>
<path d="M100.366 7.61749L69.605 44.8872" stroke="white" stroke-width="0.5"/>
</g>
<defs>
<clipPath id="clip0_176_2111">
<rect width="127" height="97" fill="white"/>
</clipPath>
</defs>
</svg>
