<svg width="1077" height="317" viewBox="0 0 1077 317" fill="none" xmlns="http://www.w3.org/2000/svg">
<g clip-path="url(#clip0_176_3071)">
<rect width="1077" height="317" fill="#001A3D"/>
<path d="M14.8088 296.238H14.3977L14.3977 21.5986H14.8088L14.8088 296.238Z" fill="white"/>
<path d="M157.476 295.353V296.175H14.564V295.353H157.476Z" fill="white"/>
<path d="M157.476 152.441V153.263H14.564V152.441H157.476Z" fill="white"/>
<path d="M164.932 166.111V166.933H7.10767V166.111H164.932Z" fill="white"/>
<path d="M164.932 309.023V309.845H7.10767V309.023H164.932Z" fill="white"/>
<path d="M157.977 20.998L157.97 21.8203L14.6103 20.5844L14.6174 19.7621L157.977 20.998Z" fill="white"/>
<path d="M164.932 33.1406V33.9629H7.10767V33.1406H164.932Z" fill="white"/>
<path d="M22.8423 309.845L22.02 309.845L22.02 33.9628L22.8423 33.9628L22.8423 309.845Z" fill="white"/>
<path d="M166.867 33.9231C191.062 44.9204 201.244 69.7371 199.052 94.2533C196.861 118.768 182.296 143.074 156.888 153.108L156.736 152.726L156.586 152.344C181.654 142.444 196.065 118.442 198.234 94.1798C200.403 69.9195 190.328 45.4895 166.528 34.6716L166.698 34.2973L166.867 33.9231Z" fill="white"/>
<path d="M209.338 88.6021C209.338 118.734 193.217 150.517 163.147 166.179L162.958 165.815L162.767 165.451C192.534 149.947 208.515 118.464 208.515 88.6024C208.515 58.7568 192.558 30.5871 158.49 21.6054L158.699 20.8107C193.194 29.9048 209.338 58.4552 209.338 88.6021Z" fill="white"/>
<path d="M217.088 233.703C217.102 266.393 200.397 300.776 166.809 310.194L166.698 309.799L166.588 309.403C199.692 300.121 216.279 266.179 216.266 233.703C216.252 201.22 199.645 170.497 166.661 167.494L166.736 166.675C200.335 169.735 217.074 201.02 217.088 233.703Z" fill="white"/>
<path d="M196.9 198.842C205.067 212.344 207.357 227.691 205.516 242.143C203.676 256.593 197.705 270.167 189.324 280.135C180.946 290.1 170.127 296.496 158.594 296.496L158.593 296.085L158.593 295.674C169.811 295.674 180.419 289.449 188.695 279.605C196.969 269.764 202.88 256.34 204.701 242.039C206.522 227.742 204.253 212.587 196.195 199.268C188.14 185.952 174.28 174.438 152.856 167.452L153.111 166.671C174.696 173.709 188.729 185.336 196.9 198.842Z" fill="white"/>
<path d="M13.9866 21.5987L14.3977 21.5987L14.3977 296.238L13.9866 296.238L13.9866 21.5987Z" fill="white"/>
<path d="M6.2854 33.9625H7.10771L7.10771 309.845H6.2854L6.2854 33.9625Z" fill="white"/>
<path d="M12.7327 35.6379H8.82183L10.7773 39.0768L8.82183 40.1557L6.86637 36.7505L4.91091 40.1557L2.95546 39.0768L4.91091 35.6379H1V33.4465H4.91091L2.95546 30.0076L4.91091 28.9287L6.86637 32.3339L8.82183 28.9287L10.7773 30.0076L8.82183 33.4465H12.7327V35.6379ZM12.4967 22.4555H8.58583V20.264H12.4967L10.5413 16.8251L12.4967 15.7462L14.4522 19.1514L16.4077 15.7462L18.3631 16.8251L16.4077 20.264H20.3186V22.4555H16.4077L18.3631 25.8944L16.4077 26.9732L14.4522 23.568L12.4967 26.9732L10.5413 25.8944L12.4967 22.4555ZM16.1717 35.6379V33.4465H20.0826L18.1271 30.0076L20.0826 28.9287L22.038 32.3339L23.9935 28.9287L25.9489 30.0076L23.9935 33.4465H27.9044V35.6379H23.9935L25.9489 39.0768L23.9935 40.1557L22.038 36.7505L20.0826 40.1557L18.1271 39.0768L20.0826 35.6379H16.1717Z" fill="white"/>
<path d="M155.645 311.686H151.734L153.689 315.125L151.734 316.204L149.778 312.799L147.823 316.204L145.868 315.125L147.823 311.686H143.912V309.495H147.823L145.868 306.056L147.823 304.977L149.778 308.382L151.734 304.977L153.689 306.056L151.734 309.495H155.645V311.686ZM155.409 298.504H151.498V296.312H155.409L153.453 292.874L155.409 291.795L157.364 295.2L159.32 291.795L161.275 292.874L159.32 296.312H163.231V298.504H159.32L161.275 301.943L159.32 303.022L157.364 299.617L155.409 303.022L153.453 301.943L155.409 298.504ZM159.084 311.686V309.495H162.995L161.039 306.056L162.995 304.977L164.95 308.382L166.906 304.977L168.861 306.056L166.906 309.495H170.817V311.686H166.906L168.861 315.125L166.906 316.204L164.95 312.799L162.995 316.204L161.039 315.125L162.995 311.686H159.084Z" fill="white"/>
<path d="M155.279 36.4572H151.368L153.323 39.8961L151.368 40.975L149.412 37.5698L147.457 40.975L145.501 39.8961L147.457 36.4572H143.546V34.2658H147.457L145.501 30.8268L147.457 29.748L149.412 33.1532L151.368 29.748L153.323 30.8268L151.368 34.2658H155.279V36.4572ZM155.043 23.2747H151.132V21.0833H155.043L153.087 17.6444L155.043 16.5655L156.998 19.9707L158.954 16.5655L160.909 17.6444L158.954 21.0833H162.864V23.2747H158.954L160.909 26.7136L158.954 27.7925L156.998 24.3873L155.043 27.7925L153.087 26.7136L155.043 23.2747ZM158.718 36.4572V34.2658H162.628L160.673 30.8268L162.628 29.748L164.584 33.1532L166.539 29.748L168.495 30.8268L166.539 34.2658H170.45V36.4572H166.539L168.495 39.8961L166.539 40.975L164.584 37.5698L162.628 40.975L160.673 39.8961L162.628 36.4572H158.718Z" fill="white"/>
<path d="M155.645 168.775H151.734L153.689 172.214L151.734 173.292L149.778 169.887L147.823 173.292L145.868 172.214L147.823 168.775H143.912V166.583H147.823L145.868 163.144L147.823 162.065L149.778 165.471L151.734 162.065L153.689 163.144L151.734 166.583H155.645V168.775ZM155.409 155.592H151.498V153.401H155.409L153.453 149.962L155.409 148.883L157.364 152.288L159.32 148.883L161.275 149.962L159.32 153.401H163.231V155.592H159.32L161.275 159.031L159.32 160.11L157.364 156.705L155.409 160.11L153.453 159.031L155.409 155.592ZM159.084 168.775V166.583H162.995L161.039 163.144L162.995 162.065L164.95 165.471L166.906 162.065L168.861 163.144L166.906 166.583H170.817V168.775H166.906L168.861 172.214L166.906 173.292L164.95 169.887L162.995 173.292L161.039 172.214L162.995 168.775H159.084Z" fill="white"/>
<path d="M12.7327 168.775H8.82183L10.7773 172.214L8.82183 173.292L6.86637 169.887L4.91091 173.292L2.95546 172.214L4.91091 168.775H1V166.583H4.91091L2.95546 163.144L4.91091 162.065L6.86637 165.471L8.82183 162.065L10.7773 163.144L8.82183 166.583H12.7327V168.775ZM12.4967 155.592H8.58583V153.401H12.4967L10.5413 149.962L12.4967 148.883L14.4522 152.288L16.4077 148.883L18.3631 149.962L16.4077 153.401H20.3186V155.592H16.4077L18.3631 159.031L16.4077 160.11L14.4522 156.705L12.4967 160.11L10.5413 159.031L12.4967 155.592ZM16.1717 168.775V166.583H20.0826L18.1271 163.144L20.0826 162.065L22.038 165.471L23.9935 162.065L25.9489 163.144L23.9935 166.583H27.9044V168.775H23.9935L25.9489 172.214L23.9935 173.292L22.038 169.887L20.0826 173.292L18.1271 172.214L20.0826 168.775H16.1717Z" fill="white"/>
<path d="M12.7327 311.686H8.82183L10.7773 315.125L8.82183 316.204L6.86637 312.799L4.91091 316.204L2.95546 315.125L4.91091 311.686H1V309.495H4.91091L2.95546 306.056L4.91091 304.977L6.86637 308.382L8.82183 304.977L10.7773 306.056L8.82183 309.495H12.7327V311.686ZM12.4967 298.504H8.58583V296.312H12.4967L10.5413 292.874L12.4967 291.795L14.4522 295.2L16.4077 291.795L18.3631 292.874L16.4077 296.312H20.3186V298.504H16.4077L18.3631 301.943L16.4077 303.022L14.4522 299.617L12.4967 303.022L10.5413 301.943L12.4967 298.504ZM16.1717 311.686V309.495H20.0826L18.1271 306.056L20.0826 304.977L22.038 308.382L23.9935 304.977L25.9489 306.056L23.9935 309.495H27.9044V311.686H23.9935L25.9489 315.125L23.9935 316.204L22.038 312.799L20.0826 316.204L18.1271 315.125L20.0826 311.686H16.1717Z" fill="white"/>
<path d="M279.759 296.175H279.348V83.6712H279.759V296.175Z" fill="white"/>
<path d="M285.982 97.3415H286.804V309.845H285.982V97.3415Z" fill="white"/>
<path d="M271.07 97.3415L271.892 97.3415L271.892 309.845L271.07 309.845L271.07 97.3415Z" fill="white"/>
<path d="M278.937 83.6718H279.348V296.175H278.937V83.6718Z" fill="white"/>
<path d="M277.517 20.8917H273.606L275.562 24.3306L273.606 25.4095L271.651 22.0043L269.695 25.4095L267.74 24.3306L269.695 20.8917H265.784V18.7003H269.695L267.74 15.2614L269.695 14.1825L271.651 17.5877L273.606 14.1825L275.562 15.2614L273.606 18.7003H277.517V20.8917ZM277.281 7.70924L273.37 7.70924V5.51778L277.281 5.51778L275.326 2.07887L277.281 1L279.237 4.40519L281.192 1L283.148 2.07887L281.192 5.51778H285.103V7.70924H281.192L283.148 11.1482L281.192 12.227L279.237 8.82183L277.281 12.227L275.326 11.1482L277.281 7.70924ZM280.956 20.8917V18.7003H284.867L282.912 15.2614L284.867 14.1825L286.822 17.5877L288.778 14.1825L290.733 15.2614L288.778 18.7003H292.689V20.8917H288.778L290.733 24.3306L288.778 25.4095L286.822 22.0043L284.867 25.4095L282.912 24.3306L284.867 20.8917H280.956Z" fill="white"/>
<path d="M277.517 99.1826H273.606L275.562 102.622L273.606 103.7L271.651 100.295L269.695 103.7L267.74 102.622L269.695 99.1826H265.784V96.9912H269.695L267.74 93.5522L269.695 92.4734L271.651 95.8786L273.606 92.4734L275.562 93.5522L273.606 96.9912H277.517V99.1826ZM277.281 86.0001H273.37V83.8087H277.281L275.326 80.3698L277.281 79.2909L279.237 82.6961L281.192 79.2909L283.148 80.3698L281.192 83.8087H285.103V86.0001H281.192L283.148 89.439L281.192 90.5179L279.237 87.1127L277.281 90.5179L275.326 89.439L277.281 86.0001ZM280.956 99.1826V96.9912H284.867L282.912 93.5522L284.867 92.4734L286.822 95.8786L288.778 92.4734L290.733 93.5522L288.778 96.9912H292.689V99.1826H288.778L290.733 102.622L288.778 103.7L286.822 100.295L284.867 103.7L282.912 102.622L284.867 99.1826H280.956Z" fill="white"/>
<path d="M277.517 311.686H273.606L275.562 315.125L273.606 316.204L271.651 312.799L269.695 316.204L267.74 315.125L269.695 311.686H265.784V309.495H269.695L267.74 306.056L269.695 304.977L271.651 308.382L273.606 304.977L275.562 306.056L273.606 309.495H277.517V311.686ZM277.281 298.504H273.37V296.312H277.281L275.326 292.874L277.281 291.795L279.237 295.2L281.192 291.795L283.148 292.874L281.192 296.312H285.103V298.504H281.192L283.148 301.943L281.192 303.022L279.237 299.617L277.281 303.022L275.326 301.943L277.281 298.504ZM280.956 311.686V309.495H284.867L282.912 306.056L284.867 304.977L286.822 308.382L288.778 304.977L290.733 306.056L288.778 309.495H292.689V311.686H288.778L290.733 315.125L288.778 316.204L286.822 312.799L284.867 316.204L282.912 315.125L284.867 311.686H280.956Z" fill="white"/>
<path d="M385.304 224.098H384.893V20.2933H385.304V224.098Z" fill="white"/>
<path d="M392.348 95.2763V96.0986H312.815V95.2763H392.348Z" fill="white"/>
<path d="M384.892 82.8492V83.6716H320.271V82.8492H384.892Z" fill="white"/>
<path d="M471.882 95.2763V96.0986L377.436 96.0986V95.2763L471.882 95.2763Z" fill="white"/>
<path d="M464.426 82.8492V83.6716L384.893 83.6716V82.8492L464.426 82.8492Z" fill="white"/>
<path d="M393.171 237.768L392.349 237.768L392.349 33.9631L393.171 33.9631L393.171 237.768Z" fill="white"/>
<path d="M377.015 237.768H376.193V33.9631H377.015V237.768Z" fill="white"/>
<path d="M384.481 20.2931H384.893V224.098H384.481V20.2931Z" fill="white"/>
<path d="M453.28 294.721C445.206 295.497 437.362 296.161 430.149 295.761C422.933 295.361 416.315 293.895 410.702 290.389C399.451 283.359 392.422 268.251 392.422 237.769L393.242 237.768C393.242 268.177 400.263 282.896 411.138 289.691C416.589 293.097 423.055 294.543 430.195 294.939C437.337 295.335 445.122 294.678 453.202 293.901L453.28 294.721Z" fill="white"/>
<path d="M453.863 311.088L453.944 311.491C431.026 316.151 411.287 316.816 397.486 306.685C383.67 296.542 375.959 275.7 376.759 237.781L377.171 237.789L377.581 237.798C376.783 275.662 384.501 296.13 397.973 306.021C411.459 315.922 430.866 315.344 453.782 310.685L453.863 311.088Z" fill="white"/>
<path d="M385.809 223.798C383.695 239.167 383.703 262.473 391.041 280.129C394.707 288.949 400.189 296.327 408.117 300.623C416.039 304.917 426.466 306.165 440.09 302.612L440.297 303.408C426.525 307 415.875 305.764 407.725 301.347C399.581 296.934 393.994 289.377 390.282 280.444C382.863 262.594 382.871 239.12 384.994 223.686L385.809 223.798Z" fill="white"/>
<path d="M383.061 35.8046H379.15L381.106 39.2435L379.15 40.3224L377.195 36.9172L375.24 40.3224L373.284 39.2435L375.24 35.8046H371.329V33.6132H375.24L373.284 30.1743L375.24 29.0954L377.195 32.5006L379.15 29.0954L381.106 30.1743L379.15 33.6132H383.061V35.8046ZM382.825 22.6221H378.914V20.4307H382.825L380.87 16.9918L382.825 15.9129L384.781 19.3181L386.736 15.9129L388.692 16.9918L386.736 20.4307H390.647V22.6221H386.736L388.692 26.0611L386.736 27.1399L384.781 23.7347L382.825 27.1399L380.87 26.0611L382.825 22.6221ZM386.5 35.8046V33.6132H390.411L388.456 30.1743L390.411 29.0954L392.367 32.5006L394.322 29.0954L396.278 30.1743L394.322 33.6132H398.233V35.8046H394.322L396.278 39.2435L394.322 40.3224L392.367 36.9172L390.411 40.3224L388.456 39.2435L390.411 35.8046H386.5Z" fill="white"/>
<path d="M455.083 304.22L455.083 308.131L458.522 306.176L459.601 308.131L456.195 310.087L459.601 312.042L458.522 313.997L455.083 312.042L455.083 315.953L452.891 315.953L452.891 312.042L449.453 313.997L448.374 312.042L451.779 310.087L448.374 308.131L449.453 306.176L452.891 308.131L452.891 304.22L455.083 304.22ZM441.9 304.456L441.9 308.367L439.709 308.367L439.709 304.456L436.27 306.412L435.191 304.456L438.596 302.501L435.191 300.545L436.27 298.59L439.709 300.545L439.709 296.634L441.9 296.634L441.9 300.545L445.339 298.59L446.418 300.545L443.013 302.501L446.418 304.456L445.339 306.412L441.9 304.456ZM455.083 300.781L452.891 300.781L452.891 296.87L449.453 298.826L448.374 296.87L451.779 294.915L448.374 292.959L449.453 291.004L452.891 292.959L452.891 289.049L455.083 289.049L455.083 292.959L458.522 291.004L459.601 292.959L456.195 294.915L459.601 296.87L458.522 298.826L455.083 296.87L455.083 300.781Z" fill="white"/>
<path d="M383.061 239.609H379.15L381.106 243.048L379.15 244.127L377.195 240.722L375.24 244.127L373.284 243.048L375.24 239.609H371.329V237.418H375.24L373.284 233.979L375.24 232.9L377.195 236.305L379.15 232.9L381.106 233.979L379.15 237.418H383.061V239.609ZM382.825 226.427H378.914V224.235H382.825L380.87 220.796L382.825 219.718L384.781 223.123L386.736 219.718L388.692 220.796L386.736 224.235H390.647V226.427H386.736L388.692 229.866L386.736 230.945L384.781 227.539L382.825 230.945L380.87 229.866L382.825 226.427ZM386.5 239.609V237.418H390.411L388.456 233.979L390.411 232.9L392.367 236.305L394.322 232.9L396.278 233.979L394.322 237.418H398.233V239.609H394.322L396.278 243.048L394.322 244.127L392.367 240.722L390.411 244.127L388.456 243.048L390.411 239.609H386.5Z" fill="white"/>
<path d="M383.061 97.9401H379.15L381.106 101.379L379.15 102.458L377.195 99.0527L375.24 102.458L373.284 101.379L375.24 97.9401H371.329V95.7486H375.24L373.284 92.3097L375.24 91.2308L377.195 94.636L379.15 91.2308L381.106 92.3097L379.15 95.7486H383.061V97.9401ZM382.825 84.7576H378.914V82.5661H382.825L380.87 79.1272L382.825 78.0483L384.781 81.4535L386.736 78.0483L388.692 79.1272L386.736 82.5661H390.647V84.7576H386.736L388.692 88.1965L386.736 89.2754L384.781 85.8702L382.825 89.2754L380.87 88.1965L382.825 84.7576ZM386.5 97.9401V95.7486H390.411L388.456 92.3097L390.411 91.2308L392.367 94.636L394.322 91.2308L396.278 92.3097L394.322 95.7486H398.233V97.9401H394.322L396.278 101.379L394.322 102.458L392.367 99.0527L390.411 102.458L388.456 101.379L390.411 97.9401H386.5Z" fill="white"/>
<path d="M318.44 97.9401H314.529L316.485 101.379L314.529 102.458L312.574 99.0527L310.618 102.458L308.663 101.379L310.618 97.9401H306.707V95.7486H310.618L308.663 92.3097L310.618 91.2308L312.574 94.636L314.529 91.2308L316.485 92.3097L314.529 95.7486H318.44V97.9401ZM318.204 84.7576H314.293V82.5661H318.204L316.249 79.1272L318.204 78.0483L320.159 81.4535L322.115 78.0483L324.07 79.1272L322.115 82.5661H326.026V84.7576H322.115L324.07 88.1965L322.115 89.2754L320.159 85.8702L318.204 89.2754L316.249 88.1965L318.204 84.7576ZM321.879 97.9401V95.7486H325.79L323.834 92.3097L325.79 91.2308L327.745 94.636L329.701 91.2308L331.656 92.3097L329.701 95.7486H333.612V97.9401H329.701L331.656 101.379L329.701 102.458L327.745 99.0527L325.79 102.458L323.834 101.379L325.79 97.9401H321.879Z" fill="white"/>
<path d="M462.594 97.9401H458.683L460.639 101.379L458.683 102.458L456.728 99.0527L454.772 102.458L452.817 101.379L454.772 97.9401H450.862V95.7486H454.772L452.817 92.3097L454.772 91.2308L456.728 94.636L458.683 91.2308L460.639 92.3097L458.683 95.7486H462.594V97.9401ZM462.358 84.7576H458.447V82.5661H462.358L460.403 79.1272L462.358 78.0483L464.314 81.4535L466.269 78.0483L468.225 79.1272L466.269 82.5661H470.18V84.7576H466.269L468.225 88.1965L466.269 89.2754L464.314 85.8702L462.358 89.2754L460.403 88.1965L462.358 84.7576ZM466.033 97.9401V95.7486H469.944L467.989 92.3097L469.944 91.2308L471.9 94.636L473.855 91.2308L475.811 92.3097L473.855 95.7486H477.766V97.9401H473.855L475.811 101.379L473.855 102.458L471.9 99.0527L469.944 102.458L467.989 101.379L469.944 97.9401H466.033Z" fill="white"/>
<path d="M699.981 309.845H699.158V224.098H699.981V309.845Z" fill="white"/>
<path d="M692.113 296.177H691.701V70.0023H692.113V296.177Z" fill="white"/>
<path d="M519.376 210.428H518.965V70.0023H519.376V210.428Z" fill="white"/>
<path d="M691.29 70.0019L691.701 70.0019L691.701 296.176L691.29 296.176L691.29 70.0019Z" fill="white"/>
<path d="M699.979 224.098H699.157V83.6724H699.979V224.098Z" fill="white"/>
<path d="M683.422 83.673H684.244V224.099H683.422V83.673Z" fill="white"/>
<path d="M683.422 224.099H684.244V309.846H683.422V224.099Z" fill="white"/>
<path d="M518.552 70.0033L518.964 70.0033L518.964 210.429L518.552 210.429L518.552 70.0033Z" fill="white"/>
<path d="M510.684 83.673H511.507V224.099H510.684V83.673Z" fill="white"/>
<path d="M527.242 224.098H526.42V83.6724H527.242V224.098Z" fill="white"/>
<path d="M685.065 224.566C685.064 261.006 653.383 297.054 602.634 297.054L602.635 296.643L602.634 296.231C652.968 296.231 684.243 260.513 684.243 224.566L685.065 224.566Z" fill="white"/>
<path d="M609.872 310.229C640.421 310.229 662.676 298.737 677.299 282.341C691.929 265.935 698.937 244.598 698.937 224.893L699.348 224.892L699.758 224.893C699.758 244.782 692.69 266.319 677.913 282.889C663.129 299.467 640.646 311.051 609.873 311.051L609.872 310.229Z" fill="white"/>
<path d="M545.245 273.675C557.742 287.418 576.586 296.587 601.963 296.587L601.963 296.176L601.964 295.764C576.8 295.764 558.183 286.68 545.854 273.122C533.518 259.556 527.452 241.484 527.452 223.477L526.631 223.477C526.631 241.663 532.755 259.94 545.245 273.675Z" fill="white"/>
<path d="M510.475 224.099C510.475 243.966 516.134 265.655 529.51 282.387C542.898 299.133 563.99 310.878 594.769 310.878L594.768 310.468L594.768 310.057C564.225 310.057 543.375 298.414 530.153 281.875C516.919 265.321 511.297 243.826 511.297 224.099L510.475 224.099Z" fill="white"/>
<path d="M610.925 310.266V311.089H594.769V310.266H610.925Z" fill="white"/>
<path d="M519.371 209.858C518.794 214.706 518.533 219.05 518.573 223.851C518.574 224.031 518.576 224.21 518.579 224.389C518.639 228.019 518.871 231.375 519.348 235.031C523.067 275.463 563.36 303.621 602.464 303.058C646.737 305.324 691.288 270.128 691.439 224.391C691.715 219.394 691.655 214.892 691.29 209.838C691.563 209.818 691.836 209.797 692.109 209.777C692.477 214.865 692.538 219.4 692.26 224.437C692.131 270.583 647.047 306.2 602.453 303.881C563.065 304.473 522.281 275.996 518.532 235.139C518.05 231.448 517.817 228.062 517.757 224.402C517.754 224.222 517.752 224.04 517.75 223.859C517.711 219.018 517.974 214.64 518.555 209.758C518.827 209.791 519.099 209.825 519.371 209.858Z" fill="white"/>
<path d="M689.869 85.5139H685.958L687.913 88.9528L685.958 90.0317L684.002 86.6265L682.047 90.0317L680.091 88.9528L682.047 85.5139H678.136V83.3225H682.047L680.091 79.8835L682.047 78.8047L684.002 82.2099L685.958 78.8047L687.913 79.8835L685.958 83.3225H689.869V85.5139ZM689.633 72.3314H685.722V70.14H689.633L687.677 66.7011L689.633 65.6222L691.588 69.0274L693.544 65.6222L695.499 66.7011L693.544 70.14H697.455V72.3314H693.544L695.499 75.7703L693.544 76.8492L691.588 73.444L689.633 76.8492L687.677 75.7703L689.633 72.3314ZM693.308 85.5139V83.3225H697.219L695.263 79.8835L697.219 78.8047L699.174 82.2099L701.129 78.8047L703.085 79.8835L701.129 83.3225H705.04V85.5139H701.129L703.085 88.9528L701.129 90.0317L699.174 86.6265L697.219 90.0317L695.263 88.9528L697.219 85.5139H693.308Z" fill="white"/>
<path d="M689.869 225.94H685.958L687.913 229.379L685.958 230.458L684.002 227.053L682.047 230.458L680.091 229.379L682.047 225.94H678.136V223.749H682.047L680.091 220.31L682.047 219.231L684.002 222.636L685.958 219.231L687.913 220.31L685.958 223.749H689.869V225.94ZM689.633 212.758H685.722V210.566H689.633L687.677 207.127L689.633 206.049L691.588 209.454L693.544 206.049L695.499 207.127L693.544 210.566H697.455V212.758H693.544L695.499 216.197L693.544 217.276L691.588 213.87L689.633 217.276L687.677 216.197L689.633 212.758ZM693.308 225.94V223.749H697.219L695.263 220.31L697.219 219.231L699.174 222.636L701.129 219.231L703.085 220.31L701.129 223.749H705.04V225.94H701.129L703.085 229.379L701.129 230.458L699.174 227.053L697.219 230.458L695.263 229.379L697.219 225.94H693.308Z" fill="white"/>
<path d="M517.133 225.94H513.222L515.177 229.379L513.222 230.458L511.266 227.053L509.311 230.458L507.355 229.379L509.311 225.94H505.4V223.749H509.311L507.355 220.31L509.311 219.231L511.266 222.636L513.222 219.231L515.177 220.31L513.222 223.749H517.133V225.94ZM516.897 212.758H512.986V210.566H516.897L514.941 207.127L516.897 206.049L518.852 209.454L520.808 206.049L522.763 207.127L520.808 210.566H524.718V212.758H520.808L522.763 216.197L520.808 217.276L518.852 213.87L516.897 217.276L514.941 216.197L516.897 212.758ZM520.572 225.94V223.749H524.482L522.527 220.31L524.482 219.231L526.438 222.636L528.393 219.231L530.349 220.31L528.393 223.749H532.304V225.94H528.393L530.349 229.379L528.393 230.458L526.438 227.053L524.482 230.458L522.527 229.379L524.482 225.94H520.572Z" fill="white"/>
<path d="M600.394 311.687H596.483L598.439 315.126L596.483 316.205L594.528 312.8L592.572 316.205L590.617 315.126L592.572 311.687H588.661V309.496H592.572L590.617 306.057L592.572 304.978L594.528 308.383L596.483 304.978L598.439 306.057L596.483 309.496H600.394V311.687ZM600.158 298.505H596.247V296.313H600.158L598.203 292.875L600.158 291.796L602.114 295.201L604.069 291.796L606.024 292.875L604.069 296.313H607.98V298.505H604.069L606.024 301.944L604.069 303.023L602.114 299.617L600.158 303.023L598.203 301.944L600.158 298.505ZM603.833 311.687V309.496H607.744L605.788 306.057L607.744 304.978L609.699 308.383L611.655 304.978L613.61 306.057L611.655 309.496H615.566V311.687H611.655L613.61 315.126L611.655 316.205L609.699 312.8L607.744 316.205L605.788 315.126L607.744 311.687H603.833Z" fill="white"/>
<path d="M517.133 85.5139H513.222L515.177 88.9528L513.222 90.0317L511.266 86.6265L509.311 90.0317L507.355 88.9528L509.311 85.5139H505.4V83.3225H509.311L507.355 79.8835L509.311 78.8047L511.266 82.2099L513.222 78.8047L515.177 79.8835L513.222 83.3225H517.133V85.5139ZM516.897 72.3314H512.986V70.14H516.897L514.941 66.7011L516.897 65.6222L518.852 69.0274L520.808 65.6222L522.763 66.7011L520.808 70.14H524.718V72.3314H520.808L522.763 75.7703L520.808 76.8492L518.852 73.444L516.897 76.8492L514.941 75.7703L516.897 72.3314ZM520.572 85.5139V83.3225H524.482L522.527 79.8835L524.482 78.8047L526.438 82.2099L528.393 78.8047L530.349 79.8835L528.393 83.3225H532.304V85.5139H528.393L530.349 88.9528L528.393 90.0317L526.438 86.6265L524.482 90.0317L522.527 88.9528L524.482 85.5139H520.572Z" fill="white"/>
<path d="M689.869 311.687H685.958L687.913 315.126L685.958 316.205L684.002 312.8L682.047 316.205L680.091 315.126L682.047 311.687H678.136V309.496H682.047L680.091 306.057L682.047 304.978L684.002 308.383L685.958 304.978L687.913 306.057L685.958 309.496H689.869V311.687ZM689.633 298.505H685.722V296.313H689.633L687.677 292.875L689.633 291.796L691.588 295.201L693.544 291.796L695.499 292.875L693.544 296.313H697.455V298.505H693.544L695.499 301.944L693.544 303.023L691.588 299.617L689.633 303.023L687.677 301.944L689.633 298.505ZM693.308 311.687V309.496H697.219L695.263 306.057L697.219 304.978L699.174 308.383L701.129 304.978L703.085 306.057L701.129 309.496H705.04V311.687H701.129L703.085 315.126L701.129 316.205L699.174 312.8L697.219 316.205L695.263 315.126L697.219 311.687H693.308Z" fill="white"/>
<path d="M1061.04 167.605H1057.13L1059.09 171.043L1057.13 172.122L1055.18 168.717L1053.22 172.122L1051.27 171.043L1053.22 167.605H1049.31V165.413H1053.22L1051.27 161.974L1053.22 160.895L1055.18 164.301L1057.13 160.895L1059.09 161.974L1057.13 165.413H1061.04V167.605ZM1060.81 154.422H1056.9V152.231H1060.81L1058.85 148.792L1060.81 147.713L1062.76 151.118L1064.72 147.713L1066.68 148.792L1064.72 152.231H1068.63V154.422H1064.72L1066.68 157.861L1064.72 158.94L1062.76 155.535L1060.81 158.94L1058.85 157.861L1060.81 154.422ZM1064.48 167.605V165.413H1068.39L1066.44 161.974L1068.39 160.895L1070.35 164.301L1072.31 160.895L1074.26 161.974L1072.31 165.413H1076.22V167.605H1072.31L1074.26 171.043L1072.31 172.122L1070.35 168.717L1068.39 172.122L1066.44 171.043L1068.39 167.605H1064.48Z" fill="white"/>
<path d="M771.25 296.248H770.839V72.5595H771.25V296.248Z" fill="white"/>
<path d="M915.825 152.093L916.236 152.093L916.236 296.248L915.825 296.248L915.825 152.093Z" fill="white"/>
<path d="M1063.29 296.248L1062.88 296.248L1062.88 152.093L1063.29 152.093L1063.29 296.248Z" fill="white"/>
<path d="M769.007 88.071H765.096L767.052 91.5099L765.096 92.5888L763.141 89.1836L761.186 92.5888L759.23 91.5099L761.186 88.071H757.275V85.8795H761.186L759.23 82.4406L761.186 81.3617L763.141 84.7669L765.096 81.3617L767.052 82.4406L765.096 85.8795H769.007V88.071ZM768.771 74.8885H764.86V72.697H768.771L766.816 69.2581L768.771 68.1793L770.727 71.5845L772.682 68.1793L774.638 69.2581L772.682 72.697H776.593V74.8885H772.682L774.638 78.3274L772.682 79.4063L770.727 76.0011L768.771 79.4063L766.816 78.3274L768.771 74.8885ZM772.446 88.071V85.8795H776.357L774.402 82.4406L776.357 81.3617L778.313 84.7669L780.268 81.3617L782.224 82.4406L780.268 85.8795H784.179V88.071H780.268L782.224 91.5099L780.268 92.5888L778.313 89.1836L776.357 92.5888L774.402 91.5099L776.357 88.071H772.446Z" fill="white"/>
<path d="M914.405 167.605H910.494L912.449 171.043L910.494 172.122L908.538 168.717L906.583 172.122L904.628 171.043L906.583 167.605H902.672V165.413H906.583L904.628 161.974L906.583 160.895L908.538 164.301L910.494 160.895L912.449 161.974L910.494 165.413H914.405V167.605ZM914.169 154.422H910.258V152.231H914.169L912.213 148.792L914.169 147.713L916.124 151.118L918.08 147.713L920.035 148.792L918.08 152.231H921.991V154.422H918.08L920.035 157.861L918.08 158.94L916.124 155.535L914.169 158.94L912.213 157.861L914.169 154.422ZM917.844 167.605V165.413H921.755L919.799 161.974L921.755 160.895L923.71 164.301L925.666 160.895L927.621 161.974L925.666 165.413H929.577V167.605H925.666L927.621 171.043L925.666 172.122L923.71 168.717L921.755 172.122L919.799 171.043L921.755 167.605H917.844Z" fill="white"/>
<path d="M842.327 88.071H838.416L840.372 91.5099L838.416 92.5888L836.461 89.1836L834.505 92.5888L832.55 91.5099L834.505 88.071H830.594V85.8795H834.505L832.55 82.4406L834.505 81.3617L836.461 84.7669L838.416 81.3617L840.372 82.4406L838.416 85.8795H842.327V88.071ZM842.091 74.8885H838.18V72.697H842.091L840.136 69.2581L842.091 68.1793L844.047 71.5845L846.002 68.1793L847.958 69.2581L846.002 72.697H849.913V74.8885H846.002L847.958 78.3274L846.002 79.4063L844.047 76.0011L842.091 79.4063L840.136 78.3274L842.091 74.8885ZM845.766 88.071V85.8795H849.677L847.722 82.4406L849.677 81.3617L851.633 84.7669L853.588 81.3617L855.543 82.4406L853.588 85.8795H857.499V88.071H853.588L855.543 91.5099L853.588 92.5888L851.633 89.1836L849.677 92.5888L847.722 91.5099L849.677 88.071H845.766Z" fill="white"/>
<path d="M987.725 88.071H983.814L985.769 91.5099L983.814 92.5888L981.859 89.1836L979.903 92.5888L977.948 91.5099L979.903 88.071H975.992V85.8795H979.903L977.948 82.4406L979.903 81.3617L981.859 84.7669L983.814 81.3617L985.769 82.4406L983.814 85.8795H987.725V88.071ZM987.489 74.8885H983.578V72.697H987.489L985.533 69.2581L987.489 68.1793L989.444 71.5845L991.4 68.1793L993.355 69.2581L991.4 72.697H995.311V74.8885H991.4L993.355 78.3274L991.4 79.4063L989.444 76.0011L987.489 79.4063L985.533 78.3274L987.489 74.8885ZM991.164 88.071V85.8795H995.075L993.119 82.4406L995.075 81.3617L997.03 84.7669L998.986 81.3617L1000.94 82.4406L998.986 85.8795H1002.9V88.071H998.986L1000.94 91.5099L998.986 92.5888L997.03 89.1836L995.075 92.5888L993.119 91.5099L995.075 88.071H991.164Z" fill="white"/>
<path d="M769.007 167.605H765.096L767.052 171.043L765.096 172.122L763.141 168.717L761.186 172.122L759.23 171.043L761.186 167.605H757.275V165.413H761.186L759.23 161.974L761.186 160.895L763.141 164.301L765.096 160.895L767.052 161.974L765.096 165.413H769.007V167.605ZM768.771 154.422H764.86V152.231H768.771L766.816 148.792L768.771 147.713L770.727 151.118L772.682 147.713L774.638 148.792L772.682 152.231H776.593V154.422H772.682L774.638 157.861L772.682 158.94L770.727 155.535L768.771 158.94L766.816 157.861L768.771 154.422ZM772.446 167.605V165.413H776.357L774.402 161.974L776.357 160.895L778.313 164.301L780.268 160.895L782.224 161.974L780.268 165.413H784.179V167.605H780.268L782.224 171.043L780.268 172.122L778.313 168.717L776.357 172.122L774.402 171.043L776.357 167.605H772.446Z" fill="white"/>
<path d="M769.007 311.759H765.096L767.052 315.198L765.096 316.277L763.141 312.872L761.186 316.277L759.23 315.198L761.186 311.759H757.275V309.568H761.186L759.23 306.129L761.186 305.05L763.141 308.455L765.096 305.05L767.052 306.129L765.096 309.568H769.007V311.759ZM768.771 298.577H764.86V296.385H768.771L766.816 292.946L768.771 291.867L770.727 295.273L772.682 291.867L774.638 292.946L772.682 296.385H776.593V298.577H772.682L774.638 302.016L772.682 303.094L770.727 299.689L768.771 303.094L766.816 302.016L768.771 298.577ZM772.446 311.759V309.568H776.357L774.402 306.129L776.357 305.05L778.313 308.455L780.268 305.05L782.224 306.129L780.268 309.568H784.179V311.759H780.268L782.224 315.198L780.268 316.277L778.313 312.872L776.357 316.277L774.402 315.198L776.357 311.759H772.446Z" fill="white"/>
<path d="M914.405 311.759H910.494L912.449 315.198L910.494 316.277L908.538 312.872L906.583 316.277L904.628 315.198L906.583 311.759H902.672V309.568H906.583L904.628 306.129L906.583 305.05L908.538 308.455L910.494 305.05L912.449 306.129L910.494 309.568H914.405V311.759ZM914.169 298.577H910.258V296.385H914.169L912.213 292.946L914.169 291.867L916.124 295.273L918.08 291.867L920.035 292.946L918.08 296.385H921.991V298.577H918.08L920.035 302.016L918.08 303.094L916.124 299.689L914.169 303.094L912.213 302.016L914.169 298.577ZM917.844 311.759V309.568H921.755L919.799 306.129L921.755 305.05L923.71 308.455L925.666 305.05L927.621 306.129L925.666 309.568H929.577V311.759H925.666L927.621 315.198L925.666 316.277L923.71 312.872L921.755 316.277L919.799 315.198L921.755 311.759H917.844Z" fill="white"/>
<path d="M1061.04 311.759H1057.13L1059.09 315.198L1057.13 316.277L1055.18 312.872L1053.22 316.277L1051.27 315.198L1053.22 311.759H1049.31V309.568H1053.22L1051.27 306.129L1053.22 305.05L1055.18 308.455L1057.13 305.05L1059.09 306.129L1057.13 309.568H1061.04V311.759ZM1060.81 298.577H1056.9V296.385H1060.81L1058.85 292.946L1060.81 291.867L1062.76 295.273L1064.72 291.867L1066.68 292.946L1064.72 296.385H1068.63V298.577H1064.72L1066.68 302.016L1064.72 303.094L1062.76 299.689L1060.81 303.094L1058.85 302.016L1060.81 298.577ZM1064.48 311.759V309.568H1068.39L1066.44 306.129L1068.39 305.05L1070.35 308.455L1072.31 305.05L1074.26 306.129L1072.31 309.568H1076.22V311.759H1072.31L1074.26 315.198L1072.31 316.277L1070.35 312.872L1068.39 316.277L1066.44 315.198L1068.39 311.759H1064.48Z" fill="white"/>
<path d="M762.962 309.918L762.139 309.918L762.139 86.2295L762.962 86.2295L762.962 309.918Z" fill="white"/>
<path d="M779.117 309.918L778.295 309.918L778.295 86.2295L779.117 86.2295L779.117 309.918Z" fill="white"/>
<path d="M770.427 72.5597H770.839V296.248H770.427V72.5597Z" fill="white"/>
<path d="M916.647 296.248L916.236 296.248L916.236 152.093L916.647 152.093L916.647 296.248Z" fill="white"/>
<path d="M907.958 165.762L908.78 165.762L908.78 309.918L907.958 309.918L907.958 165.762Z" fill="white"/>
<path d="M924.112 165.762L924.935 165.762L924.935 309.918L924.112 309.918L924.112 165.762Z" fill="white"/>
<path d="M1054.6 165.762L1055.42 165.762L1055.42 309.918L1054.6 309.918L1054.6 165.762Z" fill="white"/>
<path d="M1070.75 165.762L1071.58 165.762L1071.58 309.918L1070.75 309.918L1070.75 165.762Z" fill="white"/>
<path d="M1062.46 152.093L1062.88 152.093L1062.88 296.248L1062.46 296.248L1062.46 152.093Z" fill="white"/>
<path d="M844.138 72.1498C892.919 69.648 926.594 112.804 924.725 165.778L924.314 165.762L923.903 165.749C925.761 113.092 892.329 70.5011 844.179 72.9705L844.138 72.1498Z" fill="white"/>
<path d="M852.136 85.4559C871.948 86.266 886.069 98.123 895.218 113.861C904.363 129.591 908.569 149.238 908.569 165.763L907.748 165.762C907.747 149.356 903.566 129.858 894.507 114.275C885.452 98.6988 871.553 87.0735 852.104 86.278L852.12 85.8665L852.136 85.4559Z" fill="white"/>
<path d="M989.535 72.1498C1038.31 69.6484 1073.23 112.794 1071.36 165.776L1070.95 165.763L1070.54 165.747C1072.4 113.101 1037.73 70.4998 989.577 72.9694L989.557 72.5591L989.535 72.1498Z" fill="white"/>
<path d="M997.028 85.197C1016.84 86.007 1031.39 97.9259 1040.98 113.724C1050.56 129.518 1055.21 149.231 1055.21 165.763L1054.8 165.762L1054.39 165.763C1054.39 149.363 1049.77 129.801 1040.28 114.151C1030.78 98.5073 1016.45 86.8148 996.996 86.0191L997.012 85.6085L997.028 85.197Z" fill="white"/>
<path d="M941.178 110.654C951.775 95.9844 966.327 86.3184 982.087 85.8184L982.099 86.2301L982.113 86.6405C966.685 87.13 952.344 96.6006 941.845 111.135C931.349 125.665 924.725 145.216 924.725 165.762L924.314 165.763L923.901 165.763C923.901 145.047 930.579 125.327 941.178 110.654Z" fill="white"/>
<path d="M927.498 100.197C941.223 82.2083 962.011 70.4874 989.58 72.1497L989.532 72.97C962.257 71.3254 941.724 82.9053 928.151 100.694C914.568 118.497 907.95 142.53 908.569 165.753L907.747 165.773C907.124 142.395 913.783 118.172 927.498 100.197Z" fill="white"/>
<path d="M795.781 110.654C806.377 95.9844 820.929 86.3184 836.689 85.8184L836.702 86.2301L836.715 86.6405C821.287 87.13 806.947 96.6006 796.447 111.135C785.951 125.665 779.328 145.216 779.327 165.762L778.916 165.763L778.504 165.763C778.504 145.047 785.181 125.327 795.781 110.654Z" fill="white"/>
<path d="M783.329 99.9623C797.57 82.0913 818.872 70.4871 846.438 72.1494L846.412 72.5597L846.388 72.9698C819.11 71.3251 798.06 82.7946 783.972 100.474C769.875 118.164 762.745 142.081 763.364 165.297L762.954 165.308L762.543 165.318C761.92 141.933 769.097 117.822 783.329 99.9623Z" fill="white"/>
<path d="M851.615 85.4071V86.2294H836.702V85.4071H851.615Z" fill="white"/>
<path d="M997.012 85.4071V86.2294H982.1V85.4071H997.012Z" fill="white"/>
</g>
<defs>
<clipPath id="clip0_176_3071">
<rect width="1077" height="317" fill="white"/>
</clipPath>
</defs>
</svg>
