<svg width="247" height="144" viewBox="0 0 247 144" fill="none" xmlns="http://www.w3.org/2000/svg">
<g clip-path="url(#clip0_176_2591)">
<rect width="247" height="144" fill="#001A3D"/>
<path d="M98.565 47.79H96.54V46.683H98.5785L97.566 44.9415L98.5245 44.388L99.537 46.143L100.55 44.388L101.508 44.9415L100.496 46.683H102.534V47.79H100.509L101.522 49.5315L100.563 50.085L99.537 48.33L98.511 50.085L97.5525 49.5315L98.565 47.79Z" fill="white"/>
<path d="M25.565 3.79H23.54V2.683H25.5785L24.566 0.9415L25.5245 0.388L26.537 2.143L27.5495 0.388L28.508 0.9415L27.4955 2.683H29.534V3.79H27.509L28.5215 5.5315L27.563 6.085L26.537 4.33L25.511 6.085L24.5525 5.5315L25.565 3.79Z" fill="white"/>
<path d="M2.565 59.79H0.54L0.54 58.683H2.5785L1.566 56.9415L2.5245 56.388L3.537 58.143L4.5495 56.388L5.508 56.9415L4.4955 58.683H6.534V59.79H4.509L5.5215 61.5315L4.563 62.085L3.537 60.33L2.511 62.085L1.5525 61.5315L2.565 59.79Z" fill="white"/>
<path d="M110.565 94.79H108.54V93.683H110.579L109.566 91.9415L110.525 91.388L111.537 93.143L112.55 91.388L113.508 91.9415L112.496 93.683H114.534V94.79H112.509L113.522 96.5315L112.563 97.085L111.537 95.33L110.511 97.085L109.553 96.5315L110.565 94.79Z" fill="white"/>
<path d="M123.565 99.79H121.54V98.683H123.579L122.566 96.9415L123.525 96.388L124.537 98.143L125.55 96.388L126.508 96.9415L125.496 98.683H127.534V99.79H125.509L126.522 101.531L125.563 102.085L124.537 100.33L123.511 102.085L122.553 101.531L123.565 99.79Z" fill="white"/>
<path d="M173.565 119.79H171.54V118.683H173.579L172.566 116.941L173.525 116.388L174.537 118.143L175.55 116.388L176.508 116.941L175.496 118.683H177.534V119.79H175.509L176.522 121.531L175.563 122.085L174.537 120.33L173.511 122.085L172.553 121.531L173.565 119.79Z" fill="white"/>
<path d="M242.565 140.79H240.54V139.683H242.579L241.566 137.941L242.525 137.388L243.537 139.143L244.55 137.388L245.508 137.941L244.496 139.683H246.534V140.79H244.509L245.522 142.531L244.563 143.085L243.537 141.33L242.511 143.085L241.553 142.531L242.565 140.79Z" fill="white"/>
<path d="M139.565 99.79H137.54V98.683H139.579L138.566 96.9415L139.525 96.388L140.537 98.143L141.55 96.388L142.508 96.9415L141.496 98.683H143.534V99.79H141.509L142.522 101.531L141.563 102.085L140.537 100.33L139.511 102.085L138.553 101.531L139.565 99.79Z" fill="white"/>
<path d="M186.565 32.79H184.54V31.683H186.579L185.566 29.9415L186.525 29.388L187.537 31.143L188.55 29.388L189.508 29.9415L188.496 31.683H190.534V32.79H188.509L189.522 34.5315L188.563 35.085L187.537 33.33L186.511 35.085L185.553 34.5315L186.565 32.79Z" fill="white"/>
<path d="M121.565 71.79H119.54V70.683H121.579L120.566 68.9415L121.525 68.388L122.537 70.143L123.55 68.388L124.508 68.9415L123.496 70.683H125.534V71.79H123.509L124.522 73.5315L123.563 74.085L122.537 72.33L121.511 74.085L120.553 73.5315L121.565 71.79Z" fill="white"/>
<path d="M125.565 81.79H123.54V80.683H125.579L124.566 78.9415L125.525 78.388L126.537 80.143L127.55 78.388L128.508 78.9415L127.496 80.683H129.534V81.79H127.509L128.522 83.5315L127.563 84.085L126.537 82.33L125.511 84.085L124.553 83.5315L125.565 81.79Z" fill="white"/>
<path d="M135.565 85.79H133.54V84.683H135.579L134.566 82.9415L135.525 82.388L136.537 84.143L137.55 82.388L138.508 82.9415L137.496 84.683H139.534V85.79H137.509L138.522 87.5315L137.563 88.085L136.537 86.33L135.511 88.085L134.553 87.5315L135.565 85.79Z" fill="white"/>
<path d="M3.49994 59.5L111.5 94" stroke="white" stroke-width="0.5"/>
<path d="M26.5 3.5L100 47.5" stroke="white" stroke-width="0.5"/>
<path d="M99.5001 47L122.5 71.4999" stroke="white" stroke-width="0.5"/>
<path d="M122.5 71L126.5 81.5" stroke="white" stroke-width="0.5"/>
<path d="M126.5 81.5L136.5 85" stroke="white" stroke-width="0.5"/>
<path d="M243.5 140.5L174.5 119.5" stroke="white" stroke-width="0.5"/>
<path d="M140.5 99.5H124.5" stroke="white" stroke-width="0.5"/>
<path d="M111.5 94L124.5 99.4999" stroke="white" stroke-width="0.5"/>
<path d="M136.5 84.9999L140.5 99.5" stroke="white" stroke-width="0.5"/>
<path d="M140.5 99.5L174.5 119.5" stroke="white" stroke-width="0.5"/>
<path d="M122.5 71.5L111.5 94.5" stroke="white" stroke-width="0.5"/>
<path d="M136.5 85L187.5 32.5" stroke="white"/>
</g>
<defs>
<clipPath id="clip0_176_2591">
<rect width="247" height="144" fill="white"/>
</clipPath>
</defs>
</svg>
