<svg width="156" height="160" viewBox="0 0 156 160" fill="none" xmlns="http://www.w3.org/2000/svg">
<g clip-path="url(#clip0_176_1871)">
<rect width="156" height="160" fill="#001A3D"/>
<path d="M39.7907 102.229L38.749 101.059L38.2416 102.56L37.3982 102.263L37.8956 100.771L36.3566 101.093L36.1584 100.221L37.7074 99.89L36.6658 98.7206L37.321 98.1369L38.3626 99.3063L38.8701 97.8057L39.7134 98.103L39.2161 99.5946L40.7551 99.2724L40.9533 100.144L39.4043 100.476L40.4459 101.645L39.7907 102.229ZM41.6489 96.379L40.6073 95.2096L41.2625 94.626L42.3042 95.7953L42.8116 94.2947L43.655 94.5921L43.1576 96.0837L44.6966 95.7614L44.8948 96.6334L43.3458 96.9647L44.3874 98.134L43.7322 98.7177L42.6905 97.5483L42.1831 99.0489L41.3397 98.7516L41.8371 97.26L40.2981 97.5822L40.0999 96.7102L41.6489 96.379Z" fill="white"/>
<path d="M150.044 88.414H148.536L149.29 89.74L148.536 90.156L147.782 88.843L147.028 90.156L146.274 89.74L147.028 88.414H145.52V87.569H147.028L146.274 86.243L147.028 85.827L147.782 87.14L148.536 85.827L149.29 86.243L148.536 87.569H150.044V88.414ZM149.953 83.331H148.445V82.486H149.953L149.199 81.16L149.953 80.744L150.707 82.057L151.461 80.744L152.215 81.16L151.461 82.486H152.969V83.331H151.461L152.215 84.657L151.461 85.073L150.707 83.76L149.953 85.073L149.199 84.657L149.953 83.331ZM151.37 88.414V87.569H152.878L152.124 86.243L152.878 85.827L153.632 87.14L154.386 85.827L155.14 86.243L154.386 87.569H155.894V88.414H154.386L155.14 89.74L154.386 90.156L153.632 88.843L152.878 90.156L152.124 89.74L152.878 88.414H151.37Z" fill="white"/>
<path d="M103.731 64.1822H102.223L102.977 65.5082L102.223 65.9242L101.469 64.6112L100.715 65.9242L99.9613 65.5082L100.715 64.1822H99.2073V63.3372H100.715L99.9613 62.0112L100.715 61.5952L101.469 62.9082L102.223 61.5952L102.977 62.0112L102.223 63.3372H103.731V64.1822ZM103.64 59.0992H102.132V58.2542H103.64L102.886 56.9282L103.64 56.5122L104.394 57.8252L105.148 56.5122L105.902 56.9282L105.148 58.2542H106.656V59.0992H105.148L105.902 60.4252L105.148 60.8412L104.394 59.5282L103.64 60.8412L102.886 60.4252L103.64 59.0992ZM105.057 64.1822V63.3372H106.565L105.811 62.0112L106.565 61.5952L107.319 62.9082L108.073 61.5952L108.827 62.0112L108.073 63.3372H109.581V64.1822H108.073L108.827 65.5082L108.073 65.9242L107.319 64.6112L106.565 65.9242L105.811 65.5082L106.565 64.1822H105.057Z" fill="white"/>
<path d="M2.47 157.02H0.52V155.954H2.483L1.508 154.277L2.431 153.744L3.406 155.434L4.381 153.744L5.304 154.277L4.329 155.954H6.292V157.02H4.342L5.317 158.697L4.394 159.23L3.406 157.54L2.418 159.23L1.495 158.697L2.47 157.02Z" fill="white"/>
<path d="M52.47 133.02H50.52V131.954H52.483L51.508 130.277L52.431 129.744L53.406 131.434L54.381 129.744L55.304 130.277L54.329 131.954H56.292V133.02H54.342L55.317 134.697L54.394 135.23L53.406 133.54L52.418 135.23L51.495 134.697L52.47 133.02Z" fill="white"/>
<path d="M133.47 62.02H131.52V60.954H133.483L132.508 59.277L133.431 58.744L134.406 60.434L135.381 58.744L136.304 59.277L135.329 60.954H137.292V62.02H135.342L136.317 63.697L135.394 64.23L134.406 62.54L133.418 64.23L132.495 63.697L133.47 62.02Z" fill="white"/>
<path d="M106.47 4.02H104.52V2.954H106.483L105.508 1.277L106.431 0.744L107.406 2.434L108.381 0.744L109.304 1.277L108.329 2.954H110.292V4.02H108.342L109.317 5.697L108.394 6.23L107.406 4.54L106.418 6.23L105.495 5.697L106.47 4.02Z" fill="white"/>
<path d="M126.47 8.02H124.52V6.954H126.483L125.508 5.277L126.431 4.744L127.406 6.434L128.381 4.744L129.304 5.277L128.329 6.954H130.292V8.02H128.342L129.317 9.697L128.394 10.23L127.406 8.54L126.418 10.23L125.495 9.697L126.47 8.02Z" fill="white"/>
<path d="M92.47 39.02H90.52V37.954H92.483L91.508 36.277L92.431 35.744L93.406 37.434L94.381 35.744L95.304 36.277L94.329 37.954H96.292V39.02H94.342L95.317 40.697L94.394 41.23L93.406 39.54L92.418 41.23L91.495 40.697L92.47 39.02Z" fill="white"/>
<path d="M127.5 7.50001L107.5 3.5" stroke="white" stroke-width="0.5"/>
<path d="M3.49993 156.5L52.9999 132.5" stroke="white" stroke-width="0.5"/>
<path d="M3.49988 156.5L38.4999 100" stroke="white" stroke-width="0.5"/>
<path d="M42.5 96.5L101.878 63.7818" stroke="white" stroke-width="0.5"/>
<path d="M53.5001 132.5L148 88" stroke="white" stroke-width="0.5"/>
<path d="M38.5001 100.5L42.5001 96.8" stroke="white" stroke-width="0.5"/>
<path d="M107.5 64L134.5 61.5" stroke="white" stroke-width="0.5"/>
<line x1="150.798" y1="83.147" x2="134.798" y2="61.147" stroke="white" stroke-width="0.5"/>
<path d="M151 82.5L147.5 88.5" stroke="white" stroke-width="0.5"/>
<line x1="104.214" y1="58.8714" x2="107.214" y2="63.8714" stroke="white" stroke-width="0.5"/>
<line x1="102" y1="63.75" x2="108" y2="63.75" stroke="white" stroke-width="0.5"/>
<path d="M93.5001 38.5L104.5 58.9999" stroke="white" stroke-width="0.5"/>
<path d="M107.5 3.5L93.4999 39" stroke="white" stroke-width="0.5"/>
</g>
<defs>
<clipPath id="clip0_176_1871">
<rect width="156" height="160" fill="white"/>
</clipPath>
</defs>
</svg>
