<svg width="385" height="543" viewBox="0 0 385 543" fill="none" xmlns="http://www.w3.org/2000/svg">
<path d="M356.25 20.25V542.25H0.25V20.25H356.25Z" fill="#CDA170" stroke="#826346" stroke-width="0.5"/>
<path d="M141.671 451.25V532.397H137.75V451.25H141.671Z" fill="#8C6A4E" stroke="#826346" stroke-width="0.5"/>
<path d="M349.344 450.904V532.052H345.423V450.904H349.344Z" fill="#8C6A4E" stroke="#826346" stroke-width="0.5"/>
<path d="M348.25 455.75H137.75V450.75H348.25V455.75Z" fill="#8C6A4E" stroke="#826346" stroke-width="0.5"/>
<path d="M349.25 532.25H137.75V527.25H349.25V532.25Z" fill="#8C6A4E" stroke="#826346" stroke-width="0.5"/>
<path d="M147.575 505.5L157.037 490.56L148.114 476.45H154.837L160.398 485.248L166.001 476.45H172.724L163.76 490.56L173.263 505.5H166.54L160.398 495.872L154.298 505.5H147.575ZM177.4 505.5V476.45H190.389C192.879 476.45 195.023 477.349 196.822 479.147C198.62 480.946 199.519 483.09 199.519 485.58C199.519 488.07 198.62 490.214 196.822 492.012C195.023 493.811 192.879 494.71 190.389 494.71H183.127V505.5H177.4ZM192.589 488.236C193.391 487.517 193.792 486.631 193.792 485.58C193.792 484.529 193.391 483.643 192.589 482.924C191.786 482.205 190.86 481.845 189.808 481.845H183.127V489.315H189.808C190.86 489.315 191.786 488.955 192.589 488.236ZM226.129 476.45L216.294 500.727C215.63 502.36 214.634 503.646 213.306 504.587C212.005 505.528 210.47 505.998 208.699 505.998C207.62 505.998 206.638 505.874 205.753 505.625V500.271C206.583 500.492 207.482 500.603 208.45 500.603C209.529 500.603 210.318 500.077 210.816 499.026L211.106 498.403L201.395 476.45H207.537L214.011 491.182L220.07 476.45H226.129ZM253.196 505.5H247.469V481.845H236.015V505.5H230.288V476.45H253.196V505.5ZM277.366 476.45H285.542L272.469 489.273L285.708 505.5H278.238L268.361 493.34L266.452 495.208V505.5H260.683V476.45H266.452V487.157L277.366 476.45ZM292.33 478.151C294.405 476.685 296.659 475.952 299.094 475.952C301.529 475.952 303.784 476.685 305.859 478.151C307.934 479.59 309.552 481.471 310.714 483.795C311.876 486.092 312.457 488.485 312.457 490.975C312.457 493.465 311.876 495.872 310.714 498.196C309.552 500.492 307.934 502.374 305.859 503.84C303.784 505.279 301.529 505.998 299.094 505.998C296.659 505.998 294.405 505.279 292.33 503.84C290.255 502.374 288.636 500.492 287.474 498.196C286.312 495.872 285.731 493.465 285.731 490.975C285.731 488.485 286.312 486.092 287.474 483.795C288.636 481.471 290.255 479.59 292.33 478.151ZM293.658 497.573C295.152 499.593 296.964 500.603 299.094 500.603C301.224 500.603 303.023 499.593 304.489 497.573C305.983 495.554 306.73 493.354 306.73 490.975C306.73 488.596 305.983 486.396 304.489 484.376C303.023 482.357 301.224 481.347 299.094 481.347C296.964 481.347 295.152 482.357 293.658 484.376C292.191 486.396 291.458 488.596 291.458 490.975C291.458 493.354 292.191 495.554 293.658 497.573ZM338.981 481.845H324V487.904H336.367V493.299H324V500.105H338.981V505.5H318.273V476.45H338.981V481.845Z" fill="black"/>
<path d="M127.5 339C127.5 334.858 130.858 331.5 135 331.5H222.5C226.642 331.5 230 334.858 230 339V387.515C230 389.9 228.865 392.144 226.943 393.557L183.193 425.732C180.55 427.676 176.95 427.676 174.307 425.732L130.557 393.557C128.635 392.144 127.5 389.9 127.5 387.515V339Z" fill="#826346"/>
<path d="M178.75 355C207.055 355 230 346.382 230 335.75C230 329.828 222.881 324.531 211.683 321C211.683 342 190.039 337.25 177.5 337.25C164.812 337.25 145.25 336.5 145.25 321C134.234 324.531 127.5 329.885 127.5 335.75C127.5 346.382 150.445 355 178.75 355Z" fill="#CDA170"/>
<path d="M178.25 60C236.108 60 288.5 106.988 288.5 163.75C288.5 193.44 283.102 209.462 275.121 222.013C271.012 228.475 266.077 234.239 260.268 240.713C254.532 247.105 247.932 254.198 241.108 262.858L240.968 263.038L240.837 263.226C232.165 275.729 227.827 287.322 225.079 297.508C223.723 302.533 222.747 307.255 221.868 311.361C220.967 315.572 220.185 319.049 219.185 322.104C217.297 327.871 214.867 331.472 209.96 334.062C204.466 336.962 195.098 339 178.25 339C161.298 339 152.085 337.16 146.795 334.491C142.227 332.187 140.078 329.018 138.354 323.51C134.79 312.127 133.983 289.442 115.647 263.204C111.531 257.314 106.108 252.131 101.037 247.193C95.8046 242.098 90.5889 236.943 85.8271 230.551C76.5461 218.092 68.5 200.251 68.5 169C68.5 111.762 120.889 60 178.25 60Z" stroke="#826346" stroke-width="15"/>
<path d="M384.75 522.369L356.75 542.019V20.1299L384.75 0.480469V522.369Z" fill="#CDA170" stroke="#826346" stroke-width="0.5"/>
<path d="M384.208 0.25L356.422 19.749H0.791992L28.5791 0.25H384.208Z" fill="#CDA170" stroke="#826346" stroke-width="0.5"/>
</svg>
