<svg width="385" height="543" viewBox="0 0 385 543" fill="none" xmlns="http://www.w3.org/2000/svg">
<path d="M356.25 20.25V542.25H0.25V20.25H356.25Z" fill="#CDA170" stroke="#826346" stroke-width="0.5"/>
<path d="M141.671 451.25V532.397H137.75V451.25H141.671Z" fill="#8C6A4E" stroke="#826346" stroke-width="0.5"/>
<path d="M349.344 450.904V532.052H345.423V450.904H349.344Z" fill="#8C6A4E" stroke="#826346" stroke-width="0.5"/>
<path d="M348.25 455.75H137.75V450.75H348.25V455.75Z" fill="#8C6A4E" stroke="#826346" stroke-width="0.5"/>
<path d="M349.25 532.25H137.75V527.25H349.25V532.25Z" fill="#8C6A4E" stroke="#826346" stroke-width="0.5"/>
<path d="M127.5 339C127.5 334.858 130.858 331.5 135 331.5H222.5C226.642 331.5 230 334.858 230 339V387.515C230 389.9 228.865 392.144 226.943 393.557L183.193 425.732C180.55 427.676 176.95 427.676 174.307 425.732L130.557 393.557C128.635 392.144 127.5 389.9 127.5 387.515V339Z" fill="#826346"/>
<path d="M178.75 355C207.055 355 230 346.382 230 335.75C230 329.828 222.881 324.531 211.683 321C211.683 342 190.039 337.25 177.5 337.25C164.812 337.25 145.25 336.5 145.25 321C134.234 324.531 127.5 329.885 127.5 335.75C127.5 346.382 150.445 355 178.75 355Z" fill="#CDA170"/>
<path d="M178.25 60C236.108 60 288.5 106.988 288.5 163.75C288.5 193.44 283.102 209.462 275.121 222.013C271.012 228.475 266.077 234.239 260.268 240.713C254.532 247.105 247.932 254.198 241.108 262.858L240.968 263.038L240.837 263.226C232.165 275.729 227.827 287.322 225.079 297.508C223.723 302.533 222.747 307.255 221.868 311.361C220.967 315.572 220.185 319.049 219.185 322.104C217.297 327.871 214.867 331.472 209.96 334.062C204.466 336.962 195.098 339 178.25 339C161.298 339 152.085 337.16 146.795 334.491C142.227 332.187 140.078 329.018 138.354 323.51C134.79 312.127 133.983 289.442 115.647 263.204C111.531 257.314 106.108 252.131 101.037 247.193C95.8046 242.098 90.5889 236.943 85.8271 230.551C76.5461 218.092 68.5 200.251 68.5 169C68.5 111.762 120.889 60 178.25 60Z" stroke="#826346" stroke-width="15"/>
<path d="M384.75 522.369L356.75 542.019V20.1299L384.75 0.480469V522.369Z" fill="#CDA170" stroke="#826346" stroke-width="0.5"/>
<path d="M384.208 0.25L356.422 19.749H0.791992L28.5791 0.25H384.208Z" fill="#CDA170" stroke="#826346" stroke-width="0.5"/>
</svg>
