<svg width="722" height="577" viewBox="0 0 722 577" fill="none" xmlns="http://www.w3.org/2000/svg">
<path d="M210 191.489V203H380L372.511 194.831L363.15 102H236.96L215.242 185.548L210 191.489Z" fill="#CDA170" stroke="#826346"/>
<path d="M719 191.489V203H550L557.445 194.831L566.751 102H692.198L713.789 185.548L719 191.489Z" fill="#CDA170" stroke="#826346"/>
<path d="M719 386.765V374H550L557.445 383.059L566.751 486H692.198L713.789 393.353L719 386.765Z" fill="#CDA170" stroke="#826346"/>
<path d="M211 386.765V374H381L373.511 383.059L364.15 486H237.96L216.242 393.353L211 386.765Z" fill="#CDA170" stroke="#826346"/>
<rect x="380.5" y="202.5" width="170" height="172" fill="#CDA170" stroke="#826346"/>
<rect x="550.5" y="202.5" width="171" height="172" fill="#CDA170" stroke="#826346"/>
<rect x="380.5" y="374.5" width="170" height="171" fill="#CDA170" stroke="#826346"/>
<rect x="208.5" y="202.5" width="172" height="172" fill="#CDA170" stroke="#826346"/>
<rect x="380.5" y="31.5" width="170" height="171" fill="#CDA170" stroke="#826346"/>
<rect x="38.5" y="202.5" width="170" height="172" fill="#CDA170" stroke="#826346"/>
<path d="M550.5 545.5V549C550.5 564.188 538.188 576.5 523 576.5H408C392.812 576.5 380.5 564.188 380.5 549V545.5H550.5Z" fill="#CDA170" stroke="#826346"/>
<path d="M380.5 31.5V28C380.5 12.8122 392.812 0.5 408 0.5H523C538.188 0.5 550.5 12.8122 550.5 28V31.5H380.5Z" fill="#CDA170" stroke="#826346"/>
<path d="M38.5 374.348L0.5 364.087L0.5 212.541L38.5 202.646L38.5 374.348Z" fill="#CDA170" stroke="#826346"/>
</svg>
