<svg width="1280" height="800" viewBox="0 0 1280 800" fill="none" xmlns="http://www.w3.org/2000/svg">
<path d="M883.843 246.241C903.035 237.087 911.173 214.109 902.02 194.917C892.867 175.725 869.889 167.587 850.697 176.74C831.505 185.893 823.366 208.871 832.519 228.063C841.673 247.256 864.651 255.394 883.843 246.241Z" fill="#FFF831"/>
<path d="M837.782 149.662C856.974 140.509 865.113 117.531 855.959 98.3385C846.806 79.1465 823.828 71.0083 804.636 80.1614C785.444 89.3146 777.306 112.293 786.459 131.485C795.612 150.677 818.59 158.815 837.782 149.662Z" fill="#FFF831"/>
<mask id="mask0_408_1321" style="mask-type:alpha" maskUnits="userSpaceOnUse" x="599" y="26" width="330" height="349">
<path d="M808.377 281.793C831.236 270.891 843.86 250.148 846.248 219.565L892.39 197.559C894.274 224.026 889.618 248.763 878.421 271.77C867.223 294.777 850.336 311.664 827.759 322.432C797.28 336.968 765.326 336.792 731.899 321.904C698.472 307.016 674.087 283.486 658.743 251.314C643.399 219.141 640.462 185.382 649.931 150.036C659.401 114.69 679.375 89.7485 709.854 75.2123C732.431 64.4447 756.183 61.9504 781.109 67.7293C806.035 73.5082 828.189 85.4589 847.57 103.581L801.428 125.588C776.159 108.194 752.095 104.949 729.236 115.851C710.327 124.869 698.414 141.289 693.494 165.113C688.723 188.519 691.25 210.523 701.075 231.125C710.9 251.726 726.476 267.68 747.803 278.986C769.277 289.875 789.469 290.811 808.377 281.793Z" fill="white"/>
</mask>
<g mask="url(#mask0_408_1321)">
<path d="M883.843 246.241C903.035 237.087 911.173 214.109 902.02 194.917C892.867 175.725 869.889 167.587 850.697 176.74C831.505 185.893 823.366 208.871 832.519 228.063C841.673 247.256 864.651 255.394 883.843 246.241Z" fill="#CDA170"/>
<path d="M837.782 149.662C856.974 140.509 865.113 117.53 855.959 98.3384C846.806 79.1464 823.828 71.0082 804.636 80.1613C785.444 89.3144 777.306 112.293 786.459 131.485C795.612 150.677 818.59 158.815 837.782 149.662Z" fill="#CDA170"/>
</g>
<rect x="802.622" y="128.208" width="51.5" height="3" transform="rotate(-25.4975 802.622 128.208)" fill="#CDA170"/>
<rect x="843.732" y="214.406" width="51.5" height="3" transform="rotate(-25.4975 843.732 214.406)" fill="#CDA170"/>
<circle cx="376.813" cy="371.5" r="38.5" fill="#FFF831"/>
<mask id="mask1_408_1321" style="mask-type:alpha" maskUnits="userSpaceOnUse" x="181" y="287" width="225" height="275">
<path d="M278.532 402.168H310.893C337.157 402.168 359.357 409.047 377.491 422.804C395.626 436.249 404.693 454.071 404.693 476.27C404.693 500.345 393.906 520.669 372.332 537.24C350.758 553.499 326.214 561.628 298.699 561.628C272.123 561.628 248.36 553.811 227.411 538.178C206.775 522.232 191.611 501.752 181.918 476.739H232.101C238.667 488.933 247.891 498.626 259.772 505.817C271.966 513.008 285.411 516.604 300.106 516.604C314.802 516.604 328.09 512.696 339.971 504.879C351.853 497.062 357.793 487.839 357.793 477.208C357.793 467.203 353.729 459.699 345.599 454.696C337.47 449.693 327.308 447.192 315.114 447.192H282.284C256.02 447.192 234.134 440.939 216.624 428.432C199.428 415.613 190.829 397.947 190.829 375.435C190.829 350.734 201.147 329.942 221.783 313.058C242.419 296.174 266.026 287.732 292.602 287.732C318.866 287.732 342.004 295.705 362.014 311.651C382.025 327.284 396.564 347.608 405.631 372.621H355.448C349.508 360.427 340.909 350.734 329.653 343.543C318.71 336.352 306.36 332.756 292.602 332.756C277.594 332.756 264.619 336.664 253.675 344.481C243.045 352.298 237.729 361.99 237.729 373.559C237.729 382.939 241.638 390.13 249.454 395.133C257.271 399.823 266.964 402.168 278.532 402.168Z" fill="white"/>
</mask>
<g mask="url(#mask1_408_1321)">
<circle cx="376.813" cy="371.5" r="38.5" fill="#CDA170"/>
</g>
<circle cx="344.313" cy="477" r="38.5" fill="#FFF831"/>
<mask id="mask2_408_1321" style="mask-type:alpha" maskUnits="userSpaceOnUse" x="181" y="287" width="225" height="275">
<path d="M278.532 402.168H310.893C337.157 402.168 359.357 409.047 377.491 422.804C395.626 436.249 404.693 454.071 404.693 476.27C404.693 500.345 393.906 520.669 372.332 537.24C350.758 553.499 326.214 561.628 298.699 561.628C272.123 561.628 248.36 553.811 227.411 538.178C206.775 522.232 191.611 501.752 181.918 476.739H232.101C238.667 488.933 247.891 498.626 259.772 505.817C271.966 513.008 285.411 516.604 300.106 516.604C314.802 516.604 328.09 512.696 339.971 504.879C351.853 497.062 357.793 487.839 357.793 477.208C357.793 467.203 353.729 459.699 345.599 454.696C337.47 449.693 327.308 447.192 315.114 447.192H282.284C256.02 447.192 234.134 440.939 216.624 428.432C199.428 415.613 190.829 397.947 190.829 375.435C190.829 350.734 201.147 329.942 221.783 313.058C242.419 296.174 266.026 287.732 292.602 287.732C318.866 287.732 342.004 295.705 362.014 311.651C382.025 327.284 396.564 347.608 405.631 372.621H355.448C349.508 360.427 340.909 350.734 329.653 343.543C318.71 336.352 306.36 332.756 292.602 332.756C277.594 332.756 264.619 336.664 253.675 344.481C243.045 352.298 237.729 361.99 237.729 373.559C237.729 382.939 241.638 390.13 249.454 395.133C257.271 399.823 266.964 402.168 278.532 402.168Z" fill="white"/>
</mask>
<g mask="url(#mask2_408_1321)">
<circle cx="344.313" cy="477" r="38.5" fill="#CDA170"/>
</g>
<path d="M846.813 699C868.076 699 885.313 681.763 885.313 660.5C885.313 639.237 868.076 622 846.813 622C825.551 622 808.313 639.237 808.313 660.5C808.313 681.763 825.551 699 846.813 699Z" fill="#FFF831"/>
<path d="M968.313 699C989.576 699 1006.81 681.763 1006.81 660.5C1006.81 639.237 989.576 622 968.313 622C947.051 622 929.813 639.237 929.813 660.5C929.813 681.763 947.051 699 968.313 699Z" fill="#FFF831"/>
<path d="M1089.81 699C1111.08 699 1128.31 681.763 1128.31 660.5C1128.31 639.237 1111.08 622 1089.81 622C1068.55 622 1051.31 639.237 1051.31 660.5C1051.31 681.763 1068.55 699 1089.81 699Z" fill="#FFF831"/>
<mask id="mask3_408_1321" style="mask-type:alpha" maskUnits="userSpaceOnUse" x="821" y="338" width="293" height="329">
<path d="M986.801 667H948.343L870.489 478.462V667H821.713V338.7H864.861L967.572 589.615L1070.75 338.7H1113.9V667H1065.12V478.462L986.801 667Z" fill="white"/>
</mask>
<g mask="url(#mask3_408_1321)">
<path d="M1089.81 699C1111.08 699 1128.31 681.763 1128.31 660.5C1128.31 639.237 1111.08 622 1089.81 622C1068.55 622 1051.31 639.237 1051.31 660.5C1051.31 681.763 1068.55 699 1089.81 699Z" fill="#CDA170"/>
<path d="M968.313 699C989.576 699 1006.81 681.763 1006.81 660.5C1006.81 639.237 989.576 622 968.313 622C947.051 622 929.813 639.237 929.813 660.5C929.813 681.763 947.051 699 968.313 699Z" fill="#CDA170"/>
<path d="M846.813 699C868.076 699 885.313 681.763 885.313 660.5C885.313 639.237 868.076 622 846.813 622C825.551 622 808.313 639.237 808.313 660.5C808.313 681.763 825.551 699 846.813 699Z" fill="#CDA170"/>
</g>
<path d="M870.313 670H821.813V673H870.313V670Z" fill="#CDA170"/>
<path d="M1113.81 670H1065.31V673H1113.81V670Z" fill="#CDA170"/>
<path d="M986.813 670H948.313V673H986.813V670Z" fill="#CDA170"/>
<path d="M897.542 556.262L895.462 557.122L894.992 555.985L897.086 555.12L895.307 553.761L896.056 552.786L897.841 554.158L898.135 551.927L899.355 552.088L899.054 554.306L901.147 553.441L901.617 554.577L899.538 555.437L901.317 556.795L900.567 557.771L898.769 556.404L898.46 558.642L897.241 558.48L897.542 556.262Z" fill="#8FCAFB"/>
<path d="M948.042 534.262L945.962 535.122L945.492 533.985L947.586 533.12L945.807 531.761L946.556 530.786L948.341 532.158L948.635 529.927L949.855 530.088L949.554 532.306L951.647 531.441L952.117 532.577L950.038 533.437L951.817 534.795L951.067 535.771L949.269 534.404L948.96 536.642L947.741 536.48L948.042 534.262Z" fill="#8FCAFB"/>
<path d="M897.813 554.75L948.813 532.25" stroke="#8FCAFB" stroke-dasharray="1 1"/>
<path d="M947.813 532.886L987.313 533" stroke="#8FCAFB" stroke-dasharray="1 1"/>
<path d="M1037.7 556.175L1039.78 557.035L1040.25 555.898L1038.16 555.033L1039.94 553.674L1039.19 552.699L1037.4 554.071L1037.11 551.84L1035.89 552.001L1036.19 554.219L1034.1 553.354L1033.63 554.491L1035.71 555.35L1033.93 556.709L1034.68 557.684L1036.47 556.317L1036.78 558.555L1038 558.393L1037.7 556.175Z" fill="#8FCAFB"/>
<path d="M987.202 534.175L989.281 535.035L989.751 533.898L987.658 533.033L989.436 531.674L988.687 530.699L986.903 532.071L986.608 529.84L985.389 530.001L985.689 532.219L983.596 531.354L983.126 532.491L985.205 533.35L983.426 534.709L984.176 535.684L985.974 534.317L986.283 536.555L987.502 536.393L987.202 534.175Z" fill="#8FCAFB"/>
<path d="M818.313 554.75L874.813 554.75" stroke="#8FCAFB" stroke-dasharray="1 1"/>
<path d="M875.063 554.75L897.563 554.75" stroke="#8FCAFB" stroke-dasharray="1 1"/>
<path d="M875.463 556.1L877.713 556.1L877.713 554.87L875.448 554.87L876.573 552.935L875.508 552.32L874.383 554.27L873.258 552.32L872.193 552.935L873.318 554.87L871.053 554.87L871.053 556.1L873.303 556.1L872.178 558.035L873.243 558.65L874.383 556.7L875.523 558.65L876.588 558.035L875.463 556.1Z" fill="#8FCAFB"/>
<path d="M818.963 556.1L821.213 556.1L821.213 554.87L818.948 554.87L820.073 552.935L819.008 552.32L817.883 554.27L816.758 552.32L815.693 552.935L816.818 554.87L814.553 554.87L814.553 556.1L816.803 556.1L815.678 558.035L816.743 558.65L817.883 556.7L819.023 558.65L820.088 558.035L818.963 556.1Z" fill="#8FCAFB"/>
<path d="M1117.56 554.625L1061.06 554.625" stroke="#8FCAFB" stroke-dasharray="1 1"/>
<path d="M1060.81 554.625L1038.06 554.5" stroke="#8FCAFB" stroke-dasharray="1 1"/>
<path d="M1060.41 553.275L1058.16 553.275L1058.16 554.505L1060.43 554.505L1059.3 556.44L1060.37 557.055L1061.49 555.105L1062.62 557.055L1063.68 556.44L1062.56 554.505L1064.82 554.505L1064.82 553.275L1062.57 553.275L1063.7 551.34L1062.63 550.725L1061.49 552.675L1060.35 550.725L1059.29 551.34L1060.41 553.275Z" fill="#8FCAFB"/>
<path d="M1116.91 553.275L1114.66 553.275L1114.66 554.505L1116.93 554.505L1115.8 556.44L1116.87 557.055L1117.99 555.105L1119.12 557.055L1120.18 556.44L1119.06 554.505L1121.32 554.505L1121.32 553.275L1119.07 553.275L1120.2 551.34L1119.13 550.725L1117.99 552.675L1116.85 550.725L1115.79 551.34L1116.91 553.275Z" fill="#8FCAFB"/>
<path d="M1037.43 554.664L986.43 532.164" stroke="#8FCAFB" stroke-dasharray="1 1"/>
<circle cx="722.813" cy="639.5" r="38.5" fill="#FFF831"/>
<mask id="mask4_408_1321" style="mask-type:alpha" maskUnits="userSpaceOnUse" x="559" y="487" width="217" height="275">
<path d="M560.236 679.084C560.236 657.823 567.897 639.688 583.217 624.68C598.538 609.672 616.985 602.168 638.559 602.168H691.087C701.093 602.168 709.535 600.292 716.413 596.54C723.292 592.788 726.731 587.004 726.731 579.187C726.731 566.368 721.103 555.424 709.847 546.357C698.591 537.29 685.616 532.756 670.92 532.756C645.594 532.756 625.271 546.044 609.95 572.621H559.298C568.366 548.233 582.905 528.066 602.915 512.12C623.239 495.861 645.751 487.732 670.451 487.732C701.093 487.732 726.106 498.05 745.491 518.686C765.189 539.322 775.038 564.335 775.038 593.726V756H728.138V736.302C714.068 753.186 692.338 761.628 662.947 761.628C633.557 761.628 609.012 754.124 589.314 739.116C569.929 723.795 560.236 703.785 560.236 679.084ZM607.136 679.084C607.136 690.027 612.452 699.095 623.082 706.286C633.713 713.165 647.001 716.604 662.947 716.604C681.707 716.604 697.184 711.758 709.378 702.065C721.885 692.06 728.138 679.24 728.138 663.607V627.025C720.634 640.47 706.721 647.192 686.397 647.192H638.559C629.805 647.192 622.301 650.319 616.047 656.572C610.107 662.513 607.136 670.017 607.136 679.084Z" fill="#D9D9D9"/>
</mask>
<g mask="url(#mask4_408_1321)">
<circle cx="722.813" cy="639.5" r="38.5" fill="#CDA170"/>
<circle cx="722.813" cy="639.5" r="38.5" fill="#CDA170"/>
</g>
<circle cx="726.313" cy="746" r="38.5" fill="#FFF831"/>
<mask id="mask5_408_1321" style="mask-type:alpha" maskUnits="userSpaceOnUse" x="559" y="487" width="217" height="275">
<path d="M560.236 679.084C560.236 657.823 567.897 639.688 583.217 624.68C598.538 609.672 616.985 602.168 638.559 602.168H691.087C701.093 602.168 709.535 600.292 716.413 596.54C723.292 592.788 726.731 587.004 726.731 579.187C726.731 566.368 721.103 555.424 709.847 546.357C698.591 537.29 685.616 532.756 670.92 532.756C645.594 532.756 625.271 546.044 609.95 572.621H559.298C568.366 548.233 582.905 528.066 602.915 512.12C623.239 495.861 645.751 487.732 670.451 487.732C701.093 487.732 726.106 498.05 745.491 518.686C765.189 539.322 775.038 564.335 775.038 593.726V756H728.138V736.302C714.068 753.186 692.338 761.628 662.947 761.628C633.557 761.628 609.012 754.124 589.314 739.116C569.929 723.795 560.236 703.785 560.236 679.084ZM607.136 679.084C607.136 690.027 612.452 699.095 623.082 706.286C633.713 713.165 647.001 716.604 662.947 716.604C681.707 716.604 697.184 711.758 709.378 702.065C721.885 692.06 728.138 679.24 728.138 663.607V627.025C720.634 640.47 706.721 647.192 686.397 647.192H638.559C629.805 647.192 622.301 650.319 616.047 656.572C610.107 662.513 607.136 670.017 607.136 679.084Z" fill="white"/>
</mask>
<g mask="url(#mask5_408_1321)">
<circle cx="726.313" cy="746" r="38.5" fill="#CDA170"/>
</g>
</svg>
