<svg width="1280" height="804" viewBox="0 0 1280 804" fill="none" xmlns="http://www.w3.org/2000/svg">
<rect x="408" y="134" width="475" height="538" fill="#001A3D"/>
<line x1="435" y1="184.75" x2="852" y2="184.75" stroke="white" stroke-width="0.5"/>
<line x1="435" y1="232.75" x2="851" y2="232.75" stroke="white" stroke-width="0.5"/>
<path d="M435.039 196.753L850 197" stroke="white" stroke-width="0.5"/>
<line x1="436" y1="187.75" x2="850" y2="187.75" stroke="white" stroke-width="0.5"/>
<line x1="435" y1="244.75" x2="851.5" y2="244.75" stroke="white" stroke-width="0.5"/>
<path d="M433.565 197.79H431.54V196.683H433.579L432.566 194.941L433.525 194.388L434.537 196.143L435.55 194.388L436.508 194.941L435.496 196.683H437.534V197.79H435.509L436.522 199.531L435.563 200.085L434.537 198.33L433.511 200.085L432.553 199.531L433.565 197.79Z" fill="white"/>
<path d="M849.565 197.79H847.54V196.683H849.579L848.566 194.941L849.525 194.388L850.537 196.143L851.55 194.388L852.508 194.941L851.496 196.683H853.534V197.79H851.509L852.522 199.531L851.563 200.085L850.537 198.33L849.511 200.085L848.553 199.531L849.565 197.79Z" fill="white"/>
<path d="M433.565 245.79H431.54V244.683H433.579L432.566 242.941L433.525 242.388L434.537 244.143L435.55 242.388L436.508 242.941L435.496 244.683H437.534V245.79H435.509L436.522 247.531L435.563 248.085L434.537 246.33L433.511 248.085L432.553 247.531L433.565 245.79Z" fill="white"/>
<path d="M849.565 245.79H847.54V244.683H849.579L848.566 242.941L849.525 242.388L850.537 244.143L851.55 242.388L852.508 242.941L851.496 244.683H853.534V245.79H851.509L852.522 247.531L851.563 248.085L850.537 246.33L849.511 248.085L848.553 247.531L849.565 245.79Z" fill="white"/>
<path d="M433.565 233.79H431.54V232.683H433.579L432.566 230.941L433.525 230.388L434.537 232.143L435.55 230.388L436.508 230.941L435.496 232.683H437.534V233.79H435.509L436.522 235.531L435.563 236.085L434.537 234.33L433.511 236.085L432.553 235.531L433.565 233.79Z" fill="white"/>
<path d="M849.565 233.79H847.54V232.683H849.579L848.566 230.941L849.525 230.388L850.537 232.143L851.55 230.388L852.508 230.941L851.496 232.683H853.534V233.79H851.509L852.522 235.531L851.563 236.085L850.537 234.33L849.511 236.085L848.553 235.531L849.565 233.79Z" fill="white"/>
<path d="M434.216 187.646H433.404L433.81 188.36L433.404 188.584L432.998 187.877L432.592 188.584L432.186 188.36L432.592 187.646H431.78V187.191H432.592L432.186 186.477L432.592 186.253L432.998 186.96L433.404 186.253L433.81 186.477L433.404 187.191H434.216V187.646ZM434.167 184.909H433.355V184.454H434.167L433.761 183.74L434.167 183.516L434.573 184.223L434.979 183.516L435.385 183.74L434.979 184.454H435.791V184.909H434.979L435.385 185.623L434.979 185.847L434.573 185.14L434.167 185.847L433.761 185.623L434.167 184.909ZM434.93 187.646V187.191H435.742L435.336 186.477L435.742 186.253L436.148 186.96L436.554 186.253L436.96 186.477L436.554 187.191H437.366V187.646H436.554L436.96 188.36L436.554 188.584L436.148 187.877L435.742 188.584L435.336 188.36L435.742 187.646H434.93Z" fill="white"/>
<path d="M851.216 187.646H850.404L850.81 188.36L850.404 188.584L849.998 187.877L849.592 188.584L849.186 188.36L849.592 187.646H848.78V187.191H849.592L849.186 186.477L849.592 186.253L849.998 186.96L850.404 186.253L850.81 186.477L850.404 187.191H851.216V187.646ZM851.167 184.909H850.355V184.454H851.167L850.761 183.74L851.167 183.516L851.573 184.223L851.979 183.516L852.385 183.74L851.979 184.454H852.791V184.909H851.979L852.385 185.623L851.979 185.847L851.573 185.14L851.167 185.847L850.761 185.623L851.167 184.909ZM851.93 187.646V187.191H852.742L852.336 186.477L852.742 186.253L853.148 186.96L853.554 186.253L853.96 186.477L853.554 187.191H854.366V187.646H853.554L853.96 188.36L853.554 188.584L853.148 187.877L852.742 188.584L852.336 188.36L852.742 187.646H851.93Z" fill="white"/>
<line x1="435" y1="184.75" x2="852" y2="184.75" stroke="white" stroke-width="0.5"/>
<line x1="435" y1="232.75" x2="851" y2="232.75" stroke="white" stroke-width="0.5"/>
<path d="M435.039 196.753L850 197" stroke="white" stroke-width="0.5"/>
<line x1="436" y1="187.75" x2="850" y2="187.75" stroke="white" stroke-width="0.5"/>
<line x1="435" y1="244.75" x2="851.5" y2="244.75" stroke="white" stroke-width="0.5"/>
<path d="M433.565 197.79H431.54V196.683H433.579L432.566 194.941L433.525 194.388L434.537 196.143L435.55 194.388L436.508 194.941L435.496 196.683H437.534V197.79H435.509L436.522 199.531L435.563 200.085L434.537 198.33L433.511 200.085L432.553 199.531L433.565 197.79Z" fill="white"/>
<path d="M849.565 197.79H847.54V196.683H849.579L848.566 194.941L849.525 194.388L850.537 196.143L851.55 194.388L852.508 194.941L851.496 196.683H853.534V197.79H851.509L852.522 199.531L851.563 200.085L850.537 198.33L849.511 200.085L848.553 199.531L849.565 197.79Z" fill="white"/>
<path d="M433.565 245.79H431.54V244.683H433.579L432.566 242.941L433.525 242.388L434.537 244.143L435.55 242.388L436.508 242.941L435.496 244.683H437.534V245.79H435.509L436.522 247.531L435.563 248.085L434.537 246.33L433.511 248.085L432.553 247.531L433.565 245.79Z" fill="white"/>
<path d="M849.565 245.79H847.54V244.683H849.579L848.566 242.941L849.525 242.388L850.537 244.143L851.55 242.388L852.508 242.941L851.496 244.683H853.534V245.79H851.509L852.522 247.531L851.563 248.085L850.537 246.33L849.511 248.085L848.553 247.531L849.565 245.79Z" fill="white"/>
<path d="M433.565 233.79H431.54V232.683H433.579L432.566 230.941L433.525 230.388L434.537 232.143L435.55 230.388L436.508 230.941L435.496 232.683H437.534V233.79H435.509L436.522 235.531L435.563 236.085L434.537 234.33L433.511 236.085L432.553 235.531L433.565 233.79Z" fill="white"/>
<path d="M849.565 233.79H847.54V232.683H849.579L848.566 230.941L849.525 230.388L850.537 232.143L851.55 230.388L852.508 230.941L851.496 232.683H853.534V233.79H851.509L852.522 235.531L851.563 236.085L850.537 234.33L849.511 236.085L848.553 235.531L849.565 233.79Z" fill="white"/>
<path d="M434.216 187.646H433.404L433.81 188.36L433.404 188.584L432.998 187.877L432.592 188.584L432.186 188.36L432.592 187.646H431.78V187.191H432.592L432.186 186.477L432.592 186.253L432.998 186.96L433.404 186.253L433.81 186.477L433.404 187.191H434.216V187.646ZM434.167 184.909H433.355V184.454H434.167L433.761 183.74L434.167 183.516L434.573 184.223L434.979 183.516L435.385 183.74L434.979 184.454H435.791V184.909H434.979L435.385 185.623L434.979 185.847L434.573 185.14L434.167 185.847L433.761 185.623L434.167 184.909ZM434.93 187.646V187.191H435.742L435.336 186.477L435.742 186.253L436.148 186.96L436.554 186.253L436.96 186.477L436.554 187.191H437.366V187.646H436.554L436.96 188.36L436.554 188.584L436.148 187.877L435.742 188.584L435.336 188.36L435.742 187.646H434.93Z" fill="white"/>
<path d="M851.216 187.646H850.404L850.81 188.36L850.404 188.584L849.998 187.877L849.592 188.584L849.186 188.36L849.592 187.646H848.78V187.191H849.592L849.186 186.477L849.592 186.253L849.998 186.96L850.404 186.253L850.81 186.477L850.404 187.191H851.216V187.646ZM851.167 184.909H850.355V184.454H851.167L850.761 183.74L851.167 183.516L851.573 184.223L851.979 183.516L852.385 183.74L851.979 184.454H852.791V184.909H851.979L852.385 185.623L851.979 185.847L851.573 185.14L851.167 185.847L850.761 185.623L851.167 184.909ZM851.93 187.646V187.191H852.742L852.336 186.477L852.742 186.253L853.148 186.96L853.554 186.253L853.96 186.477L853.554 187.191H854.366V187.646H853.554L853.96 188.36L853.554 188.584L853.148 187.877L852.742 188.584L852.336 188.36L852.742 187.646H851.93Z" fill="white"/>
<line x1="435" y1="313.25" x2="852" y2="313.25" stroke="white" stroke-width="0.5"/>
<line x1="435" y1="361.25" x2="851" y2="361.25" stroke="white" stroke-width="0.5"/>
<path d="M435.039 325.253L850 325.5" stroke="white" stroke-width="0.5"/>
<line x1="436" y1="316.25" x2="850" y2="316.25" stroke="white" stroke-width="0.5"/>
<line x1="435" y1="373.25" x2="851.5" y2="373.25" stroke="white" stroke-width="0.5"/>
<path d="M433.565 326.29H431.54V325.183H433.579L432.566 323.441L433.525 322.888L434.537 324.643L435.55 322.888L436.508 323.441L435.496 325.183H437.534V326.29H435.509L436.522 328.031L435.563 328.585L434.537 326.83L433.511 328.585L432.553 328.031L433.565 326.29Z" fill="white"/>
<path d="M849.565 326.29H847.54V325.183H849.579L848.566 323.441L849.525 322.888L850.537 324.643L851.55 322.888L852.508 323.441L851.496 325.183H853.534V326.29H851.509L852.522 328.031L851.563 328.585L850.537 326.83L849.511 328.585L848.553 328.031L849.565 326.29Z" fill="white"/>
<path d="M433.565 374.29H431.54V373.183H433.579L432.566 371.441L433.525 370.888L434.537 372.643L435.55 370.888L436.508 371.441L435.496 373.183H437.534V374.29H435.509L436.522 376.031L435.563 376.585L434.537 374.83L433.511 376.585L432.553 376.031L433.565 374.29Z" fill="white"/>
<path d="M849.565 374.29H847.54V373.183H849.579L848.566 371.441L849.525 370.888L850.537 372.643L851.55 370.888L852.508 371.441L851.496 373.183H853.534V374.29H851.509L852.522 376.031L851.563 376.585L850.537 374.83L849.511 376.585L848.553 376.031L849.565 374.29Z" fill="white"/>
<path d="M433.565 362.29H431.54V361.183H433.579L432.566 359.441L433.525 358.888L434.537 360.643L435.55 358.888L436.508 359.441L435.496 361.183H437.534V362.29H435.509L436.522 364.031L435.563 364.585L434.537 362.83L433.511 364.585L432.553 364.031L433.565 362.29Z" fill="white"/>
<path d="M849.565 362.29H847.54V361.183H849.579L848.566 359.441L849.525 358.888L850.537 360.643L851.55 358.888L852.508 359.441L851.496 361.183H853.534V362.29H851.509L852.522 364.031L851.563 364.585L850.537 362.83L849.511 364.585L848.553 364.031L849.565 362.29Z" fill="white"/>
<path d="M434.216 316.146H433.404L433.81 316.86L433.404 317.084L432.998 316.377L432.592 317.084L432.186 316.86L432.592 316.146H431.78V315.691H432.592L432.186 314.977L432.592 314.753L432.998 315.46L433.404 314.753L433.81 314.977L433.404 315.691H434.216V316.146ZM434.167 313.409H433.355V312.954H434.167L433.761 312.24L434.167 312.016L434.573 312.723L434.979 312.016L435.385 312.24L434.979 312.954H435.791V313.409H434.979L435.385 314.123L434.979 314.347L434.573 313.64L434.167 314.347L433.761 314.123L434.167 313.409ZM434.93 316.146V315.691H435.742L435.336 314.977L435.742 314.753L436.148 315.46L436.554 314.753L436.96 314.977L436.554 315.691H437.366V316.146H436.554L436.96 316.86L436.554 317.084L436.148 316.377L435.742 317.084L435.336 316.86L435.742 316.146H434.93Z" fill="white"/>
<path d="M851.216 316.146H850.404L850.81 316.86L850.404 317.084L849.998 316.377L849.592 317.084L849.186 316.86L849.592 316.146H848.78V315.691H849.592L849.186 314.977L849.592 314.753L849.998 315.46L850.404 314.753L850.81 314.977L850.404 315.691H851.216V316.146ZM851.167 313.409H850.355V312.954H851.167L850.761 312.24L851.167 312.016L851.573 312.723L851.979 312.016L852.385 312.24L851.979 312.954H852.791V313.409H851.979L852.385 314.123L851.979 314.347L851.573 313.64L851.167 314.347L850.761 314.123L851.167 313.409ZM851.93 316.146V315.691H852.742L852.336 314.977L852.742 314.753L853.148 315.46L853.554 314.753L853.96 314.977L853.554 315.691H854.366V316.146H853.554L853.96 316.86L853.554 317.084L853.148 316.377L852.742 317.084L852.336 316.86L852.742 316.146H851.93Z" fill="white"/>
<line x1="436" y1="446.25" x2="853" y2="446.25" stroke="white" stroke-width="0.5"/>
<line x1="436" y1="494.25" x2="852" y2="494.25" stroke="white" stroke-width="0.5"/>
<path d="M436.039 458.253L851 458.5" stroke="white" stroke-width="0.5"/>
<line x1="437" y1="449.25" x2="851" y2="449.25" stroke="white" stroke-width="0.5"/>
<line x1="436" y1="506.25" x2="852.5" y2="506.25" stroke="white" stroke-width="0.5"/>
<path d="M434.565 459.29H432.54V458.183H434.579L433.566 456.441L434.525 455.888L435.537 457.643L436.55 455.888L437.508 456.441L436.496 458.183H438.534V459.29H436.509L437.522 461.031L436.563 461.585L435.537 459.83L434.511 461.585L433.553 461.031L434.565 459.29Z" fill="white"/>
<path d="M850.565 459.29H848.54V458.183H850.579L849.566 456.441L850.525 455.888L851.537 457.643L852.55 455.888L853.508 456.441L852.496 458.183H854.534V459.29H852.509L853.522 461.031L852.563 461.585L851.537 459.83L850.511 461.585L849.553 461.031L850.565 459.29Z" fill="white"/>
<path d="M434.565 507.29H432.54V506.183H434.579L433.566 504.441L434.525 503.888L435.537 505.643L436.55 503.888L437.508 504.441L436.496 506.183H438.534V507.29H436.509L437.522 509.031L436.563 509.585L435.537 507.83L434.511 509.585L433.553 509.031L434.565 507.29Z" fill="white"/>
<path d="M850.565 507.29H848.54V506.183H850.579L849.566 504.441L850.525 503.888L851.537 505.643L852.55 503.888L853.508 504.441L852.496 506.183H854.534V507.29H852.509L853.522 509.031L852.563 509.585L851.537 507.83L850.511 509.585L849.553 509.031L850.565 507.29Z" fill="white"/>
<path d="M434.565 495.29H432.54V494.183H434.579L433.566 492.441L434.525 491.888L435.537 493.643L436.55 491.888L437.508 492.441L436.496 494.183H438.534V495.29H436.509L437.522 497.031L436.563 497.585L435.537 495.83L434.511 497.585L433.553 497.031L434.565 495.29Z" fill="white"/>
<path d="M850.565 495.29H848.54V494.183H850.579L849.566 492.441L850.525 491.888L851.537 493.643L852.55 491.888L853.508 492.441L852.496 494.183H854.534V495.29H852.509L853.522 497.031L852.563 497.585L851.537 495.83L850.511 497.585L849.553 497.031L850.565 495.29Z" fill="white"/>
<path d="M435.216 449.146H434.404L434.81 449.86L434.404 450.084L433.998 449.377L433.592 450.084L433.186 449.86L433.592 449.146H432.78V448.691H433.592L433.186 447.977L433.592 447.753L433.998 448.46L434.404 447.753L434.81 447.977L434.404 448.691H435.216V449.146ZM435.167 446.409H434.355V445.954H435.167L434.761 445.24L435.167 445.016L435.573 445.723L435.979 445.016L436.385 445.24L435.979 445.954H436.791V446.409H435.979L436.385 447.123L435.979 447.347L435.573 446.64L435.167 447.347L434.761 447.123L435.167 446.409ZM435.93 449.146V448.691H436.742L436.336 447.977L436.742 447.753L437.148 448.46L437.554 447.753L437.96 447.977L437.554 448.691H438.366V449.146H437.554L437.96 449.86L437.554 450.084L437.148 449.377L436.742 450.084L436.336 449.86L436.742 449.146H435.93Z" fill="white"/>
<path d="M852.216 449.146H851.404L851.81 449.86L851.404 450.084L850.998 449.377L850.592 450.084L850.186 449.86L850.592 449.146H849.78V448.691H850.592L850.186 447.977L850.592 447.753L850.998 448.46L851.404 447.753L851.81 447.977L851.404 448.691H852.216V449.146ZM852.167 446.409H851.355V445.954H852.167L851.761 445.24L852.167 445.016L852.573 445.723L852.979 445.016L853.385 445.24L852.979 445.954H853.791V446.409H852.979L853.385 447.123L852.979 447.347L852.573 446.64L852.167 447.347L851.761 447.123L852.167 446.409ZM852.93 449.146V448.691H853.742L853.336 447.977L853.742 447.753L854.148 448.46L854.554 447.753L854.96 447.977L854.554 448.691H855.366V449.146H854.554L854.96 449.86L854.554 450.084L854.148 449.377L853.742 450.084L853.336 449.86L853.742 449.146H852.93Z" fill="white"/>
<line x1="436" y1="575.25" x2="853" y2="575.25" stroke="white" stroke-width="0.5"/>
<line x1="436" y1="623.25" x2="852" y2="623.25" stroke="white" stroke-width="0.5"/>
<path d="M436.039 587.253L851 587.5" stroke="white" stroke-width="0.5"/>
<line x1="437" y1="578.25" x2="851" y2="578.25" stroke="white" stroke-width="0.5"/>
<line x1="436" y1="635.25" x2="852.5" y2="635.25" stroke="white" stroke-width="0.5"/>
<path d="M434.565 588.29H432.54V587.183H434.579L433.566 585.441L434.525 584.888L435.537 586.643L436.55 584.888L437.508 585.441L436.496 587.183H438.534V588.29H436.509L437.522 590.031L436.563 590.585L435.537 588.83L434.511 590.585L433.553 590.031L434.565 588.29Z" fill="white"/>
<path d="M850.565 588.29H848.54V587.183H850.579L849.566 585.441L850.525 584.888L851.537 586.643L852.55 584.888L853.508 585.441L852.496 587.183H854.534V588.29H852.509L853.522 590.031L852.563 590.585L851.537 588.83L850.511 590.585L849.553 590.031L850.565 588.29Z" fill="white"/>
<path d="M434.565 636.29H432.54V635.183H434.579L433.566 633.441L434.525 632.888L435.537 634.643L436.55 632.888L437.508 633.441L436.496 635.183H438.534V636.29H436.509L437.522 638.031L436.563 638.585L435.537 636.83L434.511 638.585L433.553 638.031L434.565 636.29Z" fill="white"/>
<path d="M850.565 636.29H848.54V635.183H850.579L849.566 633.441L850.525 632.888L851.537 634.643L852.55 632.888L853.508 633.441L852.496 635.183H854.534V636.29H852.509L853.522 638.031L852.563 638.585L851.537 636.83L850.511 638.585L849.553 638.031L850.565 636.29Z" fill="white"/>
<path d="M434.565 624.29H432.54V623.183H434.579L433.566 621.441L434.525 620.888L435.537 622.643L436.55 620.888L437.508 621.441L436.496 623.183H438.534V624.29H436.509L437.522 626.031L436.563 626.585L435.537 624.83L434.511 626.585L433.553 626.031L434.565 624.29Z" fill="white"/>
<path d="M850.565 624.29H848.54V623.183H850.579L849.566 621.441L850.525 620.888L851.537 622.643L852.55 620.888L853.508 621.441L852.496 623.183H854.534V624.29H852.509L853.522 626.031L852.563 626.585L851.537 624.83L850.511 626.585L849.553 626.031L850.565 624.29Z" fill="white"/>
<path d="M435.216 578.146H434.404L434.81 578.86L434.404 579.084L433.998 578.377L433.592 579.084L433.186 578.86L433.592 578.146H432.78V577.691H433.592L433.186 576.977L433.592 576.753L433.998 577.46L434.404 576.753L434.81 576.977L434.404 577.691H435.216V578.146ZM435.167 575.409H434.355V574.954H435.167L434.761 574.24L435.167 574.016L435.573 574.723L435.979 574.016L436.385 574.24L435.979 574.954H436.791V575.409H435.979L436.385 576.123L435.979 576.347L435.573 575.64L435.167 576.347L434.761 576.123L435.167 575.409ZM435.93 578.146V577.691H436.742L436.336 576.977L436.742 576.753L437.148 577.46L437.554 576.753L437.96 576.977L437.554 577.691H438.366V578.146H437.554L437.96 578.86L437.554 579.084L437.148 578.377L436.742 579.084L436.336 578.86L436.742 578.146H435.93Z" fill="white"/>
<path d="M852.216 578.146H851.404L851.81 578.86L851.404 579.084L850.998 578.377L850.592 579.084L850.186 578.86L850.592 578.146H849.78V577.691H850.592L850.186 576.977L850.592 576.753L850.998 577.46L851.404 576.753L851.81 576.977L851.404 577.691H852.216V578.146ZM852.167 575.409H851.355V574.954H852.167L851.761 574.24L852.167 574.016L852.573 574.723L852.979 574.016L853.385 574.24L852.979 574.954H853.791V575.409H852.979L853.385 576.123L852.979 576.347L852.573 575.64L852.167 576.347L851.761 576.123L852.167 575.409ZM852.93 578.146V577.691H853.742L853.336 576.977L853.742 576.753L854.148 577.46L854.554 576.753L854.96 576.977L854.554 577.691H855.366V578.146H854.554L854.96 578.86L854.554 579.084L854.148 578.377L853.742 579.084L853.336 578.86L853.742 578.146H852.93Z" fill="white"/>
<rect width="210" height="247" transform="matrix(-1 0 0 1 750 284)" fill="#001A3D"/>
<path d="M736.208 338.048H734.352L735.28 339.68L734.352 340.192L733.424 338.576L732.496 340.192L731.568 339.68L732.496 338.048H730.64V337.008H732.496L731.568 335.376L732.496 334.864L733.424 336.48L734.352 334.864L735.28 335.376L734.352 337.008H736.208V338.048ZM736.096 331.792H734.24V330.752H736.096L735.168 329.12L736.096 328.608L737.024 330.224L737.952 328.608L738.88 329.12L737.952 330.752H739.808V331.792H737.952L738.88 333.424L737.952 333.936L737.024 332.32L736.096 333.936L735.168 333.424L736.096 331.792ZM737.84 338.048V337.008H739.696L738.768 335.376L739.696 334.864L740.624 336.48L741.552 334.864L742.48 335.376L741.552 337.008H743.408V338.048H741.552L742.48 339.68L741.552 340.192L740.624 338.576L739.696 340.192L738.768 339.68L739.696 338.048H737.84Z" fill="white"/>
<path d="M549.208 338.048H547.352L548.28 339.68L547.352 340.192L546.424 338.576L545.496 340.192L544.568 339.68L545.496 338.048H543.64V337.008H545.496L544.568 335.376L545.496 334.864L546.424 336.48L547.352 334.864L548.28 335.376L547.352 337.008H549.208V338.048ZM549.096 331.792H547.24V330.752H549.096L548.168 329.12L549.096 328.608L550.024 330.224L550.952 328.608L551.88 329.12L550.952 330.752H552.808V331.792H550.952L551.88 333.424L550.952 333.936L550.024 332.32L549.096 333.936L548.168 333.424L549.096 331.792ZM550.84 338.048V337.008H552.696L551.768 335.376L552.696 334.864L553.624 336.48L554.552 334.864L555.48 335.376L554.552 337.008H556.408V338.048H554.552L555.48 339.68L554.552 340.192L553.624 338.576L552.696 340.192L551.768 339.68L552.696 338.048H550.84Z" fill="white"/>
<path d="M738.565 359.79H736.54V358.683H738.579L737.566 356.941L738.525 356.388L739.537 358.143L740.55 356.388L741.508 356.941L740.496 358.683H742.534V359.79H740.509L741.522 361.531L740.563 362.085L739.537 360.33L738.511 362.085L737.553 361.531L738.565 359.79Z" fill="white"/>
<path d="M738.565 442.79H736.54V441.683H738.579L737.566 439.941L738.525 439.388L739.537 441.143L740.55 439.388L741.508 439.941L740.496 441.683H742.534V442.79H740.509L741.522 444.531L740.563 445.085L739.537 443.33L738.511 445.085L737.553 444.531L738.565 442.79Z" fill="white"/>
<path d="M738.565 471.79H736.54V470.683H738.579L737.566 468.941L738.525 468.388L739.537 470.143L740.55 468.388L741.508 468.941L740.496 470.683H742.534V471.79H740.509L741.522 473.531L740.563 474.085L739.537 472.33L738.511 474.085L737.553 473.531L738.565 471.79Z" fill="white"/>
<path d="M546.565 471.79H544.54V470.683H546.579L545.566 468.941L546.525 468.388L547.537 470.143L548.55 468.388L549.508 468.941L548.496 470.683H550.534V471.79H548.509L549.522 473.531L548.563 474.085L547.537 472.33L546.511 474.085L545.553 473.531L546.565 471.79Z" fill="white"/>
<path d="M546.565 442.79H544.54V441.683H546.579L545.566 439.941L546.525 439.388L547.537 441.143L548.55 439.388L549.508 439.941L548.496 441.683H550.534V442.79H548.509L549.522 444.531L548.563 445.085L547.537 443.33L546.511 445.085L545.553 444.531L546.565 442.79Z" fill="white"/>
<path d="M545.565 359.79H543.54V358.683H545.579L544.566 356.941L545.525 356.388L546.537 358.143L547.55 356.388L548.508 356.941L547.496 358.683H549.534V359.79H547.509L548.522 361.531L547.563 362.085L546.537 360.33L545.511 362.085L544.553 361.531L545.565 359.79Z" fill="white"/>
<line x1="550" y1="331.5" x2="737" y2="331.498" stroke="white"/>
<line x1="548.726" y1="442.304" x2="739.307" y2="442.304" stroke="white"/>
<line y1="-0.5" x2="192.194" y2="-0.5" transform="matrix(1 -4.43717e-07 -1.72244e-08 -1 547.113 358.59)" stroke="white"/>
<line x1="739.272" y1="337.5" x2="548" y2="337.5" stroke="white"/>
<line x1="547.344" y1="471.545" x2="739.307" y2="471.545" stroke="white"/>
<mask id="path-81-outside-1_422_2589" maskUnits="userSpaceOnUse" x="429" y="263" width="433" height="22" fill="black">
<rect fill="white" x="429" y="263" width="433" height="22"/>
<path d="M429 284L429 264L862 264L862 284L429 284Z"/>
</mask>
<path d="M429 284L429 264L862 264L862 284L429 284Z" fill="#9E7D5A"/>
<path d="M429 264L429 265L862 265L862 264L862 263L429 263L429 264ZM862 284L862 283L429 283L429 284L429 285L862 285L862 284Z" fill="#1F1F1F" fill-opacity="0.8" mask="url(#path-81-outside-1_422_2589)"/>
<mask id="path-83-outside-2_422_2589" maskUnits="userSpaceOnUse" x="429" y="530" width="433" height="22" fill="black">
<rect fill="white" x="429" y="530" width="433" height="22"/>
<path d="M429 551L429 531L862 531L862 551L429 551Z"/>
</mask>
<path d="M429 551L429 531L862 531L862 551L429 551Z" fill="#9E7D5A"/>
<path d="M429 531L429 532L862 532L862 531L862 530L429 530L429 531ZM862 551L862 550L429 550L429 551L429 552L862 552L862 551Z" fill="#1F1F1F" fill-opacity="0.8" mask="url(#path-83-outside-2_422_2589)"/>
<mask id="path-85-outside-3_422_2589" maskUnits="userSpaceOnUse" x="521" y="155" width="20" height="503" fill="black">
<rect fill="white" x="521" y="155" width="20" height="503"/>
<path d="M522 155H540V658H522V155Z"/>
</mask>
<path d="M522 155H540V658H522V155Z" fill="#9E7D5A"/>
<path d="M540 155H539V658H540H541V155H540ZM522 658H523V155H522H521V658H522Z" fill="#1F1F1F" fill-opacity="0.8" mask="url(#path-85-outside-3_422_2589)"/>
<mask id="path-87-outside-4_422_2589" maskUnits="userSpaceOnUse" x="749" y="155" width="19" height="503" fill="black">
<rect fill="white" x="749" y="155" width="19" height="503"/>
<path d="M750 155H767V658H750V155Z"/>
</mask>
<path d="M750 155H767V658H750V155Z" fill="#9E7D5A"/>
<path d="M767 155H766V658H767H768V155H767ZM750 658H751V155H750H749V658H750Z" fill="#1F1F1F" fill-opacity="0.8" mask="url(#path-87-outside-4_422_2589)"/>
<mask id="path-89-outside-5_422_2589" maskUnits="userSpaceOnUse" x="750" y="395" width="112" height="23" fill="black">
<rect fill="white" x="750" y="395" width="112" height="23"/>
<path d="M750 417L750 396L862 396L862 417L750 417Z"/>
</mask>
<path d="M750 417L750 396L862 396L862 417L750 417Z" fill="#9E7D5A"/>
<path d="M750 396L750 397L862 397L862 396L862 395L750 395L750 396ZM862 417L862 416L750 416L750 417L750 418L862 418L862 417Z" fill="#1F1F1F" fill-opacity="0.8" mask="url(#path-89-outside-5_422_2589)"/>
<mask id="path-91-outside-6_422_2589" maskUnits="userSpaceOnUse" x="429" y="397" width="111" height="21" fill="black">
<rect fill="white" x="429" y="397" width="111" height="21"/>
<path d="M429 417L429 398L540 398L540 417L429 417Z"/>
</mask>
<path d="M429 417L429 398L540 398L540 417L429 417Z" fill="#9E7D5A"/>
<path d="M429 398L429 399L540 399L540 398L540 397L429 397L429 398ZM540 417L540 416L429 416L429 417L429 418L540 418L540 417Z" fill="#1F1F1F" fill-opacity="0.8" mask="url(#path-91-outside-6_422_2589)"/>
<mask id="path-93-outside-7_422_2589" maskUnits="userSpaceOnUse" x="634" y="155" width="22" height="129" fill="black">
<rect fill="white" x="634" y="155" width="22" height="129"/>
<path d="M655 284L635 284L635 155L655 155L655 284Z"/>
</mask>
<path d="M655 284L635 284L635 155L655 155L655 284Z" fill="#9E7D5A"/>
<path d="M635 284L636 284L636 155L635 155L634 155L634 284L635 284ZM655 155L654 155L654 284L655 284L656 284L656 155L655 155Z" fill="#1F1F1F" fill-opacity="0.8" mask="url(#path-93-outside-7_422_2589)"/>
<mask id="path-95-outside-8_422_2589" maskUnits="userSpaceOnUse" x="634" y="531" width="22" height="127" fill="black">
<rect fill="white" x="634" y="531" width="22" height="127"/>
<path d="M655 658L635 658L635 531L655 531L655 658Z"/>
</mask>
<path d="M655 658L635 658L635 531L655 531L655 658Z" fill="#9E7D5A"/>
<path d="M635 658L636 658L636 531L635 531L634 531L634 658L635 658ZM655 531L654 531L654 658L655 658L656 658L656 531L655 531Z" fill="#1F1F1F" fill-opacity="0.8" mask="url(#path-95-outside-8_422_2589)"/>
</svg>
